<svg xmlns="http://www.w3.org/2000/svg" xmlns:xlink="http://www.w3.org/1999/xlink" viewBox="0 0 512 512"><defs><style>.cls-1{fill:none;}.cls-2{clip-path:url(#clip-path);}.cls-3{fill:#171717;}.cls-4{fill:#cc2031;}</style><clipPath id="clip-path"><rect class="cls-1" width="512" height="512"/></clipPath></defs><g id="Layer_2" data-name="Layer 2"><g id="Layer_1-2" data-name="Layer 1"><g class="cls-2"><path class="cls-3" d="M512,346.5a166,166,0,0,0-91-147.82C419.27,320.5,320.5,419.27,198.68,421a165.55,165.55,0,0,0,232,68l80.57,22.29L489,430.71a164.84,164.84,0,0,0,23-84.21"/><path class="cls-4" d="M391,195.5C391,87.7,303.3,0,195.5,0S0,87.7,0,195.5a194.87,194.87,0,0,0,27.11,99.37L.72,390.28l95.41-26.39A194.87,194.87,0,0,0,195.5,391C303.3,391,391,303.3,391,195.5M165.5,150h-30A60,60,0,1,1,236,194.28L210.5,217.61V241h-30V204.39l35.23-32.25A29.67,29.67,0,0,0,225.5,150a30,30,0,0,0-60,0m15,121h30v30h-30Z"/></g></g></g></svg>