<svg xmlns="http://www.w3.org/2000/svg" xmlns:xlink="http://www.w3.org/1999/xlink" viewBox="0 0 384 349.38"><defs><style>.cls-1{fill:none;}.cls-2{clip-path:url(#clip-path);}.cls-3{fill:#171717;}.cls-4{fill:#cc2031;}</style><clipPath id="clip-path" transform="translate(0 0)"><rect class="cls-1" width="384" height="349.38"/></clipPath></defs><g id="Layer_2" data-name="Layer 2"><g id="Layer_1-2" data-name="Layer 1"><g class="cls-2"><path class="cls-3" d="M192,274.29a89.62,89.62,0,0,0,78.95-48H113.05a89.62,89.62,0,0,0,79,48" transform="translate(0 0)"/><path class="cls-4" d="M219.43,116.57a13.73,13.73,0,0,0-13.72-13.71H185.14v27.43h20.57a13.74,13.74,0,0,0,13.72-13.72" transform="translate(0 0)"/><polygon class="cls-4" points="130.28 117.69 123.8 137.14 136.77 137.14 130.28 117.69"/><path class="cls-3" d="M75.43,226.29A89.16,89.16,0,0,1,55,223.83l-21.17,8.72,17,41.18,28.94-12A6.85,6.85,0,0,1,88,264.17a126.17,126.17,0,0,0,31,31,6.83,6.83,0,0,1,2.4,8.24l-11.94,28.88,41.15,17.06,12-28.9a6.88,6.88,0,0,1,7.54-4.13,124,124,0,0,0,43.8-.06,6.88,6.88,0,0,1,7.55,4.12l12,28.95,41.09-17L262.6,303.37a6.86,6.86,0,0,1,2.43-8.25,124.92,124.92,0,0,0,31-30.95,6.84,6.84,0,0,1,8.23-2.39l28.93,12,17.08-41.17-15.4-6.41c-.77,0-1.53.11-2.31.11H286.14a102.65,102.65,0,0,1-188.28,0Z" transform="translate(0 0)"/><path class="cls-4" d="M75.43,212.57H332.57a51.43,51.43,0,0,0,0-102.86h-.68a6.86,6.86,0,0,1-6.47-4.57A65.08,65.08,0,0,0,263.6,61.71c-.67,0-1.33,0-2,0a6.9,6.9,0,0,1-6.89-4.39,89.13,89.13,0,0,0-166.63.19A6.85,6.85,0,0,1,81,62a54.11,54.11,0,0,0-5.55-.25,75.43,75.43,0,0,0,0,150.86M240,89.14h41.14a6.86,6.86,0,1,1,0,13.72H267.43v68.57h13.71a6.86,6.86,0,1,1,0,13.71H240a6.86,6.86,0,1,1,0-13.71h13.71V102.86H240a6.86,6.86,0,0,1,0-13.72m-61.72,0h27.43a27.43,27.43,0,0,1,0,54.86H185.14v34.29a6.86,6.86,0,0,1-13.71,0V96a6.86,6.86,0,0,1,6.85-6.86M110.07,59.55c15.1-45.31,52.9-45.84,54.5-45.84a6.86,6.86,0,0,1,0,13.72c-1.32,0-29.66.87-41.52,36.46a6.86,6.86,0,0,1-13-4.34M96.35,176.12l27.43-82.29a3.38,3.38,0,0,1,.24-.41,7.41,7.41,0,0,1,3.69-3.69c.15-.06.25-.18.41-.23a6.48,6.48,0,0,1,.77-.1,5.73,5.73,0,0,1,2.79,0,6.93,6.93,0,0,1,.78.1c.15,0,.25.17.4.23a7.41,7.41,0,0,1,3.69,3.69,3.38,3.38,0,0,1,.24.41l27.43,82.29a6.86,6.86,0,0,1-13,4.34l-9.87-29.6H119.23l-9.87,29.6a6.86,6.86,0,0,1-13-4.34M49.11,81.37A6.86,6.86,0,1,1,55,93.77a48.21,48.21,0,0,0-27.54,43.37,47.17,47.17,0,0,0,10.6,30,6.86,6.86,0,1,1-10.65,8.64A61.54,61.54,0,0,1,49.11,81.37" transform="translate(0 0)"/></g></g></g></svg>