<svg xmlns="http://www.w3.org/2000/svg" xmlns:xlink="http://www.w3.org/1999/xlink" viewBox="0 0 384 378.53"><defs><style>.cls-1{fill:none;}.cls-2{clip-path:url(#clip-path);}.cls-3{fill:#171717;}.cls-4{fill:#cc2031;}</style><clipPath id="clip-path" transform="translate(0 -0.74)"><rect class="cls-1" width="384" height="380"/></clipPath></defs><g id="Layer_2" data-name="Layer 2"><g id="Layer_1-2" data-name="Layer 1"><g class="cls-2"><path class="cls-3" d="M197.28,317a11.68,11.68,0,0,1-5.28,1.25,11.81,11.81,0,0,1-5.28-1.25L46.39,246.88,6.52,266.81a11.8,11.8,0,0,0,0,21.11L186.72,378a11.82,11.82,0,0,0,10.56,0l180.2-90.1a11.8,11.8,0,0,0,0-21.11l-39.87-19.93Z" transform="translate(0 -0.74)"/><path class="cls-3" d="M197.28,229.68a11.86,11.86,0,0,1-10.56,0L46.39,159.51,6.52,179.45a11.8,11.8,0,0,0,0,21.11L192,293.29l185.48-92.73a11.8,11.8,0,0,0,0-21.11l-39.87-19.94Z" transform="translate(0 -0.74)"/><path class="cls-4" d="M377.48,92.08,197.28,2a11.82,11.82,0,0,0-10.56,0L6.52,92.08a11.8,11.8,0,0,0,0,21.11L192,205.93l185.48-92.74a11.8,11.8,0,0,0,0-21.11" transform="translate(0 -0.74)"/></g></g></g></svg>