<svg xmlns="http://www.w3.org/2000/svg" viewBox="0 0 79.67 91.99"><defs><style>.cls-1{fill:#5652cc;}.cls-2{fill:#423eaf;}.cls-3{fill:#807dfb;}.cls-4{fill:#fcba06;}.cls-5{fill:#e19100;}.cls-6{fill:#ffe950;}</style></defs><g id="Layer_2" data-name="Layer 2"><g id="Layer_1-2" data-name="Layer 1"><polygon class="cls-1" points="39.84 59.06 28.52 52.53 28.52 6.53 39.84 13.07 39.84 59.06"/><polygon class="cls-2" points="39.84 59.06 51.15 52.53 51.15 6.53 39.84 13.07 39.84 59.06"/><polygon class="cls-3" points="39.84 0 28.52 6.53 39.84 13.07 51.15 6.53 39.84 0"/><polygon class="cls-1" points="54.09 67.29 42.78 60.76 42.78 14.77 54.09 21.3 54.09 67.29"/><polygon class="cls-2" points="54.09 67.29 65.41 60.76 65.41 14.77 54.09 21.3 54.09 67.29"/><polygon class="cls-3" points="54.09 21.3 42.78 14.77 54.09 8.23 65.41 14.77 54.09 21.3"/><polygon class="cls-1" points="68.35 75.53 57.04 68.99 57.04 23 68.35 29.53 68.35 75.53"/><polygon class="cls-2" points="68.35 29.53 68.35 75.53 79.67 68.99 79.67 23 68.35 29.53"/><polygon class="cls-3" points="57.04 23 68.35 29.53 79.67 23 68.35 16.47 57.04 23"/><polygon class="cls-1" points="25.57 67.29 14.26 60.76 14.26 14.77 25.57 21.3 25.57 67.29"/><polygon class="cls-2" points="25.57 67.29 36.89 60.76 36.89 14.77 25.57 21.3 25.57 67.29"/><polygon class="cls-3" points="25.57 21.3 14.26 14.77 25.57 8.23 36.89 14.77 25.57 21.3"/><polygon class="cls-4" points="39.84 75.53 28.52 68.99 28.52 33.31 39.84 39.84 39.84 75.53"/><polygon class="cls-5" points="39.84 75.53 51.15 68.99 51.15 33.31 39.84 39.84 39.84 75.53"/><polygon class="cls-6" points="39.84 39.84 28.52 33.3 39.84 26.77 51.15 33.3 39.84 39.84"/><polygon class="cls-1" points="54.09 83.76 42.78 77.23 42.78 35.77 54.09 42.31 54.09 83.76"/><polygon class="cls-2" points="54.09 83.76 65.41 77.23 65.41 35.77 54.09 42.31 54.09 83.76"/><polygon class="cls-3" points="54.09 42.31 42.78 35.78 54.09 29.24 65.41 35.78 54.09 42.31"/><polygon class="cls-1" points="0 69 11.31 75.53 11.31 39.73 0 33.2 0 69"/><polygon class="cls-2" points="11.31 75.53 22.63 69 22.63 33.2 11.31 39.73 11.31 75.53"/><polygon class="cls-3" points="0 33.2 11.31 39.73 22.63 33.2 11.31 26.66 0 33.2"/><polygon class="cls-1" points="25.58 83.76 14.26 77.23 14.26 51.96 25.58 58.49 25.58 83.76"/><polygon class="cls-2" points="25.58 83.76 36.89 77.23 36.89 51.96 25.58 58.49 25.58 83.76"/><polygon class="cls-3" points="25.58 58.49 14.26 51.96 25.58 45.42 36.89 51.96 25.58 58.49"/><polygon class="cls-1" points="28.52 85.46 39.84 91.99 39.84 56.19 28.52 49.66 28.52 85.46"/><polygon class="cls-2" points="39.84 56.19 39.84 91.99 51.15 85.46 51.15 49.66 39.84 56.19"/><polygon class="cls-3" points="39.84 56.19 28.52 49.66 39.84 43.13 51.15 49.66 39.84 56.19"/></g></g></svg>