<svg xmlns="http://www.w3.org/2000/svg" xmlns:xlink="http://www.w3.org/1999/xlink" viewBox="0 0 77.94 91"><defs><style>.cls-1{fill:none;}.cls-2{isolation:isolate;}.cls-3{clip-path:url(#clip-path);}.cls-4{fill:#f6f6fb;}.cls-5{mix-blend-mode:multiply;}.cls-6{clip-path:url(#clip-path-3);}.cls-7{clip-path:url(#clip-path-4);}.cls-8{fill:url(#linear-gradient);}.cls-9{clip-path:url(#clip-path-5);}.cls-10{fill:url(#linear-gradient-2);}.cls-11{clip-path:url(#clip-path-6);}.cls-12{fill:url(#linear-gradient-3);}.cls-13{clip-path:url(#clip-path-8);}.cls-14{clip-path:url(#clip-path-9);}.cls-15{fill:url(#linear-gradient-4);}.cls-16{clip-path:url(#clip-path-10);}.cls-17{fill:url(#linear-gradient-5);}.cls-18{clip-path:url(#clip-path-11);}.cls-19{fill:url(#linear-gradient-6);}.cls-20{clip-path:url(#clip-path-13);}.cls-21{fill:url(#linear-gradient-7);}</style><clipPath id="clip-path" transform="translate(0 0)"><rect class="cls-1" width="77.94" height="91"/></clipPath><clipPath id="clip-path-3" transform="translate(0 0)"><rect class="cls-1" x="38.97" y="38.38" width="38.97" height="43.16"/></clipPath><clipPath id="clip-path-4" transform="translate(0 0)"><path class="cls-1" d="M45.7,81.54,75.43,64.38c1.67-1,2.51-2.24,2.51-3.5s-.84-2.53-2.51-3.49L45,39.83a10,10,0,0,0-2.65-1L39,38.38V81.54Z"/></clipPath><linearGradient id="linear-gradient" y1="91" x2="1" y2="91" gradientTransform="matrix(38.97, 0, 0, -38.97, 38.97, 3606.13)" gradientUnits="userSpaceOnUse"><stop offset="0" stop-color="#c4cae9"/><stop offset="1" stop-color="#fff"/></linearGradient><clipPath id="clip-path-5" transform="translate(0 0)"><path class="cls-1" d="M33.41,41.55,13.65,53H3.18v7.92c0,1.16.78,2.32,2.31,3.21L33.41,80.21A11.35,11.35,0,0,0,39,81.54a11.35,11.35,0,0,0,5.56-1.33L72.45,64.09a3.92,3.92,0,0,0,2.3-3.21V53H64.29L44.53,41.55A11.46,11.46,0,0,0,39,40.22a11.46,11.46,0,0,0-5.56,1.33"/></clipPath><linearGradient id="linear-gradient-2" y1="91" x2="1" y2="91" gradientTransform="matrix(71.57, 0, 0, -71.57, 3.19, 6573.37)" gradientUnits="userSpaceOnUse"><stop offset="0" stop-color="#807dfb"/><stop offset="0.4" stop-color="#807dfb"/><stop offset="0.45" stop-color="#726fea"/><stop offset="0.54" stop-color="#4f4bbf"/><stop offset="0.57" stop-color="#423eaf"/><stop offset="1" stop-color="#423eaf"/></linearGradient><clipPath id="clip-path-6" transform="translate(0 0)"><path class="cls-1" d="M75.43,64.38,45,81.93A12.31,12.31,0,0,1,39,83.38a12.31,12.31,0,0,1-6-1.45L2.51,64.38C.83,63.41,0,62.15,0,60.88V68.5C0,69.76.83,71,2.51,72L32.92,89.55A12.31,12.31,0,0,0,39,91,12.31,12.31,0,0,0,45,89.55L75.43,72c1.67-1,2.51-2.24,2.51-3.5V60.88c0,1.27-.84,2.53-2.51,3.5"/></clipPath><linearGradient id="linear-gradient-3" y1="91" x2="1" y2="91" gradientTransform="matrix(77.94, 0, 0, -77.94, 0, 7168.27)" gradientUnits="userSpaceOnUse"><stop offset="0" stop-color="#ced3f8"/><stop offset="0.4" stop-color="#ced3f8"/><stop offset="0.55" stop-color="#bec3e9"/><stop offset="0.57" stop-color="#bbc0e6"/><stop offset="1" stop-color="#bbc0e6"/></linearGradient><clipPath id="clip-path-8" transform="translate(0 0)"><rect class="cls-1" x="38.97" y="19.19" width="38.97" height="43.16"/></clipPath><clipPath id="clip-path-9" transform="translate(0 0)"><path class="cls-1" d="M45.7,62.35,75.43,45.19c1.67-1,2.51-2.24,2.51-3.5s-.84-2.53-2.51-3.5L45,20.64a10,10,0,0,0-2.65-1L39,19.19V62.35Z"/></clipPath><linearGradient id="linear-gradient-4" x1="0" y1="91" x2="1" y2="91" gradientTransform="matrix(38.97, 0, 0, -38.97, 38.97, 3586.94)" xlink:href="#linear-gradient"/><clipPath id="clip-path-10" transform="translate(0 0)"><path class="cls-1" d="M33.41,22.36,13.65,33.77H3.18v7.92c0,1.16.78,2.32,2.31,3.21L33.41,61A11.35,11.35,0,0,0,39,62.35,11.35,11.35,0,0,0,44.53,61L72.45,44.9a3.92,3.92,0,0,0,2.3-3.21V33.77H64.29L44.53,22.36A11.35,11.35,0,0,0,39,21a11.35,11.35,0,0,0-5.56,1.33"/></clipPath><linearGradient id="linear-gradient-5" x1="0" y1="91" x2="1" y2="91" gradientTransform="matrix(71.57, 0, 0, -71.57, 3.19, 6554.18)" xlink:href="#linear-gradient-2"/><clipPath id="clip-path-11" transform="translate(0 0)"><path class="cls-1" d="M75.43,45.18,45,62.74A12.31,12.31,0,0,1,39,64.19a12.31,12.31,0,0,1-6-1.45L2.51,45.18C.83,44.22,0,43,0,41.69v7.62c0,1.26.83,2.53,2.51,3.49L32.92,70.36a12.31,12.31,0,0,0,6,1.45A12.31,12.31,0,0,0,45,70.36L75.43,52.8c1.67-1,2.51-2.23,2.51-3.49V41.69c0,1.26-.84,2.53-2.51,3.49"/></clipPath><linearGradient id="linear-gradient-6" y1="91" x2="1" y2="91" gradientTransform="matrix(77.94, 0, 0, -77.94, 0, 7149.08)" xlink:href="#linear-gradient-3"/><clipPath id="clip-path-13" transform="translate(0 0)"><path class="cls-1" d="M75.43,26,45,43.55A12.31,12.31,0,0,1,39,45a12.31,12.31,0,0,1-6-1.45L2.51,26C.83,25,0,23.76,0,22.5v7.62c0,1.26.83,2.53,2.51,3.49L32.92,51.17a12.31,12.31,0,0,0,6,1.45A12.31,12.31,0,0,0,45,51.17L75.43,33.61c1.67-1,2.51-2.23,2.51-3.49V22.5c0,1.26-.84,2.53-2.51,3.49"/></clipPath><linearGradient id="linear-gradient-7" y1="91" x2="1" y2="91" gradientTransform="matrix(77.94, 0, 0, -77.94, 0, 7129.89)" xlink:href="#linear-gradient-3"/></defs><g class="cls-2"><g id="Layer_2" data-name="Layer 2"><g id="Layer_1-2" data-name="Layer 1"><g class="cls-3"><g class="cls-3"><path class="cls-4" d="M32.92,81.93,2.5,64.38c-1.67-1-2.5-2.24-2.5-3.5s.83-2.53,2.5-3.49L32.92,39.83a12.31,12.31,0,0,1,6-1.45A12.31,12.31,0,0,1,45,39.83L75.43,57.39c1.67,1,2.51,2.23,2.51,3.49s-.84,2.53-2.51,3.5L45,81.93A12.31,12.31,0,0,1,39,83.38a12.31,12.31,0,0,1-6-1.45" transform="translate(0 0)"/><g class="cls-5"><g class="cls-6"><g class="cls-7"><rect class="cls-8" x="38.97" y="38.38" width="38.97" height="43.16"/></g></g></g></g><g class="cls-9"><rect class="cls-10" x="3.18" y="40.22" width="71.57" height="41.32"/></g><g class="cls-11"><rect class="cls-12" y="60.88" width="77.94" height="30.12"/></g><g class="cls-3"><path class="cls-4" d="M32.92,62.74,2.5,45.18C.83,44.22,0,43,0,41.69s.83-2.53,2.5-3.49L32.92,20.64a12.31,12.31,0,0,1,6-1.45A12.31,12.31,0,0,1,45,20.64L75.43,38.2c1.67,1,2.51,2.23,2.51,3.49s-.84,2.53-2.51,3.49L45,62.74A12.31,12.31,0,0,1,39,64.19a12.31,12.31,0,0,1-6-1.45" transform="translate(0 0)"/><g class="cls-5"><g class="cls-13"><g class="cls-14"><rect class="cls-15" x="38.97" y="19.19" width="38.97" height="43.16"/></g></g></g></g><g class="cls-16"><rect class="cls-17" x="3.18" y="21.03" width="71.57" height="41.32"/></g><g class="cls-18"><rect class="cls-19" y="41.69" width="77.94" height="30.12"/></g><g class="cls-3"><path class="cls-4" d="M32.92,43.55,2.5,26C.83,25,0,23.76,0,22.5S.83,20,2.5,19L32.92,1.45A12.31,12.31,0,0,1,39,0,12.31,12.31,0,0,1,45,1.45L75.43,19c1.67,1,2.51,2.24,2.51,3.5S77.1,25,75.43,26L45,43.55A12.31,12.31,0,0,1,39,45a12.31,12.31,0,0,1-6-1.45" transform="translate(0 0)"/></g><g class="cls-20"><rect class="cls-21" y="22.5" width="77.94" height="30.12"/></g></g></g></g></g></svg>