<svg xmlns="http://www.w3.org/2000/svg" xmlns:xlink="http://www.w3.org/1999/xlink" viewBox="0 0 384 383.97"><defs><style>.cls-1{fill:none;}.cls-2{clip-path:url(#clip-path);}.cls-3{fill:#cc2031;}.cls-4{fill:#171717;}</style><clipPath id="clip-path"><rect class="cls-1" width="384" height="383.97"/></clipPath></defs><g id="Layer_2" data-name="Layer 2"><g id="Layer_1-2" data-name="Layer 1"><g class="cls-2"><path class="cls-3" d="M372.75,0H11.25A11.25,11.25,0,0,0,0,11.25V67.5H384V11.25A11.25,11.25,0,0,0,372.75,0M259.5,45a11.25,11.25,0,1,1,11.25-11.25A11.27,11.27,0,0,1,259.5,45m45,0a11.25,11.25,0,1,1,11.25-11.25A11.27,11.27,0,0,1,304.5,45m45,0a11.25,11.25,0,1,1,11.25-11.25A11.27,11.27,0,0,1,349.5,45"/><path class="cls-4" d="M0,315.6a11.25,11.25,0,0,0,11.25,11.25h77a122.19,122.19,0,0,1-7.62-42.51V210.52a33.81,33.81,0,0,1,22.46-31.81l77.62-27.55a33.66,33.66,0,0,1,22.58,0l77.62,27.55a33.81,33.81,0,0,1,22.47,31.8v73.83a122.1,122.1,0,0,1-7.63,42.5h77A11.25,11.25,0,0,0,384,315.59V89.73H0Z"/><path class="cls-3" d="M273.39,199.91l-77.63-27.55a11.28,11.28,0,0,0-7.52,0l-77.63,27.55a11.26,11.26,0,0,0-7.49,10.61v73.82a100.6,100.6,0,0,0,87.43,99.53,10.56,10.56,0,0,0,2.9,0,100.59,100.59,0,0,0,87.42-99.53V210.52a11.27,11.27,0,0,0-7.48-10.61M230,272.3l-31.5,31.5a11.26,11.26,0,0,1-15.91,0L165.7,286.92A11.25,11.25,0,0,1,181.61,271l8.92,8.92,23.55-23.54A11.25,11.25,0,0,1,230,272.3"/></g></g></g></svg>