<svg xmlns="http://www.w3.org/2000/svg" xmlns:xlink="http://www.w3.org/1999/xlink" viewBox="0 0 383.42 384"><defs><style>.cls-1{fill:none;}.cls-2{fill:#ed4f63;}.cls-3{clip-path:url(#clip-path);}.cls-4{fill:#cc2131;}</style><clipPath id="clip-path" transform="translate(-0.29 0)"><rect class="cls-1" width="384" height="384"/></clipPath></defs><g id="Layer_2" data-name="Layer 2"><g id="Layer_1-2" data-name="Layer 1"><rect class="cls-2" x="58.96" y="214.96" width="34.23" height="25.26"/><g class="cls-3"><path class="cls-4" d="M361.25,148.05H22.75A22.46,22.46,0,0,0,.29,170.52v191A22.47,22.47,0,0,0,22.75,384h338.5a22.47,22.47,0,0,0,22.46-22.46v-191a22.46,22.46,0,0,0-22.46-22.47ZM90.9,335.25H35.29V312.79H90.9Zm25-91.28a18.74,18.74,0,0,1-18.72,18.72H55.51A18.74,18.74,0,0,1,36.79,244V211.22A18.74,18.74,0,0,1,55.51,192.5H97.22a18.74,18.74,0,0,1,18.72,18.72Zm60.9,91.28H121.23V312.79h55.61Zm85.93,0H207.16V312.79h55.61Zm85.94,0H293.1V312.79h55.61Z" transform="translate(-0.29 0)"/><path class="cls-2" d="M301.88,54.57l-48-48a22.47,22.47,0,0,0-31.77,0l-119,119H234.93Z" transform="translate(-0.29 0)"/></g><path class="cls-2" d="M300.5,125.58l35.13-37.26L317.77,70.47l-52,55.11Z" transform="translate(-0.29 0)"/><path class="cls-2" d="M361.25,125.58a44.94,44.94,0,0,1,13.83,2.19l-23.56-23.55-20.14,21.36Z" transform="translate(-0.29 0)"/></g></g></svg>