<svg xmlns="http://www.w3.org/2000/svg" xmlns:xlink="http://www.w3.org/1999/xlink" viewBox="0 0 384 384"><defs><style>.cls-1{fill:none;}.cls-2{clip-path:url(#clip-path);}.cls-3{opacity:0.3;}.cls-4{clip-path:url(#clip-path-3);}.cls-5{fill:#fff;}</style><clipPath id="clip-path"><rect class="cls-1" width="384" height="384"/></clipPath><clipPath id="clip-path-3"><rect class="cls-1" y="128" width="384" height="48"/></clipPath></defs><g id="Layer_2" data-name="Layer 2"><g id="Layer_1-2" data-name="Layer 1"><g class="cls-2"><g class="cls-2"><g class="cls-3"><g class="cls-4"><path class="cls-5" d="M383.93,128H0v16a32,32,0,0,0,32,32H80a32,32,0,0,0,32-32,32,32,0,0,0,32,32h96a32,32,0,0,0,32-32,32,32,0,0,0,32,32h48a32,32,0,0,0,32-32V128Z"/></g></g><path class="cls-5" d="M380.07,112,351.38,11.6A16,16,0,0,0,336,0H262.71l22.41,112Z"/><path class="cls-5" d="M121.29,0H48A16,16,0,0,0,32.62,11.6L3.93,112H98.88Z"/><polygon class="cls-5" points="230.09 0 153.91 0 131.52 112 252.48 112 230.09 0"/><path class="cls-5" d="M304,192a47.79,47.79,0,0,1-32-12.25A47.81,47.81,0,0,1,240,192H144a47.81,47.81,0,0,1-32-12.25A47.81,47.81,0,0,1,80,192H32a47.69,47.69,0,0,1-16-2.8V368a16,16,0,0,0,16,16H64V240a16,16,0,0,1,16-16h80a16,16,0,0,1,16,16V384H352a16,16,0,0,0,16-16V189.2a47.69,47.69,0,0,1-16,2.8Zm16,96a16,16,0,0,1-16,16H224a16,16,0,0,1-16-16V240a16,16,0,0,1,16-16h80a16,16,0,0,1,16,16Z"/></g></g></g></g></svg>