<svg xmlns="http://www.w3.org/2000/svg" xmlns:xlink="http://www.w3.org/1999/xlink" viewBox="0 0 384 384"><defs><style>.cls-1{fill:none;}.cls-2{clip-path:url(#clip-path);}.cls-3{opacity:0.3;}.cls-4{clip-path:url(#clip-path-3);}.cls-5{fill:#fff;}.cls-6{clip-path:url(#clip-path-4);}.cls-7{clip-path:url(#clip-path-5);}</style><clipPath id="clip-path"><rect class="cls-1" width="384" height="384"/></clipPath><clipPath id="clip-path-3"><rect class="cls-1" x="269.25" y="79.46" width="47.25" height="48"/></clipPath><clipPath id="clip-path-4"><rect class="cls-1" y="79.46" width="66.75" height="48"/></clipPath><clipPath id="clip-path-5"><rect class="cls-1" x="256.5" y="221.25" width="127.5" height="73.5"/></clipPath></defs><g id="Layer_2" data-name="Layer 2"><g id="Layer_1-2" data-name="Layer 1"><g class="cls-2"><g class="cls-2"><g class="cls-3"><g class="cls-4"><path class="cls-5" d="M282.75,79.46h-13.5v48H316.5V113.21a33.79,33.79,0,0,0-33.75-33.75"/></g></g><path class="cls-5" d="M235.5,0h-135A11.25,11.25,0,0,0,89.25,11.25V127.46h157.5V11.25A11.25,11.25,0,0,0,235.5,0"/><g class="cls-3"><g class="cls-6"><path class="cls-5" d="M66.75,79.46H35.25A35.25,35.25,0,0,0,0,114.71v12.75H66.75Z"/></g></g><g class="cls-3"><g class="cls-7"><path class="cls-5" d="M256.5,258c0,16.65,13.71,36.75,30.75,36.75h85.5A11.25,11.25,0,0,0,384,283.5v-51a11.25,11.25,0,0,0-11.25-11.25h-85.5c-17,0-30.75,20.11-30.75,36.75m48.75,0A11.25,11.25,0,1,1,294,246.75,11.25,11.25,0,0,1,305.25,258"/></g></g><path class="cls-5" d="M248.92,297.91C239.44,286.56,234,272,234,258s5.44-28.56,14.92-39.91c10.41-12.47,24-19.34,38.33-19.34H364.5V165a39.61,39.61,0,0,0-.38-5.48A11.17,11.17,0,0,0,353,150H0V345.51C0,366.73,15.14,384,33.75,384h297c18.61,0,33.75-17.27,33.75-38.49V317.25H287.25c-14.31,0-27.92-6.87-38.33-19.34"/></g></g></g></g></svg>