<svg xmlns="http://www.w3.org/2000/svg" xmlns:xlink="http://www.w3.org/1999/xlink" viewBox="0 0 337.5 384"><defs><style>.cls-1{fill:none;}.cls-2{clip-path:url(#clip-path);}.cls-3{opacity:0.3;}.cls-4{clip-path:url(#clip-path-3);}.cls-5{fill:#fff;}.cls-6{clip-path:url(#clip-path-4);}</style><clipPath id="clip-path"><rect class="cls-1" width="337.5" height="384"/></clipPath><clipPath id="clip-path-3"><rect class="cls-1" x="90" width="45" height="22.5"/></clipPath><clipPath id="clip-path-4"><rect class="cls-1" x="228.63" y="172.16" width="37.75" height="35.89"/></clipPath></defs><g id="Layer_2" data-name="Layer 2"><g id="Layer_1-2" data-name="Layer 1"><g class="cls-2"><g class="cls-2"><g class="cls-3"><g class="cls-4"><path class="cls-5" d="M101.25,22.5h22.5A11.25,11.25,0,0,0,135,11.25V0H90V11.25A11.25,11.25,0,0,0,101.25,22.5"/></g></g><path class="cls-5" d="M135,259.5V228.41l-12.44-6.22a33.76,33.76,0,0,1,0-60.37L135,155.59V124.5a45,45,0,0,1,45-45h45V33.75A33.79,33.79,0,0,0,191.25,0H157.5V11.25A33.79,33.79,0,0,1,123.75,45h-22.5A33.79,33.79,0,0,1,67.5,11.25V0H33.75A33.79,33.79,0,0,0,0,33.75v316.5A33.79,33.79,0,0,0,33.75,384h157.5A33.79,33.79,0,0,0,225,350.25V304.5H180a45,45,0,0,1-45-45m-11.25,78.75h-22.5a11.25,11.25,0,0,1,0-22.5h22.5a11.25,11.25,0,0,1,0,22.5"/><g class="cls-3"><g class="cls-6"><path class="cls-5" d="M250.76,178.68l-3.26-6.52-3.26,6.52a11.27,11.27,0,0,1-8.4,6.1l-7.22,1.09,5.21,5.12a11.26,11.26,0,0,1,3.2,9.87l-1.2,7.19,6.49-3.36a11.28,11.28,0,0,1,10.36,0l6.49,3.36-1.2-7.19a11.26,11.26,0,0,1,3.2-9.87l5.2-5.12-7.21-1.09a11.27,11.27,0,0,1-8.4-6.1"/></g></g><path class="cls-5" d="M315,102H180a22.53,22.53,0,0,0-22.5,22.5v45l-24.87,12.44a11.25,11.25,0,0,0,0,20.12L157.5,214.5v45A22.53,22.53,0,0,0,180,282H315a22.53,22.53,0,0,0,22.5-22.5v-135A22.53,22.53,0,0,0,315,102m-16.8,84.11-17.08,16.81,3.93,23.64a11.26,11.26,0,0,1-16.28,11.84L247.5,227.35,226.23,238.4A11.26,11.26,0,0,1,210,226.56l3.93-23.64L196.8,186.11A11.26,11.26,0,0,1,203,167l23.7-3.56L237.44,142c3.82-7.63,16.3-7.63,20.12,0l10.71,21.43L292,167a11.26,11.26,0,0,1,6.23,19.15"/></g></g></g></g></svg>