<svg xmlns="http://www.w3.org/2000/svg" xmlns:xlink="http://www.w3.org/1999/xlink" viewBox="0 0 511.97 512"><defs><style>.cls-1{fill:none;}.cls-2{clip-path:url(#clip-path);}.cls-3{fill:#fff;}.cls-4{opacity:0.3;}.cls-5{clip-path:url(#clip-path-3);}</style><clipPath id="clip-path" transform="translate(0)"><rect class="cls-1" width="512" height="512"/></clipPath><clipPath id="clip-path-3" transform="translate(0)"><rect class="cls-1" x="218.25" y="22.49" width="293.71" height="489.51"/></clipPath></defs><g id="Layer_2" data-name="Layer 2"><g id="Layer_1-2" data-name="Layer 1"><g class="cls-2"><g class="cls-2"><path class="cls-3" d="M166.52,309.27,122,288,84.36,380.87c-.12.29-.23.59-.33.89-4.78,14.33-3.71,27.35,3,36.66,5.81,8.07,15.16,12.52,26.33,12.52h0a53.68,53.68,0,0,0,16.88-3l.89-.32L224,390l-21.27-44.55c-5.69-11.91-24.31-30.53-36.22-36.21" transform="translate(0)"/><g class="cls-4"><g class="cls-5"><path class="cls-3" d="M510.72,22.49,218.25,315a91.87,91.87,0,0,1,11.56,17.59L304.05,488c10,20.88,23.12,24,30.06,24h0c6.2,0,21.54-2.7,29.88-27.71L509,49.18c3.25-9.76,3.79-18.91,1.69-26.69" transform="translate(0)"/></g></g><path class="cls-3" d="M197,293.75,489.52,1.26A37.47,37.47,0,0,0,479.7,0a53.68,53.68,0,0,0-16.88,3L27.71,148C4.7,155.68.5,169.08.05,176.38S2.1,197.5,24,208l155.45,74.24A92.18,92.18,0,0,1,197,293.75" transform="translate(0)"/></g></g></g></g></svg>