<?xml version="1.0" encoding="UTF-8" standalone="no"?>
<svg
   xmlns:dc="http://purl.org/dc/elements/1.1/"
   xmlns:cc="http://creativecommons.org/ns#"
   xmlns:rdf="http://www.w3.org/1999/02/22-rdf-syntax-ns#"
   xmlns:svg="http://www.w3.org/2000/svg"
   xmlns="http://www.w3.org/2000/svg"
   viewBox="0 0 1061.3333 732"
   height="732"
   width="1061.3333"
   xml:space="preserve"
   id="svg2"
   version="1.1"><metadata
     id="metadata8"><rdf:RDF><cc:Work
         rdf:about=""><dc:format>image/svg+xml</dc:format><dc:type
           rdf:resource="http://purl.org/dc/dcmitype/StillImage" /></cc:Work></rdf:RDF></metadata><defs
     id="defs6"><clipPath
       id="clipPath18"
       clipPathUnits="userSpaceOnUse"><path
         id="path16"
         d="M 0,549 H 796 V 0 H 0 Z" /></clipPath></defs><g
     transform="matrix(1.3333333,0,0,-1.3333333,0,732)"
     id="g10"><g
       id="g12"><g
         clip-path="url(#clipPath18)"
         id="g14"><g
           transform="translate(624.2729,299.8545)"
           id="g20"><path
             id="path22"
             style="fill:#000000;fill-opacity:1;fill-rule:nonzero;stroke:none"
             d="m 0,0 c -6.93,-5.642 -14.041,-11.212 -19.244,-18.517 -8.811,-12.369 -20.465,-21.754 -31.873,-31.382 -10.374,-8.755 -22.502,-13.882 -36.031,-15.548 -4.066,-0.501 -8.278,-2.69 -11.123,2.91 -1.315,2.587 -4.41,1.03 -6.56,0.026 -5.838,-2.724 -11.605,-5.602 -17.286,-8.364 -1.55,1.387 -0.943,2.882 -0.953,4.258 -0.06,8.552 -3.044,10.348 -10.646,6.264 -2.329,-1.251 -4.506,-2.795 -6.708,-4.273 -4.975,-3.338 -9.923,-6.717 -16.167,-10.95 0.776,2.723 1.052,3.618 1.284,4.523 0.899,3.497 4.553,7.369 0.074,10.413 -4.038,2.744 -6.564,-1.629 -9.256,-3.562 -7.496,-5.386 -14.24,-11.856 -24.561,-17.001 2.616,4.658 4.385,7.449 5.801,10.408 2.38,4.975 8.907,10.166 4.296,15.414 -4.261,4.852 -10.826,0.322 -16.214,-1.28 -7.963,-2.367 -14.806,-7.355 -23.882,-11.352 7.006,14.944 13.786,27.876 23.89,38.817 1.947,2.108 4.271,4.638 0.758,7.286 -2.973,2.239 -4.7,-0.105 -6.575,-2.147 -10.435,-11.374 -20.784,-22.836 -31.491,-33.951 -7.7,-7.994 -16.247,-15.08 -25.443,-21.363 -3.974,-2.715 -5.756,-1.913 -6.674,2.865 -1.28,6.666 -3.605,7.583 -9.296,3.828 -5.229,-3.45 -10.161,-7.346 -15.319,-10.908 -2.732,-1.888 -5.684,-5.476 -8.74,-4.216 -3.458,1.426 -1.52,5.947 -1.827,9.124 -0.583,6.039 -3.392,7.67 -8.619,4.452 -4.071,-2.503 -7.798,-5.563 -11.678,-8.377 -5.445,-3.459 -10.89,-6.917 -16.835,-10.693 -0.599,6.024 1.932,10.513 4.233,14.817 4.432,8.291 9.486,16.245 14.124,24.427 4.509,7.954 9.847,15.573 11.837,24.685 1.287,5.891 -1.634,8.328 -7.277,6.246 -2.916,-1.075 -5.683,-2.65 -8.359,-4.261 -13.496,-8.122 -25.832,-17.763 -37.186,-28.675 -9.828,-9.445 -19.692,-18.854 -30.002,-28.72 3.369,7.587 6.836,14.65 9.684,21.956 6.942,17.81 16.409,34.371 24.838,51.448 1.455,2.948 4.758,6.666 1.602,9.86 -3.362,3.403 -6.773,-0.425 -9.737,-1.917 -11.869,-5.972 -23.202,-12.906 -34.153,-20.425 -42.303,-29.049 -80.623,-62.894 -117.879,-98.022 -1.864,-1.758 -3.281,-4.923 -6.556,-4.037 16.284,23.173 32.492,46.269 48.732,69.345 21.941,31.176 46.696,60.333 66.812,92.815 8.781,14.179 16.751,28.796 21.346,44.966 6.423,22.601 0.756,39.83 -16.664,51.644 -9.088,6.164 -19.147,8.813 -30,9.224 -18.633,0.706 -35.661,-5.29 -52.335,-12.53 -9.06,-3.934 -18.056,-8.14 -25.519,-14.9 -1.566,-1.418 -2.852,-3.213 -1.508,-4.997 1.802,-2.392 3.446,0.017 4.757,1.051 8.642,6.818 18.758,10.931 28.661,15.275 14.459,6.344 29.505,10.594 45.582,9.914 33.883,-1.436 51,-26.293 40.106,-58.202 -6.614,-19.368 -17.284,-36.564 -28.439,-53.491 -18.476,-28.034 -40.049,-53.818 -59.243,-81.335 -27.61,-39.581 -54.631,-79.613 -87.587,-115.128 -1.677,-1.805 -3.696,-3.803 -1.514,-6.199 2.175,-2.387 4.479,-0.491 6.43,0.861 1.374,0.952 2.663,2.118 3.73,3.405 10.183,12.287 21.424,23.566 32.759,34.771 43.154,42.66 88.174,83.089 139.02,116.561 7.7,5.068 15.589,9.879 25.517,13.97 -1.455,-3.335 -2.26,-5.287 -3.147,-7.201 -4.868,-10.5 -11.179,-20.25 -15.508,-31.055 -8.435,-21.05 -17.885,-41.648 -29.027,-61.433 -1.371,-2.438 -4.005,-5.197 -0.265,-7.407 3.467,-2.049 4.983,1.114 6.7,3.513 17.656,24.693 38.763,46.157 61.976,65.582 7.778,6.51 15.952,12.589 26.788,17.087 -3.574,-9.261 -7.543,-16.38 -11.849,-23.37 -8.858,-14.383 -17.624,-28.836 -21.759,-45.488 -0.634,-2.554 -1.688,-5.165 0.88,-7.349 2.791,-2.374 4.895,-0.447 7.038,1.124 7.384,5.413 14.758,10.841 22.136,16.263 2.789,1.808 5.577,3.615 8.434,5.468 5.163,-15.236 10.289,-16.662 23.235,-6.724 3.248,2.493 6.46,5.037 9.666,7.586 2.185,1.737 3.59,2.497 5.378,-0.972 3.999,-7.762 7.612,-8.645 14.909,-3.71 9.425,6.373 17.332,14.575 25.556,22.372 2.047,1.939 4.042,3.932 6.061,5.901 -1.666,-6.403 -4.014,-11.916 -6.451,-17.389 -1.244,-2.793 -0.967,-5.346 1.566,-7.035 2.373,-1.582 4.499,-0.336 6.482,1.394 3.085,2.691 6.234,5.332 9.532,7.754 7.496,5.502 15.578,9.805 25.626,12.522 -3.34,-6.802 -6.309,-12.29 -8.741,-18.008 -1.516,-3.565 -2.621,-7.993 0.671,-10.873 3.717,-3.25 7.241,0.064 10.344,2.187 6.37,4.358 12.601,8.92 19.589,13.897 -0.161,-2.719 -0.362,-4.144 -0.303,-5.559 0.111,-2.655 0.139,-5.384 3.146,-6.747 2.933,-1.332 5.152,0.204 7.276,1.817 2.302,1.749 4.367,3.816 6.707,5.509 5.322,3.848 10.008,8.71 16.502,11.139 1.73,-13.104 5.772,-14.912 16.543,-7.871 1.211,0.792 2.391,1.638 3.63,2.383 3.828,2.301 7.478,5.435 11.475,-0.17 1.369,-1.92 4.367,-1.757 6.831,-1.403 19.065,2.735 36.454,9.093 50.296,23.183 2.818,2.87 5.587,5.847 10.162,8.242 -0.866,-5.828 -1.639,-10.729 -2.311,-15.643 -0.601,-4.392 -0.227,-8.699 1.905,-12.661 1,-1.858 2.744,-2.831 4.867,-2.008 1.98,0.769 1.771,2.384 1.423,4.215 -3.514,18.438 2.228,34.168 14.587,47.693 5.362,5.869 11.261,11.254 17.016,16.755 C 6.227,-3.72 8.913,-2.4 6.435,0.343 4.412,2.581 2.063,1.679 0,0" /></g><g
           transform="translate(686.1689,252.001)"
           id="g24"><path
             id="path26"
             style="fill:#000000;fill-opacity:1;fill-rule:nonzero;stroke:none"
             d="M 0,0 C -8.142,-8.447 -15.83,-17.487 -27.383,-21.926 -28.684,-10.882 -16.875,3.189 -1.784,8.88 0.607,7.767 -4.32,4.258 -0.064,3.427 1.974,3.028 1.042,1.081 0,0 m 57.478,-5.076 c -1.404,3.378 -4.528,1.144 -6.952,0.343 -2.237,-0.743 -4.68,-2.245 -6.641,0.22 -2.131,2.679 -0.247,5.071 1.25,7.2 3.187,4.531 6.603,8.9 9.829,13.404 1.336,1.865 2.126,4.159 0.062,5.857 -2.322,1.91 -4.581,0.849 -6.191,-1.346 C 46.131,16.915 43.543,13.144 40.928,9.392 33.277,-1.583 22.491,-8.169 9.997,-12.89 c 1.421,5.592 3.917,10.423 5.815,15.479 1.338,3.564 5.205,7.919 0.876,11.112 -4.559,3.364 -5.876,-3.478 -9.959,-4.793 -1.392,6.061 -4.315,9.591 -10.789,7.814 -11.982,-3.291 -29.605,-23.768 -30.932,-35.967 -0.411,-3.773 0.052,-7.41 3.503,-9.66 3.323,-2.166 6.407,-0.558 9.445,1.182 9.267,5.31 17.217,12.211 24.845,21.394 -0.307,-5.76 -2.277,-10.833 2.448,-13.726 4.809,-2.944 9.385,-0.188 13.543,2.216 4.579,2.649 8.854,5.818 13.346,8.623 1.423,0.889 2.911,3.013 4.812,0.343 4.494,-6.315 10.159,-3.941 15.589,-1.754 2.452,0.987 6.515,1.761 4.939,5.551" /></g></g></g></g></svg>