<?xml version="1.0" standalone="no"?>
<!DOCTYPE svg PUBLIC "-//W3C//DTD SVG 20010904//EN"
 "http://www.w3.org/TR/2001/REC-SVG-20010904/DTD/svg10.dtd">
<svg version="1.0" xmlns="http://www.w3.org/2000/svg"
 width="180.000000pt" height="180.000000pt" viewBox="0 0 180.000000 180.000000"
 preserveAspectRatio="xMidYMid meet">
<metadata>
Created by potrace 1.14, written by Peter Selinger 2001-2017
</metadata>
<g transform="translate(0.000000,180.000000) scale(0.100000,-0.100000)"
fill="#000000" stroke="none">
<path d="M394 1771 c-104 -30 -175 -70 -245 -140 -38 -38 -77 -89 -92 -121
-54 -112 -57 -143 -57 -542 l0 -368 305 0 305 0 0 -300 0 -300 361 0 c397 0
424 3 549 62 81 39 186 141 223 218 54 112 57 143 57 542 l0 368 -305 0 -305
0 0 300 0 300 -367 -1 c-320 0 -376 -3 -429 -18z m796 -876 l0 -295 -290 0
-290 0 0 295 0 295 290 0 290 0 0 -295z"/>
</g>
</svg>
