<?xml version="1.0" encoding="iso-8859-1"?>
<!-- Generator: Adobe Illustrator 19.0.0, SVG Export Plug-In . SVG Version: 6.00 Build 0)  -->
<svg version="1.1" id="Capa_1" xmlns="http://www.w3.org/2000/svg" xmlns:xlink="http://www.w3.org/1999/xlink" x="0px" y="0px"
	 viewBox="0 0 512 512" style="enable-background:new 0 0 512 512;" xml:space="preserve">
<g>
	<g>
		<g>
			<path d="M192,458.667c0-21.355,9.28-41.771,25.451-56c3.328-2.944,4.501-7.616,2.944-11.776s-5.547-6.912-9.984-6.912H42.667
				C19.136,383.979,0,403.115,0,426.645v42.667c0,23.531,19.136,42.667,42.667,42.667h150.549c3.819,0,7.339-2.048,9.259-5.355
				s1.877-7.381-0.043-10.688C195.52,484.096,192,471.552,192,458.667z M64,469.333c-11.755,0-21.333-9.579-21.333-21.333
				c0-11.755,9.579-21.333,21.333-21.333c11.755,0,21.333,9.579,21.333,21.333C85.333,459.755,75.755,469.333,64,469.333z"/>
			<path d="M69.461,64h373.077c3.883,0,7.445-2.112,9.323-5.483s1.771-7.531-0.256-10.816l-14.037-22.549
				C427.776,9.408,410.837,0,392.277,0H119.701c-18.539,0-35.477,9.408-45.291,25.152L60.395,47.701
				c-2.048,3.285-2.155,7.424-0.256,10.816C62.037,61.909,65.579,64,69.461,64z"/>
			<path d="M437.333,362.667c-1.941,0-3.883,0.107-5.781,0.277C413.781,336.277,383.936,320,352,320
				c-49.664,0-90.645,37.909-95.509,86.315c-24.555,4.757-43.157,26.432-43.157,52.352c0,29.397,23.936,53.333,53.333,53.333
				h170.667C478.507,512,512,478.507,512,437.333S478.507,362.667,437.333,362.667z"/>
			<path d="M469.333,234.667H42.667C19.136,234.667,0,253.803,0,277.333V320c0,23.531,19.136,42.667,42.667,42.667h198.976
				c3.797,0,7.296-2.027,9.216-5.312c21.077-36.203,59.84-58.688,101.141-58.688c33.237,0,65.067,14.421,87.36,39.552
				c1.792,2.027,4.288,3.285,6.997,3.563c12.907,1.216,25.664,5.312,37.867,12.224c3.819,2.155,8.597,1.771,12.011-1.045
				C506.261,344.768,512,332.757,512,320.021v-42.667C512,253.803,492.864,234.667,469.333,234.667z M64,320
				c-11.755,0-21.333-9.579-21.333-21.333c0-11.755,9.579-21.333,21.333-21.333c11.755,0,21.333,9.579,21.333,21.333
				C85.333,310.421,75.755,320,64,320z"/>
			<path d="M469.333,85.333H42.667C19.136,85.333,0,104.469,0,128v42.667c0,23.531,19.136,42.667,42.667,42.667h426.667
				c23.531,0,42.667-19.136,42.667-42.667V128C512,104.469,492.864,85.333,469.333,85.333z M64,170.667
				c-11.755,0-21.333-9.579-21.333-21.333C42.667,137.579,52.245,128,64,128c11.755,0,21.333,9.579,21.333,21.333
				C85.333,161.088,75.755,170.667,64,170.667z M458.667,170.667H288c-5.888,0-10.667-4.779-10.667-10.667
				s4.779-10.667,10.667-10.667h170.667c5.888,0,10.667,4.779,10.667,10.667S464.555,170.667,458.667,170.667z"/>
		</g>
	</g>
</g>
<g>
</g>
<g>
</g>
<g>
</g>
<g>
</g>
<g>
</g>
<g>
</g>
<g>
</g>
<g>
</g>
<g>
</g>
<g>
</g>
<g>
</g>
<g>
</g>
<g>
</g>
<g>
</g>
<g>
</g>
</svg>
