<svg id="Layer_3" height="512" viewBox="0 0 32 32" width="512" xmlns="http://www.w3.org/2000/svg" data-name="Layer 3"><path d="m21.67 9.056-20 7a1 1 0 0 0 -.076 1.858l8.648 3.844 3.844 8.648a1 1 0 0 0 .914.594h.041a1 1 0 0 0 .9-.669l7-20a1 1 0 0 0 -1.271-1.275z"/><path d="m22 1a1 1 0 0 0 -1 1v4a1 1 0 0 0 2 0v-4a1 1 0 0 0 -1-1z"/><path d="m30 9h-4a1 1 0 0 0 0 2h4a1 1 0 0 0 0-2z"/><path d="m25.707 12.293a1 1 0 0 0 -1.414 1.414l2.5 2.5a1 1 0 0 0 1.414-1.414z"/><path d="m18.293 7.707a1 1 0 0 0 1.414-1.414l-2.5-2.5a1 1 0 0 0 -1.414 1.414z"/><path d="m25 8a1 1 0 0 0 .707-.293l2.5-2.5a1 1 0 1 0 -1.414-1.414l-2.5 2.5a1 1 0 0 0 .707 1.707z"/></svg>