<svg xmlns="http://www.w3.org/2000/svg" xmlns:xlink="http://www.w3.org/1999/xlink" viewBox="0 0 306.55 287.47"><defs><style>.cls-1,.cls-3{fill:none;}.cls-2{clip-path:url(#clip-path);}.cls-3{stroke:#4d4d4d;stroke-miterlimit:10;stroke-width:0.4px;}</style><clipPath id="clip-path" transform="translate(28.76 10.73)"><path class="cls-1" d="M188.05,16.54c-.35-.2-.68-.38-1-.54l-.92-.54.55.29.1.05,0,0,1.4.76a.83.83,0,0,1,.19.1l.48.29h0l-.82-.44M183.12,14l-1.33-.66.82.39.31.14,1.48.74L183.12,14m-2.69-1.3-1-.46-.63-.27-2-.88-.5-.23c.56.22,1.14.49,1.38.59l-.26-.11.68.31.22.09L179,12l-.06,0,1.27.58.13.06,1.5.74c-.44-.21-.89-.43-1.36-.64m73.48,88c-.16-.68-.33-1.36-.5-2l.57,1.9v.1a.3.3,0,0,1,0,.14l0-.11m-1.35-4.83-.69-2.45c-.44-1.35-1-2.89-1.58-4.44l-.44-1.35-1.31-3.32a84.45,84.45,0,0,1,3.33,9.11l1,3.34-.3-.89M202.21,25.42c-1.7-1.21-3.42-2.39-5.16-3.52l-.17-.12c1.81,1.18,3.6,2.4,5.35,3.65h0M195.7,21l-.17-.12h0c-.11-.08-.11-.08-.13-.08l0,0c.35.24.66.43,1,.63l.52.36L195.7,21m.66.39h0l0,0h0m-.4-.22c2.12,1.35,4.2,2.75,6.25,4.22-2-1.41-4.31-2.91-6.25-4.22M257.88,123l0,.14h0l0-.13m.22,3v.1a.34.34,0,0,1,0-.1m0-.16h0l0-.47v-.08c0,.24,0,.49.05.7l0-.16m-.08-1.16a1.09,1.09,0,0,1,0-.18c0-.21,0-.42,0-.63,0,.31,0,.63.07.94l0-.13m-.08-1.14,0,.33,0-.33m-1-8-.15-1.34.28,1.88h0c.06.39.09.79.14,1.18v.1c-.08-.61-.17-1.21-.27-1.81m-3-14.78a.35.35,0,0,0,0-.24c.1.52.23,1.06.35,1.62l-.4-1.38M33.79,33.37c-1,.86-1.95,1.73-2.89,2.6,1-.93,1.83-1.71,2.89-2.6m37.77-3.21c.13-.18.26-.35.38-.54s.37-.63.57-.94l-.83-.11-1.33.56-.64,1.35,1.18,0,.67-.29M69.4,28.43l.1-.06.3-.53c-.22.11-.43.26-.66.37a1.89,1.89,0,0,1-.43.12,6.49,6.49,0,0,0-1.16.49c-.18.1-.39.19-.58.28.06.12,0,.29.15.37a1,1,0,0,0,.44,0,5.25,5.25,0,0,0,1.84-1M92.78,9.63,94,9.36V8.75L92.79,8.7l-.92,0-1,.71-.62.57,1.39,0,1.11-.42m100,9.67c-.45-.28-.9-.52-1.35-.78l-.25-.08.83.5c.6.35,1.17.71,1.76,1.07l.12,0c-.18-.14-.39-.25-.57-.38h0c-.36-.25-.36-.25-.57-.38m-6.16-3.58L185.22,15l.75.39-.8-.41-.09-.05.53.28-.17-.08c-1.1-.57-2.24-1.14-2.85-1.45l0,0c-.86-.43-1.69-.82-2.36-1.13l5.85,2.89.54.29,0,0m1.56.84c-.14-.06-.26-.14-.39-.21l-.19-.1-.8-.43,1.42.76,0,0M147.77,2.41c-.28-.07-1-.21-1.12-.21l.18,0h-.1c-1.17-.25-1.67-.33-1.67-.33a8.42,8.42,0,0,1,1.08.25l-.31-.06L145.09,2l-.18-.05-.4-.07a3.25,3.25,0,0,0,.38.08h0l-.22,0h-.15c1.24.24,1.65.35,2,.42a10,10,0,0,0-2.42-.42c.06,0,.92.22,1.63.35h.08a2.66,2.66,0,0,0,.39.07l-.13,0c.19,0,.69.13,1,.2l-.4,0,.79.19c.29.05.57.13.86.17h.29c.38,0,.72.31,1.12.2L149,2.77a3.89,3.89,0,0,0,.56.1c-.5-.18-1-.23-1.54-.39h0l-.27-.07m.1.33-.17,0,.18,0h0m8.62,2.1-.34-.12c-.77-.21-1.54-.38-2.3-.61l-.41,0c-.84-.25-1.7-.46-2.55-.68-.13,0-1.34-.32-1.76-.39l.25.09a4.89,4.89,0,0,1-.64-.12l-.86-.22c-.93-.08-1.81-.41-2.72-.55h0c.31.09.63.16.94.23l.34.09c1.36.34,1.36.34,1.6.42a5,5,0,0,1-1.07-.24l-.33-.09-.36-.09-.33-.08a3.53,3.53,0,0,0-.8-.17c.28.1.57.17.85.26h-.18l-.56-.15c-.25-.07-.51-.15-.77-.21a4.73,4.73,0,0,0,.49.16l-.36,0,0,.06c1.44.41,2.92.68,4.35,1.18a11,11,0,0,0-1.84-.47,25.37,25.37,0,0,0,2.49.69c-.06,0-.06,0-.91-.32.56,0,1,.37,1.59.39h.2a12,12,0,0,0-1.19-.44l-.53-.16.06,0,1.33.38.27,0-.37-.14.31.07c.29.09.59.19.89.26l.27.09c-.05,0-.05,0-.2,0l-.12,0-.28,0,.12.08h-.2c0,.09,0,.09.35.2l.75.25.05,0h.11c.35.08.36.08.44.07s-.06-.07-.4-.23h0a3.07,3.07,0,0,1,1.11.43v0a2.29,2.29,0,0,0-.51-.06,4.62,4.62,0,0,0,1.57.54,14.86,14.86,0,0,1,2.59.79v0s-2.29-1-2.57-1.09l.07,0c-.52-.19-1.09-.38-1.65-.56l.12,0a9.14,9.14,0,0,0-2.09-.67c.15,0,.32,0,.46,0,2.55.74,2.55.74,4.51,1.4h.16a4.39,4.39,0,0,0-.62-.29,9.4,9.4,0,0,1,1.41.44l.2,0a3.09,3.09,0,0,0-.73-.28c.08,0,.22,0,.35,0l-.06,0m100.2,108.91a131.55,131.55,0,0,0-2.81-13.4,5.14,5.14,0,0,0-2.39-1,68.53,68.53,0,0,0-7.75-1.27,12.5,12.5,0,0,1,.13,2.49l0,.2-.06.15h-.08a.81.81,0,0,0-.43.16h-.11l-.08.05-.07.1-.17.16-.18-.21-.15-.24c-.18-.17-.21-.17-.24-.17a2.63,2.63,0,0,1-.86-.36h-.21l0,.25c.53.47.53.47.86.58a.84.84,0,0,1,.28.51l0,.27c.09.19.22.43.31.62a6.21,6.21,0,0,1,.14.62l.06.2,0,.27a17.86,17.86,0,0,0,1.18,3,5.74,5.74,0,0,0,.84,1.59c.13,0,.19,0,.26.06l.24,0c.1-.33,0-.67.07-1l.2.34c2.49,6.1,2.49,6.1,2.61,7l.05.33c0,2.52,1.6,4.55,2.17,6.9.29,1.31-.21,2.69.4,4a15.52,15.52,0,0,1,1.11,3.06l.08.34,1.38,9.07c-.06,1.48-.12,2.82-.21,4.14a5.92,5.92,0,0,0,.43,2,1.68,1.68,0,0,0,.5,0c.28-.59.28-1.26.58-1.84a1,1,0,0,1,.68,0h0l.05.23.26-.73A2.81,2.81,0,0,1,257,140c0-.24.1-.57.14-.81.1-.59.66-2.72.67-2.73l.27.23c0-1.62.07-2.54.07-2.55l.12.11c0-.66,0-1.32,0-2-.06-4.32-.32-8.37-.76-12.38l0,.25c-.09-.67-.16-1.33-.27-2-.1-.87-.2-1.61-.31-2.37,0-.23-.08-.47-.13-.7.09,1,.09,1,.39,3.85l-.14-.19-.05,0-.14-.46-.07-.08c0,.43,0,.86,0,1.29a4.85,4.85,0,0,1-.43-2.24V117c.07-.15.07-.15.09-.15a1.06,1.06,0,0,0,.22.42,1.55,1.55,0,0,0-.09-1l0,0-.13,0c-.18-.25-.2-.59-.53-.74a.37.37,0,0,0-.14-.15c-.11-.74-.21-1.49-.33-2.22-.69-2.76-2-5.34-2.1-8.25.2.06.62.21,1.58,4.07a18.48,18.48,0,0,0,1.41,4.09l.08.09,0,0,0-.22c0-.13,0-.12,0-.11a3.62,3.62,0,0,1,.19.76l0,.09m-2.81-13.4A134,134,0,0,0,229.74,51.8L233,56.11c4.09,5.68,4.09,5.68,10.86,17.79,3.18,6.29,3.18,6.29,8,19.45l2.1,7.15-.09-.15M203.62,38.42l1,.08-.25-.09h-.11l0,0a3.23,3.23,0,0,1-.37-.25l-.24-.29-.09,0h-.25l-.07.08V38l.2.28.08.05.15.11M180.5,15.94,179,15l0,0h0l0,0h0l-.24,0,.18.1,1.25.79.38,0M204.61,38.5a105.31,105.31,0,0,1,13.88,1.73,4.35,4.35,0,0,1,1.74.69l-.66-.67c-10.09-9.46-10.09-9.46-15.71-13.64l-7.5-5.2,0,0-2.6-1.63c.54.34.59.37,1.22.79h0l.52.36.07.07c1,.91,2.48,1.27,3.24,2.5l.06.07c-.91-.58-1.82-1.14-2.7-1.74h.19l-1.13-.74c-.39-.23-.39-.23-.55-.31l-1-.64h-.09a3.43,3.43,0,0,0-.64-.34l-.18,0a5.51,5.51,0,0,0,.68.49,4.28,4.28,0,0,1,.43.19l2.13,1.4a11,11,0,0,0,1.4,1c.21.12.37.22,1.05.66a2.44,2.44,0,0,1,.25.17c.52.45,1.12.82,1.67,1.23l-.45-.2-.51-.35c-.12-.08-.27-.19-.4-.26l-.19.1c.47.45.88.95,1.35,1.4v.11c.89.66,1.85,1.23,2.69,1.94l0,0a1.71,1.71,0,0,1-.69-.21H202a11.06,11.06,0,0,1-2.25-1.29,3.41,3.41,0,0,0,1.58,1.36,4.56,4.56,0,0,0,.54.42.7.7,0,0,0,.24.12,2.69,2.69,0,0,1,1.32.78c0,.12-.2.1-.35.08l.19.19c-1-.18-3-1.83-3.79-2.45a1,1,0,0,0-.47-.15l-1.05-.83c-1.74-1.41-3.83-2.26-5.63-3.58.74.28,3.31,1.55,3.33,1.56a5.65,5.65,0,0,0,.82.15c.43.18.82.44,1.27.58l.17,0,.08,0a2.32,2.32,0,0,1-.06-.46,26.5,26.5,0,0,0-7.26-4.41,6.58,6.58,0,0,0-.84-.42,2,2,0,0,0-.87-.33c-.12.06-.13.06-.15.06-.46-.23-.94-.46-1.39-.71l-.27,0a6.93,6.93,0,0,1,.8.54h-.19a5.92,5.92,0,0,1-1.06-.66l-.24-.17A7.5,7.5,0,0,1,185.1,17l-.28,0,.19.19a12.72,12.72,0,0,1-1.38-.45,3.8,3.8,0,0,1-.54-.29h.22l-.59-.41a9.77,9.77,0,0,0-2.46-1l1,.6a2.93,2.93,0,0,1-.88-.39L180,15l-.42-.27-.71-.07a10.22,10.22,0,0,1,1.25.78l.42.26.24.13-.09,0A8.12,8.12,0,0,0,179.2,15a1.27,1.27,0,0,0-.36-.07l-.83-.5-.21-.06,0,0,.15.16-.2.1c.25.22.55.39.81.61l0,.11a2.89,2.89,0,0,1-.89-.47,1,1,0,0,0-.52-.17l-.12.19a3.15,3.15,0,0,0,1.77.91c.27.15.5.31.75.46h-.25a7.14,7.14,0,0,0-1.12-.31l-.29,0a8.26,8.26,0,0,1,1.41,1c-1-.39-1.93-.94-2.91-1.39,0,.16.19.3.39.42a8,8,0,0,1,1.75,1.33c-.3.08-.31.08-1.22-.59l.15.21-.17.14.44.37c.32.2.69.27,1,.5l.37.29.16.15A13.94,13.94,0,0,1,177,17.22c.07.23.36.44.66.66h-.47c0,.11,0,.11.7.58a1.36,1.36,0,0,1-.43.14l.2.38-.08.05a2.42,2.42,0,0,0,.35.44l-.16,0,.1.2a.82.82,0,0,0,.38.1.71.71,0,0,1,.05-.41h.24l0-.22a1,1,0,0,0,.29-.33,1.48,1.48,0,0,1,1.18.49l-.44,0,.16.15-.22.05A8.52,8.52,0,0,0,180.92,21l-.25,0s1.78,2.93,2.14,3.26l-.25-.21c-.11.51-.11.51-.06.65a1.15,1.15,0,0,0-.33.29c.1.13.25.3.36.42l.22.07a1.68,1.68,0,0,1,.52,0,4.74,4.74,0,0,0,.49.54,2.3,2.3,0,0,0-.12.45l-.22,0c.08.37.05.42-.14.62a4.49,4.49,0,0,0,.36.63l-.17.18-.56-.26a3.38,3.38,0,0,0-.48,0l.34.46.47.4-.06.23-.23.08h-.2c-.19.22-.19.22-.27.62h-.22l0,.22c.26.29.8.9,0,.89A1,1,0,0,0,182,31c.57.56.57.56.63.74l-.15.18c.23.54.75.8,1.07,1.25,0,.17-.09.17-.15.16l.06.22c.15.25.29.44.42.63l.61,0c.63-.13.85.56.87.56l-.12.21c.12.2.25.42.39.62l-.19.13c.26.61.26.61,1.41.75a4.07,4.07,0,0,1,.42.7l-.09.21,4,.21a6.22,6.22,0,0,0-.15-.75l.2-.11.21.08a1,1,0,0,0-.27-.72c.89.12,1.82,1.52,1.83,1.53,2.29.21,4.42.33,6.43.47l0-.21.22,0a6.26,6.26,0,0,0-.57-1.55l-.3-.35c-.4-.43-.48-.53-1.28-.45-.6-.66-1.5-1-2-1.74-.67-.77-1.33-1.53-2-2.28,0-.8-.83-1.18-1-1.9l.24,0c.05-.23.07-.37-.26-.86a.84.84,0,0,1,.41-.11,2.9,2.9,0,0,0-.51-.81l0-.22.23,0c-.15-1.37-1.62-1.4-2.27-2.25l.08-.22a10.77,10.77,0,0,0-.9-1,.77.77,0,0,1,.45,0l.13,0h.06l1.21.78-.08-.22c.31,0,.32,0,1.41.73l1,.89-.43,0c1.46,1.3,1.62,1.43,1.67,1.92a3.47,3.47,0,0,1-.46-.13l-.17.15c1.77,3,1.77,3,3.54,4.71.21.23.3.33.4.42A26.33,26.33,0,0,0,202.66,36h.09a2,2,0,0,0,0-.49c.32-.07.63.17.95.11l-.1-.42a3.71,3.71,0,0,1,1.24,0l0-.23a.55.55,0,0,1,.19,0c.36.23.63.56,1,.76l.72.07.35.3.12.2a3.36,3.36,0,0,1-.67,0c0,.35,0,.35.61,1.55-.6-.05-1-.57-1.51-.75l-.16.19a2.07,2.07,0,0,1-.68-.13l-.14.16,0,.22a2.35,2.35,0,0,1-.44-.17l-.19.13a6.32,6.32,0,0,0,.49.85l.05.12m-13.41-.88-4-.22v0c0,.2,0,.2.08.26s.22.18.31.3l.15.23.77,0,.19.15a3.68,3.68,0,0,0,.62.48l.35-.14c.31.1.55.32.89.26,0,0,.36-.06.26-.34l0-.15c.28,0,.28,0,.36,0l.08-.24c0-.14-.11-.23-.11-.36l0-.27m8.23.51c-2-.16-4.12-.28-6.35-.42.34.45.91.65,1.25,1.1l.11.15,0,.33a4.29,4.29,0,0,0,.94.9c.79.44.79.44,1,.73l.22.31.21.31a4.49,4.49,0,0,0,1.53,1.31,1.05,1.05,0,0,1,.5.48c.16.25.17.54.31.79l.1.16c.16.23.36.43.52.65l1.57.1c-.65-1.12-.65-1.12-.54-1.41,0,0,0,0,.22,0l.23,0c.23,0,.37.31.64.25.08-.15-.1-.31,0-.46s.13,0,.38,0c-.19-.32-.42-.63-.64-.95l.83,0a6.14,6.14,0,0,0-.57-.78l-.4,0c-.38.12-.55-.25-.84-.35l-.17-.53c-.3-.82-1-1.41-1.3-2.24l.09-.08,0-.28.13-.08m54.45,62.22A134,134,0,0,0,229.74,51.8c-2.8-3.31-6.54-7.73-9.51-10.88a4.35,4.35,0,0,0-1.74-.69,105.31,105.31,0,0,0-13.88-1.73l-1-.08.24.09h.08l.31.23a1.16,1.16,0,0,0-.68.32,1.94,1.94,0,0,0,1.63,1,1.1,1.1,0,0,0,0-.76c1.16.16,2.74,2,2.75,2-.21.46-.21.46.21,1.06.08.28,0,.27-.14.26s-.19-.07-1.49-1.15h-.19l-.48-.63-.37,0c1.21,3,1.73,4.19,3.1,5.5l.13.32c-1.68-.41-1.68-.41-1.87-.39.12.8.91,1.09,1.3,1.68L208,48c-.75-.48-1.44-1-2.17-1.52-.17.08-.17.08-.93,1.55-.24,0-.57,0-.81,0-.9,1-1.85-.6-2.16-1.13l-.46,0c0,.12,0,.26-.07.37l-.42,0a4.57,4.57,0,0,0-.63-.08l-.4,0c.11.22.27.52.39.74,0,.25-.19.24-.35.23-.65-.13-.68-.17-1.22-.92l-.27,0-.48,0-.35-.58-.25-.33a.89.89,0,0,1,.86-.27c.53.15,1,.48,1.49.64l.25-.31c-.42-.9-1.37-2.55-1.37-2.56a.92.92,0,0,0-.61-.27c-.23.07-.51.18-.73.27,0,.1.07.25.1.35-.08.27-.12.26-.16.26a1.22,1.22,0,0,1-.68-1.25l-.37-.57c-1.72.22-1.3-2.19-2.65-2.55,0,.07,0,.07.19,1.14-.19.12-.46.26-.66.36a2.5,2.5,0,0,0,.44.6,1.66,1.66,0,0,0,.14.23c0,.11,0,.26,0,.37l-.32.25c.12.43.12.43,2.33,3a2.68,2.68,0,0,1,.18.33l.31.73c.34.46.77.83,1.12,1.26.19.32.31.54.42.76l-.38,0a5.8,5.8,0,0,1-.85.11h-.31a4.94,4.94,0,0,0-1.53-.14c0,.12,0,.27,0,.39a2.07,2.07,0,0,0-.62.48c.12.69.12.69-.22,1l-.34-.25-.34,0h-.25l-.38,0a1,1,0,0,0,.16.62l.7.37c.17.37.36.74.53,1.11-.72,0-.85.19-1.59,1.52h-.31a6.35,6.35,0,0,1-.76,0,11.67,11.67,0,0,0,.7,2.09,3.15,3.15,0,0,0-1.53.19c.11.36.25.71.39,1.07l-1.09,0c-.23-.12-.23-.12-1.09-.24-.36-.2-.39-.32-.45-.44a1.25,1.25,0,0,0-.72-.34,2.36,2.36,0,0,0,.2,1.11l.36.15c.09.26.22.59.3.84l.28.36c.06.16.12.31.17.46a4,4,0,0,1-3-.79c-1.53.58-1.53.58-1.65.78a2.66,2.66,0,0,1,.1.38c.35.27.44.27.55.27a2,2,0,0,0,1.68.78l.44,0c.78.55,1.51,1.16,2.26,1.73a16.42,16.42,0,0,1,.74,2c1.44,1.68,3.86,4.49,2.37,6.08,0,.11,0,.27,0,.38-.74.57-.74.57-1.12.63l-.33,0c-1.05-.47-2.26-.57-3.21-1.32-1.26-.1-2.25-.14-3.25-.17-1.37-.2-1.37-.2-1.61-.35s-.42-.19-.49-.19l-.3.22c0,.11.07.27.09.39a3.63,3.63,0,0,1-1.79.27l-.09.38c1,1.23.64,3.08,1.79,4.28.17.83.34,1.61.48,2.39,0,.11,0,.25,0,.37-1.19,1.2-.57,2.19,0,3.14l.25.31a2.82,2.82,0,0,1,.19.62c0,.13,0,.27.07.41-.29.51-.31.67,0,1.89a2.79,2.79,0,0,0,1.09.17c1-.22,2,.52,3,.33.18.18.18.18,1.5.85.42.5.64,1.15,1.18,1.54l.14-.46-.36-.12a50.17,50.17,0,0,1,8.36-4.14l-.3-1.34c-1.08-1.67-1.08-1.67-.75-3.48,0-.24.09-.55.12-.78l.8,0a2.17,2.17,0,0,0,.34-.7,2,2,0,0,1,.72-.2l.1-.37,1.88-.17a2,2,0,0,0-.11-1.2l-.11-.4a6.77,6.77,0,0,1-.62-2.33c.61-.37.61-.37,1.91-.09h.14a6.77,6.77,0,0,0,1.57.75c.45,0,.58,0,.73,0l.38-.06a4.18,4.18,0,0,1,.17-1.55,2.46,2.46,0,0,1,.62,0c.26,0,.88.08,1.22-1.16,2.11.59,2.57,3,4.25,4a2,2,0,0,1,1,1c2.76,2,7.87,5.57,8.44,8.65-1.15.22-1.15.22-1.28.83a10,10,0,0,1-3.09-.16c.06.14.15.34.2.49,1,.6,1.62,1.76,2.79,2.19l1.61.09c-.14-.51-.29-1-.42-1.54.41-.29.6-.8,1.06-1-.06-.54-.14-1.08-.23-1.62a1.55,1.55,0,0,1,.63-.39,1.42,1.42,0,0,0,0-.71,4.92,4.92,0,0,1-.26-.7c-.48,0-.65,0-.83,0a.79.79,0,0,1-.41-.52c0-.11-.06-.26-.08-.36a1.33,1.33,0,0,1,1-.17,2.75,2.75,0,0,1,1.26,1c.06-.84-.5-1.46-.75-2.19a7.44,7.44,0,0,1-3.22-2.55c-1.07-.07-1.65-1.09-2.62-1.36-.38-1.19-1.54-1.75-2.18-2.71a.79.79,0,0,0-.3-.06c-.77-1.4-.77-1.4-1.67-1.38a6.8,6.8,0,0,1-.46-1l.12-.37c.12-.33.1-.39.08-.45-.66-1.21-.66-1.21-.66-1.34,1.27-.21,6.22,4.84,6.26,4.9a1.65,1.65,0,0,0,1.39.76l.28.46c.87,1.08,2.38,1.35,3.21,2.51,1.27,1.81,1.61,4.07,2.76,6a4.07,4.07,0,0,1,.75.13,6.35,6.35,0,0,1,.78,1.76l-.6,0-.1-.38-.37-.12c0,.66.56,1.33,1.49,2.27.07-.14.17-.33.26-.47,1.13.56,1.07,1.85,1.72,2.71a1.61,1.61,0,0,0,.7.19h.38c.14-1,.14-1,.09-1.11l-.14-.47a1.76,1.76,0,0,1-.22-.74l.3-.22a4.34,4.34,0,0,1,.54.51l.42,0c.16-.53.16-.53-.22-1.61l.38,0,.12-.35c-.6-.88-.64-.89-1.11-1a5.25,5.25,0,0,1,.4,1.22c-.29,0-.94-.17-3.21-3.65-.13-.39-.18-.53-.23-.66s0-.27,0-.38l.31.22c.58.58.58.58.94.66l.38,0h.22c0-.44,0-.44-.45-1a3,3,0,0,0,0-.42c1-.59,1.53.56,2.34.72.51.85.51.85.65,1a2.38,2.38,0,0,1,.41.73l-.27.27c.33,1.13,1.47,1.81,1.69,3a3.59,3.59,0,0,1,.26.76,2.56,2.56,0,0,0,.12.41,7.39,7.39,0,0,0,.65,1.11l.14.22.14.11.14.22.2.22.14.16a1.93,1.93,0,0,1,.24.87v.21l0,.26a7.27,7.27,0,0,0,.43,1.21l.16.21.15.17a1.79,1.79,0,0,0,0-.65l-.06-.53c-.08-.25-.19-.59-.28-.83l-.1-.38c0-.23,0-.23.11-.22l.12.05.16.18.12.2.16.18c.15.19.36.45.51.66l.17.26.14.22.14.11H237a1,1,0,0,1,.55.26l.34.08.06-.1.06-.14-.08-.2,0-.22c-.28-.68-.28-.68-.27-1.08v-.21l.06-.19a1.11,1.11,0,0,1,.68.27,6.42,6.42,0,0,0,.42.6c.16.19.35.44.51.61l.13.22.13.16.1.07.16.12,1.18.13c-.06-.22-.15-.51-.23-.73l-.07-.26a6,6,0,0,1-.25-.82l.23.06.06,0,.13,0c.15.08.15.08.71.74a.92.92,0,0,0,.27.07l.06-.09,0-.19,0-.16.1.07a2.9,2.9,0,0,0,.31.54l.08.2a7.9,7.9,0,0,1,.34,1.36,7.9,7.9,0,0,0,.62,2.3l.08.21a2.23,2.23,0,0,1,.34,1.22l0,.15V95a4.64,4.64,0,0,1,.16.74v.21c-.05,1.23-.05,1.23-.13,1.37l0,.15,0,.2,0,.22c3.42.62,6,1,7.79,1.48a5.14,5.14,0,0,1,2.39,1m4.23,25.74-.2-2.6v0c0-.15,0-.31,0-.46v-.06c-.21-2.39-.49-4.38-.49-4.39l0-.06c.1.85.13,1.05.15,1.44q.66,6,.77,12.16l0,.08v-.89c0-.71-.06-1.42-.05-2.14h0l0,.55s-.05-1.6-.18-3.61m-1-10-.28-1.89c-.8-4.11-1.83-9.61-2.84-13.68l-.09-.15a131.55,131.55,0,0,1,2.81,13.4c.13.73.21,1.47.36,2.19l0,.14h0M173.24,37.39l0-.07-.39.17c-.14.1-.12.29-.26.39l-.22.07,0,0,0,.28c0,.17-.2.3-.2.49a1.22,1.22,0,0,0,.15.4l.35.16.21-.14s0,0,0-.2l0-.18v-.17l.07,0c.23,0,.46,0,.48-.06l-.05-.12-.09-.17.05-.3v-.07c0-.16-.08-.33-.12-.45m17.24,14.07a6.8,6.8,0,0,0-.36-.71c-.64-.38-1-1.06-1.66-1.45l-.22.12c.13.17.13.17,0,.78-.26.14-.26.14-1.47-1.87l-.82,0a11.38,11.38,0,0,0-.52-1.24c-.36-.43-.94-.55-1.33-.94L183.8,46c-.25-.47-.87-.57-1.06-1.09-.13-.31-1.09-1.29-1.63-1.32-.93,0-1.76-.33-1.28-1.07-.08-.23-.08-.23-.08-.31a2.39,2.39,0,0,0,.49,0c-.05-.11-.1-.22-.2-.4-.2-.35.25-.63.1-1s-.43-.83-.66-1.25c-.87,0-1.73-.06-2.61-.17,0-.27,0-.27.11-.38,0-.29-.28-.46-.28-.75a5.41,5.41,0,0,0,.29-.62c-.29-.25-.31-.27-.52-.3h-.7c-.1,0-.25.12-1.14,0l-.07.06a5.16,5.16,0,0,1,.3,1.17c.13.38.38.7.53,1.07-.51,0-.93-.29-1.41-.36-.76-.09.09,1,.12,1.08.26.35.78.16,1.06.49v.22a3.35,3.35,0,0,1,.18.4c0,.31.45.5.32.88-.76.18-.76.18-.35.9.19,0,.38,0,.63,0,.06-.07.12-.16,1,.54l.57,0a1.23,1.23,0,0,1-.15-.63s1.24,1.14,1.13,1.65c-.71,0-.35.42.06.84l1.43.06v-.32c.95.49,1.17,1.72,2.16,2.17.15.68.15.68.29.84.41.46.46.62.28.83l-.87,0c-.28-.07-.52-.29-.84-.29h-.42c0,.06,0,.06-.09.34l0,.35a4,4,0,0,0-.5,0l.06.33c.57.33,1.7,0,1.75.91a1.25,1.25,0,0,0-.33,0c-.19.23-.19.23-.16.52-.1.09-.14.12-.39.1h-.2c.29,1.41.92,1,1.17.84a20.28,20.28,0,0,1,2.37.32c.13,0,.44.49.16.7s-1,0-1.41.26a2,2,0,0,1,0,.35,3.4,3.4,0,0,0-.82.14,2.6,2.6,0,0,1,.3,1,1.24,1.24,0,0,1-.74.5c.51.28.51.28,1.24,0l.27-.25,0-.25a2.89,2.89,0,0,1,.76.28l.9,0c-.28-.76-.26-.8-.19-.94,2.3.42,2.27.08,2.23-.37l.07-.08c.55.06.89.57,1.43.66h.18c.37-.15.76.11,1.13-.06.17-.08.15-.28.13-.54.25-.11.56.07.8-.17-.11-.53-.61-.79-.88-1.22l-.09-.23c-.07-.17-.07-.17,0-.3a2.74,2.74,0,0,1,.5,0s-.08-.38-.17-.69l.56,0m-16.61-5.41h0m4.17.42c-.11-.46-.57-.61-.82-.95s-.16-.47-.35-.65a1,1,0,0,0-.39-.25c-.11-.06-.23,0-.34,0s-.21-.19-.35-.23h-.14a1.74,1.74,0,0,0-.61.21l0,.32-.23.15a7,7,0,0,0-1-.67,1.71,1.71,0,0,0-.67,0c.24.54.34,1.11.61,1.63h-.12l-.07,0-.21.15c-.12,0-.23,0-.35,0l-.12.07c-.11.08-.27.2-.43.1-.33-.21-.33-.21-.6-.15.3.78.57,1.56.86,2.35a4.24,4.24,0,0,0,1,0c.13.34.26.69.38,1-.25,0-.5,0-.74.06-.29.49.23.9.13,1.38-.27.14-.38.21-.11.68a1.72,1.72,0,0,0,.82.55c.28.09.45-.2.71-.21a1.5,1.5,0,0,1,.74.24c.28,0,.53-.39.55-.44s0,0-.07-.39c0-.16.16-.17.21-.29l2.61.09c-.07-.15-.12-.32-.18-.48s-.46-.42-.5-.76c.31-.22.31-.22.27-.44a10.43,10.43,0,0,0-.8-2l-.27-.67c.56,0,.62-.26.57-.5M238.22,202.9c.08-.12.16-.25.23-.38,2.76-4.82,2.71-5.06,2.61-5.7a50.73,50.73,0,0,1-3.21,4.94c-1,.07-.72,1.2-1.34,1.58-.86-.22-.86-.22-3.26,3.22-1.05,1.52-1.38,3.48-2.91,4.69l-.08-.1c-1,1.13-1.87,2.34-2.82,3.49a4.06,4.06,0,0,0-.26.36c-.4.57-.73,1.19-1.15,1.76-.17.22-.33.45-.52.69-.47.66-1,1.28-1.46,2l.08.1c.14,0,.29,0,.43,0-.32.51-.32.51-.32.61l.11.06v.14c2.27-.56,11.74-14.17,11.83-14.31l.47-.74c.14-.26.27-.51.42-.76s.14-.25.22-.37c.31-.43.66-.83.93-1.27m17.9-53.1a1.63,1.63,0,0,0-.37-1.6l-.31.77-.82.23a2.73,2.73,0,0,0-.88.06c-.15-.17-.34-.4-.48-.58,0-2.69,0-2.69-.22-3.29,0-5.76-3.74-10.77-3.31-16.62,0-.31,0-.62,0-1.18,0-.16-2.17-17.38-9.14-26.91-.07,0-.13,0-.56.14-.14.18-.33.43-.48.61l-.19,0c-3.59-1.57-6.55-4.47-10.64-5,.35,1.74.83,3.45,1,5.21l-.73.16-.92,0c-.74-.7-1.18-1.73-2.23-2.1a22.69,22.69,0,0,1-2.74-.3c-.24-.44-.31-1.15-.65-1.53-1.61-1.9-4.24-1.9-6.15-3.27-2.12-1.53-.66-4.54-2.52-6.17,0-.24-.05-.57-.06-.82a2.38,2.38,0,0,0,1-1.06,7.83,7.83,0,0,0-2.13-1.19,16.48,16.48,0,0,1-4.71.6,3.34,3.34,0,0,1-1.17.9c-1.74-1.53-1.74-1.53-5-1-.12.21-.27.51-.39.73a6.87,6.87,0,0,0-3.44.46,4.12,4.12,0,0,1-.36,1.46c-1,.22-2-.06-2.94.47a4.57,4.57,0,0,1-.76-.1l-.82-.17h-.57c-1.82,0-2.22-.32-2.94-.95l-.78-.45c-.68,1.2-.12,2.55-.5,3.78a8.3,8.3,0,0,1-2.36,0c.16,1.15.32,2.33.46,3.5a5.83,5.83,0,0,0-2.78.35c0,1.92-.21,3.84-.1,5.77,0,.51.09,1,.13,1.53a4.49,4.49,0,0,0-2.3.32,3.45,3.45,0,0,1-3.14,3.47c-.74.11-4.06,8.3-4.07,8.38l-.74-.06-.73.15-.72.45c.29,4.5-.29,4.73-2.06,5.4-.09.22-.19.52-.26.74a2.6,2.6,0,0,0,.44,1.67c3.16.59,3.16.59,3.48,1.2-.85,1.71-.85,1.71-.85,7.44,0,.3,0,.61,0,.92,0,.7,0,.7-1.64,2.36.08,1.1.5,2.13.68,3.21,0,.3,0,.6,0,1.65,0,0,3.2,5.55,6.28,7.17-.15,1.32-.53,4.85,4.3,5.19,3.25,6.36,3.45,6.74,6.45,6.34a6.41,6.41,0,0,0,.68-1.51c1-.41,2,.06,3-.19h.47c.67,0,.67,0,2.33.05.62.93.62.93,4.79.93,1.28-2.58,2.36-2.34,4.74-1.82a1.42,1.42,0,0,0,.46,0s2-2.09,3.72-.69c.27,3.52.27,3.52,1.69,4.15l5.44.29c-.15.9-.29,1.8-.46,2.82-.71,1.79-.71,1.79-2.59,8.22a2.13,2.13,0,0,0-1.11.85,2.57,2.57,0,0,0,1.12,1c.49,1.19,0,2.69,1.14,3.68-.39,3.71,1.64,7.49-.31,11.15-.09.27-.19.54-.47,1.45a3,3,0,0,0,.26,1.56l-5.63,9.29c-3.51,2.41-2.78,10.4-2.75,10.46a9.43,9.43,0,0,0-1.33,3.75c-.69,1.2-1.39,2.39-2.21,3.76,0,.07-4.09,10.5-4.65,12.11-.1.11-.18.21-.44.48-1.29.67-1.29.67-1.61,1.65.12,0,.25,0,0,.49l-.53.6.13.78a11.3,11.3,0,0,0,2.19,0,11.5,11.5,0,0,1,1.54-.49,6.44,6.44,0,0,0,2.47-.19c6.26-5.92,14.13-9.8,20.36-15.77l14.28-17.5c.21-.39.4-.78.92-1.74a14.65,14.65,0,0,0,.59-1.42c.77-1.55,1.53-3.11,2.25-4.86.32-2.86,2-5.26,2.6-8.05.05-.14.1-.28.22-.58,2.33-5.38,6.3-9.81,8.6-15.19,4.64-10.81,4.64-10.81,5.6-17.88M133.53,181.46s-.18-4.41-2.34-5.35l-2.05,0c-3.25-1-3.25-1-3.54-2.9-2-1.31-2-1.31-3.5-.89l-2.86,0c-2.78-1.12-2.78-1.12-3.59-.79,0,.23,0,.53,0,.76-.59.35-.91.54-2.31-.18,0-.19,0-.44,0-.63.33-.2.74-.47,1.06-.68a11.53,11.53,0,0,0-5.07-2.38,2.46,2.46,0,0,1-1-.26,3,3,0,0,0-2.52-.4c0,.68,0,1.36.07,2H104a11.46,11.46,0,0,1,0-1.18c.23-.28.54-.67.77-1l.53-.4c-.1-.18-.24-.41-.35-.59,0,0-1.19-.36-2.45-.86h-.48a5,5,0,0,0-1,.12c.1,1.45.13,2.12-1.7,1.84a8.08,8.08,0,0,1,0-1.09l0-.65a3,3,0,0,0,1.85-.36c.5-2.47.06-3.47-.1-3.85-.38,0-.89,0-1.27,0a18,18,0,0,0-.3-2.74,23.46,23.46,0,0,0-1-2.25c-2.26-.54-2.47-1.16-2.67-1.76a32.87,32.87,0,0,1-3.5-1.42c-1.11-.54-2.18.18-3.28.12h-.77c-5.28-1-5.27-3.15-5.26-4.06a31,31,0,0,1-2.76-1.53c0-.15,0-.3-.59-.52-1-.68-1-.78-1-2.08a3.86,3.86,0,0,0-.76.08c-.63.19-1.22.47-1.86.61-.52-.48-.52-.48-.63-1.81l.65-.19c0-.18.08-.42.1-.6a4.3,4.3,0,0,0-1.74-.68l-.92.8c-.08,0-.15,0-.54-.17a4.34,4.34,0,0,0-1.2-.25c-.56.65-.67,1.55-1.2,2.22H70c-.94-1.54-1-1.55-2.42-1.83a17.33,17.33,0,0,1-2.31-.08,8.74,8.74,0,0,0-1.24-.34,1.55,1.55,0,0,0-.57-1.35c-1-.29-1.76-1-2.76-1.25l-.52.36c0,.09,0,.09-2.36,2.59a20.49,20.49,0,0,1,.54,3.28l-.46.42c-.65-1.09-2.55-4.84.55-7.4l-.19-.47c-.31,0-.58,0-1.07.07-1.15.38-1.14.5-1,1.93l-2.18,0c-2.59,1.8-2.59,1.8-4,1.81,0,.87.09,1.75,0,2.74-.48.52-.48.52-1.69.9,0,1.84-2.6,2.88-1.6,5l.6.1c.11,1.84,2.4,3.85.4,5.5-.23,3.36-.23,3.36-1.37,3.56.1.46.25,1.08.38,1.54-.29.22-.66.54-.93.78,0,.28,0,.64,0,.91-1.26.46-1.3,1-1.06,2.62a3.62,3.62,0,0,0-1.39.22c.37,1.26.27,2.59.71,3.82a10,10,0,0,0,1.81.06c.05.28.11.56.15.9-.09.17-.2.39-.28.56a2.55,2.55,0,0,0-1.05.62c.21,1.29-.76,2.67.23,3.92a5.49,5.49,0,0,0,.13.55c.79,3.75,5.31,4.57,6.36,8.12.07.31.15.62.27,1,.94,1.23,1.2,2.86,2.38,3.94,2.29,2.09,2.21,7.16,6.55,6.59,4-.53,4.27,5,8,4.95.38,1.31.76,2.62,1.19,4a4.16,4.16,0,0,0,.32,1.21l0,.18c0,.13.08.25.28.71.09.16.2.38.28.54a2,2,0,0,1,0,.66,4.44,4.44,0,0,0,.33,1.25l0,.11a2.56,2.56,0,0,0,.37.72l.24.6.06.2a2.33,2.33,0,0,1,.08.92,4.72,4.72,0,0,0,.64,1.11c0,.12.08.24.13.36a3.75,3.75,0,0,1,.12.39c.19,1.24-.11,2.53.38,3.74s.4,1.12.88,5c0,.07.08.14.31.53,2.55,4.19,3.41,5.61,2.83,7.62a5.44,5.44,0,0,0,.52.87c.07.17.18.4.26.57.35.45.35.45.26,2.73,1.52,1.47,1.74,3.75,3.29,5.18,1.09.94.79,2.79,2.28,3.46l.65,0-1.5-2.32.83,0c.17.26.34.52.52.82,0,.18-.05.43-.08.62.32.45.66.9,1,1.4A20.43,20.43,0,0,0,86.66,248c-.36-.2-.81-.49-1.15-.71l-.18-.24-.44-.49s.06.08-.19.13a3.19,3.19,0,0,0,.76.76,5.82,5.82,0,0,1,1.81,1.61c-.58-.19-1.06-.6-1.64-.8a1.37,1.37,0,0,1,.42.74c0,.19.07.43.08.61,1.23.76,2.72,1.06,3.69,2.22a2.3,2.3,0,0,0-1,.58l.53.45c.29.22.69.51,1,.71a5.45,5.45,0,0,1,.39.58c.73.4,1.34,1,2.05,1.39l-.09.2.45.19a1.59,1.59,0,0,1,.59.14,1.87,1.87,0,0,0,1,.67l.16.14,4.58,2.44a2.36,2.36,0,0,0,.35.27,14.92,14.92,0,0,0,1.82.47,2.64,2.64,0,0,1,.64.16,11,11,0,0,0,1.28-.06l.29-.36a3.45,3.45,0,0,0-1.79-.51c-.13-.13-.26-.26-.9-.42,0,0-.91-.66-2-1.54a4.55,4.55,0,0,0-.48-.42c-.45-.45-1-.8-1.41-1.24a2.7,2.7,0,0,0-.45-.4l-.58-.65c-.11-.15-.25-.34-.38-.49a1.4,1.4,0,0,0,.77-.14,6.09,6.09,0,0,1-.74-1l.49-.37c-.14-.39-.35-.92-.49-1.32.11-.14.23-.36.33-.51-.1-.15-.22-.3-.76-.49l-.61-.13c-1.94-1.31-1.94-1.31-2.18-1.61-.05-.07-.1-.15-.19-.65.12-.14.28-.34.39-.49l1.26,0a5.56,5.56,0,0,1-.79-1.75,7.25,7.25,0,0,1-.27-1.79l.65.06c0-.18.06-.42.09-.61s-.09-.17-.51-.52H93.2l-.08,0-.55.31c-.4-.27-.4-.27-1.2-1.41-.15-.27-.28-.55-.43-.82h.5a9.9,9.9,0,0,1,1.23.59l1.5,0c-.09-.15-.21-.37-.31-.53s-.08-.19-.25-.65c.07-.7.07-.7-.66-1.66-.1-.22-.18-.43-.28-.66a12.09,12.09,0,0,0,1.46-.07l.92,0c.16-.08.41-.17.59-.25.43,0,.87,0,1.47,0l.59.1c0-1.09.85-1.81,1.23-2.74l.13-.57q-.15-.45-.27-.9a2.94,2.94,0,0,1-.6-.07c0-.2-.12-.4-.25-.86-.68-.85-1.87-1.1-2.46-2.07h1.27c4.19,1,5.17,1.21,5.5-.32,1.08-5.18,2.06-5.74,2.43-5.94a2.26,2.26,0,0,1,.12,1.18l.62.13a17.69,17.69,0,0,0,1.4-2.84c.12-1.12,1.63-1.14,1.8-2.23.23-1.58-1.51-2.82-.79-4.49a30.9,30.9,0,0,1,3.49-3.6c.59,0,1.18,0,2,0a9.81,9.81,0,0,0,1.37-1.29,44.76,44.76,0,0,0,4.48-.12,2.65,2.65,0,0,1,.43-1.11,4.56,4.56,0,0,0,1.66-2.42,9.12,9.12,0,0,0,1.08-.71,4.76,4.76,0,0,1,.72-2.64c.41-.25.41-.25,1-3.48a2.27,2.27,0,0,1,.24-.89,5.66,5.66,0,0,0,.69-2.47,6,6,0,0,0-.06-1c0-.18-.07-.42-.11-.6a6.26,6.26,0,0,0-.07-1.25,4.89,4.89,0,0,1,.51-2.5c.4-.11.4-.11,2.85-3.26a1.94,1.94,0,0,0,1.65-.89l2.92-4.05c.78-1.46.78-1.46.83-2.26m-64-55.31.1-.06c-.22-.23-.66-.09-.81-.45s.07-.89,0-1.33a8.75,8.75,0,0,1-2.48.44h-.82c-.43-.09-.77-.41-1.21-.44h-.41c-.36.13-.47.58-.85.7l-1.39,0c-.58,0-.76-.67-1.26-.79s-1-.85-1.66-.87L56,123.28a6.26,6.26,0,0,0-1.51.26c0,.93,0,1.86,0,2.78.75,1,1.26,1.53,1.52,1.6h.84c.7,0,.7,0,1.27-.75.27-.36,1.27-.48,1.27-.48.47,0,.89.24,1.34.24s.89-.25,1.35-.24a11.35,11.35,0,0,0,3.09-.41.78.78,0,0,1,.82,0,12,12,0,0,0,2,.33l.83,0c.3,0,.49-.28.73-.42M48.46,127.5l.08-.14c-.09-.29.12-.65-.16-.91s-.44-.08-.65-.17-.4-.34-.65-.46l-.2,0-2.14.06c.14.26.22.56.37.83l.19.24c.14.14.19.12.58,0s1,.46,1,.46.12.25.12.57a.62.62,0,0,0,.06.38c.23,0,.48.13.73,0s.15-.09.66-.83m-2.12-5.29,5.71-.13c-.34-.65-1.7-2.62-2.87-2.81l-.81,0c-.81,0-1.6.39-2.41,0-.56-.26-.68-.9-1.1-1.29a18.47,18.47,0,0,0-2.06-1.32c-.77-.52-.77-.52-.88-.88s-.15-.52-.62-.54-1,.1-1.59.13c-.34,0-.34,0-.73.37s-.63,0-.94-.07l-1.5,0c-1.29,0-1.29,0-1.48.14-1.53,1.54.65,4.1,2.46,2.89.46-.3.7-.85,1.23-1.06a4.17,4.17,0,0,1,1.28,0s1.45.56,1.57,1.48c0,.21.06.39.23.49,1.23.68,1.41.64,1.81.57s.62.11.83.53a2.45,2.45,0,0,0,1.87,1.37M157.2,24.73l-.56-1a2.43,2.43,0,0,0-.52-.49A2.52,2.52,0,0,0,155,23a6.16,6.16,0,0,0-.78-1.55c-.36,0-.73,0-1.11,0s-.41,0-1.31.9c-.53-.06-1-.27-1.57-.28-.92,0-1.17.2-1.33.36a.67.67,0,0,1-.49.19l-1,0c-.07-.17-.13-.33-.21-.49s-.14-.32-.2-.47-.39-.3-.57-.48l-.44.11.21.46a5,5,0,0,0-1.86-.16c-.16,0-1.4.26-.39,1.31.5,0,.94-.39,1.45-.2l1.05.61c.18.18.14.42.24.62a6,6,0,0,0-2.58-.06l.46.74c.29-.1.29-.1.41-.1l1,0,.18.13c.12.33.24.66.35,1l.45.53h.53c.51,0,1-.11,1.54-.09h.56c.73-.05,1.13.63,1.75.81,0,0,2,.45,1.95-.57,0-.41,0-.41.3-.73s.53.15.67-.13c.26-.51.26-.51.52-.61s.38-.15,2.3-.08M99.22,58l.16-.19c0-.21-.09-.5-.13-.71-.84,0-.84,0-1.11-.18a5.29,5.29,0,0,1-1.25-1c-.13-.22-.2-.35-.4-.41A12.19,12.19,0,0,0,95,55.32a6.33,6.33,0,0,1-.68-.36c.67-1.29.67-1.29,1.46-1.61.13-.06.68-.73.39-1.19a1.23,1.23,0,0,1-.17-.32,2.44,2.44,0,0,1-.53-.05,2.67,2.67,0,0,0-1,.39c-.29.29-.15.69-.29,1-.32.76-.32.76-.7,1.07,0,0-3.85,3.46-4,3.64a2.57,2.57,0,0,0-.48,1,6,6,0,0,0,0,.85l5.49,0c.47,0,.67.11,1.11.7A4,4,0,0,0,97.42,62a1,1,0,0,1,.47-.26c.19-.06.62-.22.6-1.85,0-1,0-1,.73-1.87M84.59,55.78l0-.06c-.2-.08-.34-.24-.55-.32a.86.86,0,0,0-.38,0c-.38,0-.42,0-.58,0a1.23,1.23,0,0,1-.72-.65c-.13-.3-.25-.36-.44-.36a1.75,1.75,0,0,1-.51,0l-.8.36a2.44,2.44,0,0,1,.61.34c.16.18.15.44.28.63l.13.14c.16.15.34.29.5.45s.23.33.37.47a.73.73,0,0,0,.36.21c.19.06.52.14,1.68-1.17M132.15.7A11.9,11.9,0,0,0,131,.57a1.58,1.58,0,0,0-.38,0h0l0,0a2.09,2.09,0,0,1,.37.17,1.69,1.69,0,0,1-.59-.08l-.14.14h-.05s0,0-.12.15l.11.17L129.7.76a2.32,2.32,0,0,1-.38-.21,3.2,3.2,0,0,0-.57-.13h-.15l-.19,0,.19.14a2.48,2.48,0,0,0-.39,0L128.05.5h.07l.19,0a2,2,0,0,0-.68,0h-.48a1.21,1.21,0,0,0-.38.06h0l-.09,0h-.07l-.2,0,0-.19a5.18,5.18,0,0,0,.88,0,3.54,3.54,0,0,0,.77,0l.19,0L128,.18h-.28l-.8-.08h-.27l-.22,0h-.82l0,0,.08,0h.9l-.39,0h-1.35l-.21.06-.2,0-.27,0h-.83l-.19,0h0l.05,0h0L123,.18h0v0h-.35l-.07,0h0l.08.05h.21l0,0V.38l0,0-.06.06-.09,0h0l-.11,0,0,0h0l-.06,0-.17,0h0v0h0l0,0v0h-.19a2.06,2.06,0,0,0-.43,0l-.07.07h0l0,0h0v0l-.05.06h0l-.08.07,0,0h-.14l0,0,0,0h0v0h0V.35h0v0h-.06l0,0h-.16l-.21.08-.18.07-.06,0-.06,0h0l-.31.11-.07,0-.15,0,.18-.07.24-.05.08,0,.06,0h.07l.05,0,0,0h0l.14-.05h0l0,0-.13,0-.19,0-.08,0h-.26l-.15,0h-.28l-.15,0h-.3l-.1,0h0l0,0,0,0h-.06l0,0-.07,0,0,0h.1l0,0h0l0,0-.09,0h-.14v0h0l0,0,0,0v0h0l0,0h-.06v0l0,0h0l0,0,.06,0h-.31l-.09,0h0l-.23,0a2.11,2.11,0,0,0-.36.09l0,0-.06,0-.07,0L117,.79h-.23v0l0,0h-.34l-.31.06-.74.13-.38.08L115,1h-.3l-.12,0-.11,0-.11,0h0l-.14,0h-.2l-.43.11-.1,0-.38.11.16,0,0,0,0,0h.07l.38,0h.23l-.39.15-.06,0-.08,0-.07,0-.53.23-.41.13-.13,0-.28,0h0a1,1,0,0,0-.44.06l-.22,0a2.6,2.6,0,0,1-.38,0,1.3,1.3,0,0,0-.49,0l-.16.06-.21.08-.2.05-.09,0h-.32l-.19,0a6.32,6.32,0,0,1-.75.06l-.11,0h-.1l-.1,0-.13,0-.11,0-.11,0-.13.05-.11,0h-.27c-.7.21-.73.27-.84.49l.18.07-.16.11h.54l0,.1h0l0,.1h.38l.32-.07.12,0a3.5,3.5,0,0,0,.47,0l.19,0h.21l-.43.24-.18.08-.11,0-.49.15h-.12l0,0h-.08v0H107l-.17,0-.35.07h-.09l-.27-.07H106l-.34.15h-.35a.65.65,0,0,0-.46.27l0,0a.72.72,0,0,1,.42.29l0,0h-.2l-.14.06L104.8,5l0,.06.09.06,0,.06,0,.06-.07.06v0l0,0,0,0,.09.09,0,0v.06l.21.06h.12l.13,0,.07-.06.26-.25h.15a1.76,1.76,0,0,1,.39.06l0,0,0,0,0,0h.09l.17-.13h.28l0,0a1.08,1.08,0,0,0,.37,0l.12-.06.11,0,.12,0,.09,0h.06l.1,0,.12-.06.28-.09.14.13,0,0h.48l.14.13v.06l0,0h.54l.06,0,.16.12,0,0h.35v.19l.16.07.18,0,0,.17a3.18,3.18,0,0,0-.45.6v.07l0,.07,0,0h.12l0,0,.09,0,0,.06,0,.21,0,.07,0,.21,0,.06,0,.11v.07l0,.36,0,.32,0,.06.09.22-.08.11c-.19.16-.21.18-.17.53l-.27.43c-.32.22-.32.22-.42.41h.46a.77.77,0,0,1-.32.34,1.07,1.07,0,0,0-.37.11,5.63,5.63,0,0,1-.38.68h-.38c-.06.12-.13.24-.2.36v.2a1.26,1.26,0,0,0,.38.1,1.69,1.69,0,0,1,.38.05l.2,0a8.11,8.11,0,0,0,1.07-.07c.1-.19.1-.19,1.07-.33-.09.41-.21.92.56.95h.13a4.72,4.72,0,0,1,.59.5v.19l-.13.19h-.5l-.2,0h-.49c-.43,0-.69,0-.88-.32-1.53-.16-1.69,0-1.7.42l.29.31c-.38.42-1.13.27-1.4.89l.11.17c.89.09.89.09,1.23.61l.22,0A1.87,1.87,0,0,1,111,15c.08-.23.16-.47.22-.69-.28,0-.57,0-.85-.06l0-.19a2.45,2.45,0,0,1-.39,0l.19-.2h.58c.29.23.29.23.91.32h.63a.88.88,0,0,1,.36.14l0,.21-.06.13c-.26.11-.41.37-.62.53a.35.35,0,0,0,0,.21c.26.31.26.31.3.51a6.4,6.4,0,0,0-.2.62,4.48,4.48,0,0,1-.81-.06c-.31.1-.54.39-.9.37h0a1.06,1.06,0,0,1-.35-.05.94.94,0,0,0-.41,0,2.73,2.73,0,0,1-.55,1,3.57,3.57,0,0,1-.38-.14c-1.29.66-1.29.66-1.33.79a1.43,1.43,0,0,0,0,.31,1.34,1.34,0,0,0,.13.4c.83.19.89.42.88.48,0,.62-1,.41-.94,1l.1.21s.12.38.22.84c.5.17.88-.26,1.36-.24a1.5,1.5,0,0,1,.39.05l.09.17c0,.12-.13.27-.18.38a1.87,1.87,0,0,0-.36,0l-.19.07c-.66,1.66-.66,1.66-.5,1.92.77,0,1.26-.83,2.07-.69a6.18,6.18,0,0,1-.35,1.1c-.3.28-.75.27-1.06.51s1.38,3.91,1.4,3.94c1.2,1.79,2.21,2.67,3,2.6a2.92,2.92,0,0,0,.44,0,1.35,1.35,0,0,1,.68-.17h.2c.21.05.41.07.61.12,0,1.18,1.31,1,1.85,1.65.29.33,2.54.35,2.49-.68,0-.1,0-.19,0-.45.11-1.29,2.27-2.56.9-3.75,0,0-.87-.82.49-.91a2.92,2.92,0,0,0,.44,0,2,2,0,0,1,.64,0A2.91,2.91,0,0,1,123.3,26a4.47,4.47,0,0,1,.17-1.39l.13-.14a1.24,1.24,0,0,0-.52-1.11l0-.2c.43-.26,1-.06,1.39-.38s.06-.54.14-.79h1.63a2.14,2.14,0,0,1,0-.87,2.89,2.89,0,0,1,.91.1c0,.65,0,.67.12.89.84-.09,1.43-.7,2.18-1h.31a1.74,1.74,0,0,0,1-.19l0-.21c.24-.47.74-.71,1-1.13.3-.11.3-.11.57-.72a2.35,2.35,0,0,0,.44-.17.58.58,0,0,1,0-.33c.52-.44.52-.44.38-1v0h.08l.21,0,.07,0,.06,0h.06l.14.09.07,0,.14.13a1.14,1.14,0,0,0,.64.09c.59,0,1.08.38,1.67.37.76,0,.8-1.08,1.58-1.05.53,0,1-.42,1.53-.33.79.12.48-1.08,1.12-1.27l1.17,0c.23-.12.23-.12.54-.61l-.09-.18-.25-.1-.27.3-.07.25h-.42c-.43-.09-.66-.57-1.14-.57h-.33c-1.37-.06-1.61-.49-1.73-.7l-.17-.39c1.55-.25,1.55-.25,1.83-.51.67.25.77,1.21,1.59,1.29l.14-.14.06-.35c.37-.17.8.06,1.18-.15-.5-.7-1.32-1-2-1.51s-1.37-.59-1.69-1.36l.2-.07c.85.49.85.49.91.49a1.69,1.69,0,0,0,.35,0l.2,0a5.28,5.28,0,0,0-.38-.67,1.56,1.56,0,0,1-.17-.34.84.84,0,0,0-1.33-.27,1.13,1.13,0,0,1-.62-.15l.3-.27c-.07-.07-.07-.07-.72-.33l0-.11.73,0,.29.43a4.26,4.26,0,0,0,.84,0l.11-.18h.2a1.57,1.57,0,0,1,.34,0c.4.16.4.16.64.06.16-1-1.4-.6-2-1l0-.18c.82.17,1.06.07,1.17,0l.11-.21.19.07h.26a.9.9,0,0,0,.37-.07c-.59-.56-1.52-.64-2-1.34.06-.06.06-.06.49-.07-.13-.13-.26-.26-.54-.51a2.11,2.11,0,0,1-.59-.34l-.14-.12c-.55-.28-1.24-.17-1.72-.61l-.08-.08c.12-.13.12-.13.52-.2h.3a1.18,1.18,0,0,1,.74.25s0,0,.13.17.16.26.8.66l.1-.06-1.14-1-.05-.18-.1-.08c-.33-.17-.33-.17-1-.19l-.26,0h-.2a1.19,1.19,0,0,1-.32-.36l.18.06h.14l.2-.07A2.44,2.44,0,0,0,135,3.54l.08.19a1.27,1.27,0,0,1-.63-.49l0-.16a7.76,7.76,0,0,1-.62-.48h.3l-.19-.12V2.3s.06,0,0-.11c-.49-.24-.5-.29-.57-.52l.19,0-.18-.09,0-.19-.22-.07-.67,0-.17-.15.39.07.16,0-.33-.2.13-.09L132.15.7m-13-.46.38-.07-.34,0-.08,0,.36,0,.26,0-.33,0h-.18l-.51,0,.45-.05h-.28l.32,0H119l-.58,0,.35,0-.3,0-.53,0h.19l-.72,0-.36,0H117l.24,0-1.48.08-.77.07h.21a8.54,8.54,0,0,1-1.32.18l.47-.08h-.14L115,.29h-.29l.24,0-.4,0-1.3.13h-.13l.23,0h-.08l-1.13.11H112l-.69.09h-.11l-.76.1,0,0-.09,0-1,.15a3.08,3.08,0,0,1-.84.18h.13l-.1.09,1-.18.61-.09.4,0-.84.12-1,.18-.87.18a8,8,0,0,0,1.86-.23l.14,0,.37,0,.9-.15.74-.11c.45-.07.91-.12,1.36-.18h.11L113,.7,111.36,1l.39,0,0,0h.06l-.59.11h-.33l-.35,0-.44.06-1,.13h-.2l-.31,0-.71.16.07,0-.27.09-.6.18.22.06-.34,0h-.21a4,4,0,0,0,.93-.43h-.13l-.25,0-.85.18-.5.16-.62.21-.7.3-.16.13.31.06c-.32.09-.68.11-1,.22l-.82.27.67-.37-.12,0-.56.06-.51.07-.81.17-.83.25-.57.2.09.06.47,0,.55-.06-1,.24-.67.27c.3.06.3.06,2.11-.41l-1,.34L99.61,4l-.5.05,0-.23.17-.23-.48,0a9.48,9.48,0,0,1-2.52.82l-1,.32-.79.44,0,.19a10,10,0,0,0,1-.25s0,0,1.42-.06l0,.12a3,3,0,0,0,.72-.11c.14,0,.28,0,.32,0-.56.25-.56.25-.62.33A1.56,1.56,0,0,0,98,5.39h.34a15.65,15.65,0,0,0,2.39-.69l.56-.31-.87.21.81-.42.61-.09,1-.38.64-.32h.31c.77,0,1.39-.45,2.11-.63h.46a1.14,1.14,0,0,0,.77-.35l0-.11H107l-.71.15-.6.13.56-.21c.55-.11,1.1-.24,1.65-.36h.31l-.34.15c.29.06.29.06,1.58-.21l.38-.24.45,0-.36.16.38,0,.72-.12.59-.24,0-.08h.69l.61-.14.57-.08c.82-.15,1.63-.27,2.44-.43h.33l.43-.07.26-.1a7.52,7.52,0,0,1-1.26.08l.51-.09.45-.05h.68l1-.1a8.06,8.06,0,0,0,.94-.12M104,2.3l1.1-.3c.09-.12.09-.12.2-.17l.67-.17.6-.14.33-.1-.66.11s1.11-.32,2.06-.5a11.28,11.28,0,0,0,1.41-.26l-1,.12h.13A6.12,6.12,0,0,1,108,1h-.22c-.56.07-1.1.19-1.64.29H106l-.29,0-1.09.21-.65.11-1.05.22H103l-1.1.26-.45.14.38,0,.57-.08.37,0a6.62,6.62,0,0,1-1.36.32h-.28l-.69.14-.47.18-1,.31,0,.13.66-.09v.1l.75-.2h.17a5.67,5.67,0,0,0,.79-.23l.89-.25-.17.12,1-.21v0a7.43,7.43,0,0,0,.9-.2M95.76,4.4a6.12,6.12,0,0,0,1.78-.61l-.79.13-1.31.39.32.09m-.19,2.4h0l.9-.55L96.16,6l-.41-.17-1.08.25-1.36.26-.7.08-.41-.14-.7.06.64-.47,1.08-.48L94.11,5l-.57,0A9.61,9.61,0,0,0,90.3,6.37l-1.47.56-.61.41-.39.42.91-.11,1-.29c-.14.14-.27.3-.4.44v0a2.16,2.16,0,0,0,.79,0l1,0,.74-.17.68-.26-.2.28c1.79-.15,1.79-.15,2.29-.46a2.42,2.42,0,0,1,1-.37M83.83,8.08l.35,0,.59-.32-.94.34m3.09-.52L88.19,7l.27-.27.7-.36-.48.08-1.13.3-.91.35-.7.45.39,0-.12.21.71-.2m4.36-1.94,1.11-.35L93.1,5l.58-.32-.41,0,.19-.13-.61.1-1.13.38-.44.29-.36.26h.36M96,4l.81-.26-.43,0H96L95,4l-.67.23.55-.06.51-.1L96,4M97,3.48l.74-.2L98.47,3l-.23,0L99,2.72l-.76.17-.82.25L96,3.58l.06.06.48-.07L97,3.48Zm4.45-1.42.6-.1,1.18-.25.22-.07h-.16l-1.09.21h.19l-.94.2M94.31,3.92l.87-.23,1-.31.52-.18,1-.28L98,2.8l.45-.14-.35,0,.58-.17.55-.16-.34.06L98,2.6l-.86.2.25,0-.32.1L96,3.15l-.24,0-.93.27.26,0-.53.18.63-.15.06,0,.18,0-1,.37,0,.08m-1.41.22L93.47,4l.59-.22-.39,0-.94.29ZM89.45,5.82a4.46,4.46,0,0,0,1.11-.57,8,8,0,0,0-.82.23l.65-.35-.31,0a9.88,9.88,0,0,1-2.23.95l0,0v0l1.25-.58-.3,0-1,.37-1,.42.59-.34,1.61-.62.35-.24-1.55.53c-.65.25-1.28.58-1.92.87l-.16.21.6-.15.38-.08-.6.3-1.37.63.66-.2.46-.05.44-.09,1-.38c.45-.19.88-.37,1.34-.54s.64-.2,1-.31M84,7.08c.4-.16.39-.23.39-.24h0c-.24,0-.43.18-.67.21l-.89.38A3.85,3.85,0,0,0,84,7.08m6-2.29.64-.15L92,4.18,92.61,4A24.14,24.14,0,0,0,90,4.79M83.71,19.23l1.16-.79.34-.81a11.66,11.66,0,0,0-1.61.12,16,16,0,0,0-1.56.92l-.23.71.78.09,1.12-.24m.74-9.85C86,8.73,86,8.73,86,8.54h0l-.52,0,0-.21c-.85.08-.85.08-1,.17a8.63,8.63,0,0,1-1.92.82c-.67.34-1.32.68-2,1l-1.82,1.12.81-.16,1.08-.41,1.12-.6.31.14,1-.39,1.47-.68m-8,2.82,1.5-.74.78-.55.59-.49.25-.32a5.71,5.71,0,0,0,2.51-1.22l.47-.3-.49.06-1,.44H81l.08-.18-.71.18-.84.43-.67.48c-1.71.79-1.71.79-1.88.78a5.42,5.42,0,0,1,.56-.44l-.38.05-1,.48-.37.37-.28.28.09.18c-1.31.91-1.31.91-1.22,1.16a13.25,13.25,0,0,0,1.35-.57l.78-.09m.07-1.95L78,9.62l.41-.27-.23-.15a7.93,7.93,0,0,0-1,.37l-.6.43s-.2.13-1,.6l.94-.35m-.07-.49,1-.41-.34.06-.78.29.13.06Zm17.26-6.3a11.41,11.41,0,0,0,1.35-.38l-.32,0-.58.11-1.34.31.2,0,.28,0,.36,0h.05M91.5,4l1-.25h-.16l-.32,0L91.43,4l-1,.23-1.65.5-.06,0,.54-.13.39,0,.84-.23.74-.23.22,0M90,4.25h.08l1.26-.34.44-.14-.22,0-1,.27L90,4.25Zm-6.8,2.87,2-.74.58-.25h-.2l-.87.3L85,6.3l.92-.41.94-.32,1-.36-.23,0-.77.22-.44.11-.75.25c-.56.24-.56.24-2,.75l0,.06a3.15,3.15,0,0,1-1,.31l-.34,0,.55-.26,1.32-.52L84.56,6l-.2,0,.48-.21.07-.05L84.08,6l-1.52.48-1.1.35-1.23.41-1.16.43h.22l-.11.11.44-.1.7-.19.05.09.27,0a6.32,6.32,0,0,1-.89.25l-.32,0-.77.25-.81.33-.3.18.43,0,1.28-.39,1.4-.47.51-.1.44,0,.46,0,1.16-.4m2.86-1.71.1,0,1-.31a1.45,1.45,0,0,1-.42.07l.12,0-.77.24M80.24,7.18l2.1-.71-.73.2L80.3,7.1l-.06.08Zm7-2.19,1.38-.39.25-.11-1.13.3-.25,0c-.13,0-4,1.13-4,1.14L83.3,6l-.87.26-1.16.39-.5.21,1.11-.36-.67.26.71-.22.82-.28.25,0,1.25-.39.93-.27L84,5.93l.51-.14.8-.21L87.24,5M68.57,15.63l.83-.46.32-.47-.06-.49,1-.78,1.5-.81.54-.48,1.9-1,1-.63.29-.34c-.14,0-.28,0-.41,0l-1.5.72-1,.52-1.19.7-.74.33-.1,0,.42-.31,1-.53.77-.43,1.12-.67-.21,0-.91.47-.68.38-.36,0-.74.35-.47.12.88-.41,1.07-.49-.14,0,.17-.19-.37.07-1,.48,0-.07.72-.31,1.23-.58.15-.12-.31,0-1.13.44-.67.24-.64.2-1.08.43-1.25.62-1.2.49-.75.37.19,0-.6.35.71-.26L67.3,13l-.6.39-.8.28-.67.23-.88.41-.43.39.42-.05.66-.14a1,1,0,0,1,.39,0c-.33.36-.33.36-1.14.77l-.67,0-.65.06-1.33.56-1.52,1h.43l.45,0-1.39,1-.37.4.65-.05.72-.12,1.19-.52.9-.31L64,16.68l.77-.33-.35.34.47-.12-.33.69H65l.69-.14,1.24-.7.45-.54.4-.07.76-.19m-6,2.34,1.09-.7-1.33.43-1.78.76.21.18,1.11-.47.7-.2Zm10-7.58,1-.33,1.18-.53,1.11-.59,0-.06-1,.36L75.19,9l.52-.28-.1,0-.67.18-1,.39L72.19,10l-2.7,1.16-3.71,1.64-.58.39L63,14.39l1.55-.72.3,0,1.12-.5c1.84-.88,4.7-2.07,4.73-2.07l1.88-.67M95.43,50.3l.86-.68L95.61,49l.69-.67.39-1.41-1.8-.24-.15-.82h-2L91,46.67l-1.2.66L89,47l.62-1,2-.59,2.26-.49L95,44.13l-1.36-.08-1.18-.63L90.81,43,90,42l-.92-.93-.2-.85.77-.16.45-.62L89.5,38l-.73-1.56-.72-2.69L88,32.57l-2,1.58c-.2.46-.39.92-.6,1.38l-1.62.54-1.31,1-1.29,0,.12-.89-.55-.65-1.42.31,1.11-1.54c.34-.67.69-1.33,1-2l.49-1-1.42-.05-.7-.75-.37-1.06-1-1.11-1,.54-1.42,0-.33-.39-1.61,0-1.18.75-.16,1.07-1.23,1.46-.45,1L70.8,34l-.89,0-.76,1.32-1,.74.43.58.62.93-.63,1.74c-.36.66-.72,1.34-1.07,2l-1.64,1.44L64,43.91l-1.84.28.07,1.75c-.39.77-.76,1.54-1.13,2.32L61,49.59l-.78,1.09-1.41,1.4L57,52.37l-.08-1.93-.36-1.65c.23-.47.48-.94.71-1.41l.71-2L59,43.8l-1.85-.25-1.41,0L55.33,43l-1.43-.5-.07-.91-.79-1-.73-1L50,40.28l.29-1,.95-2.23-.39-.56.15-.85L53.43,33,56,31l2.37-1.74,1.59-.65,1.63-.9.53-.9-.89-.34-.73-.58,1.27.26.92.39.8-.22,1.07-1,.66.46.86-.22.77-.75.74-.34,1.21-1-.7-.1-.89-.08.19-.53-.47-.57.7,0,.77.38.47.34,1.2-.4,1.49-.91.12-.69.84,0-.16.62-1.13.73-1.7,1.35c-.53.55-1.06,1.11-1.58,1.68l-1.25.42-.46.76.91,0c-.21.24-.42.48.06.78l.74-.24,1.15-.91,1.21,0,.58.11.39.36c.35,0,.69,0,1,0l.89-1-.83-.23.56-1.18-1.09-.09-.06-.89L71.15,23c.22-.22.43-.44.66-.66l.6.16.8-.5.42-.53c.32,0,.61,0,.93,0l1.1-.77,1.6-.77.9-.63.21-.66.75-1.08.95-.18,1.1-.81.3-.76-.32-.39-.23-.57c.36,0,.72,0,1.09,0l.6-.4.69.07.12.43,1-.07,1.06-.22.16-.72.64-.16-.21.82.75.07-.48.8.49.14-.23.61.42.3-.34.78.58.31v.8l-.67,1-2,1.11-1.81,1.13-.34,1.07L80.59,23l-.68-.22-.94,0-1.9.94-.81,1,1.21.23,1.19-.1.72-.56.74-.33.6.18,1.08.4.42,1.37-.2.77.25,1,1.27,0,.6,1.31,2,0,1,.59.54-.81-1.28-1.62L86,26.4l0-.76,1,.68,1.73,1.22.92.7c.2-.4.39-.79.6-1.18l1.24-1-.83-.63.61-1.56L90,23.29l-.57-1.9.94-.53.89-.47,1.26,1.73.22,1.14,1,.17,1.06-1.33,1.56-.49.48-.53h.87l.67-.59.39-.86-1.68,0c.09-.15.17-.3.27-.46l-.56-.71-.62-.11L95.4,18h-.79l.2-.6.11-.53-1.3,0-.47-.05c.22-.3.44-.6.69-.89h.89l.79-.42-.94-.28.43-.36.65-.11-.16-.58-.68-.23.83-.54L95.09,13l-1,.06.28-.42-.74,0-.21-.09,1.07-.43-.56-.25-1.36.29.14-.71.38-.39-.56,0,.54-.47-.52-.32c-.4,0-.81,0-1.2,0l-.68.38-.74.1-.4-.11-.84.48-.64.06.81-.61L90,10l.55-.72.78-.63-1,0-1.21.48-.71.06-1,.34-1.17.66-.72.72-1,.49-.78.93-.63.11.52-.79,1.4-1,1-.68,1.6-.7,1.56-.57-.84,0-1.1.15-2.2.83-2.49,1.2-2.5,1.56.54.16.51,0-.62.6-.47-.12-1,.26-.5.75.84,0,.68-.21-.07.47.57.4-1,.28-.93.71-.12.5L76,17.72,74.4,18.78l-1.55.86-.18-.33,1-1.25L75,17.29l.44-1.13-1.94.93,1-1.57-.09-.19,1.21-.8,1.14-.87-.3-.08,1-.71.57-.75h-.71l-.88.46-.43.06-1.58.77-.79.61-.86.5-.58.82-.15.53-1.31.79-.44-.18-1,.9.74-.09,1.59-.67c-.44.31-.86.64-1.27,1l-2.61,1-1.72,1.46.15-.76,1.53-1-.51,0,1.2-.92c.15,0,.32,0,.47,0l1.7-1.31.06-.71-1.59.93-1.18.45-.46,1-1.3.62L65,19.13l-2,.22,0-.56-.4-.13.41-.76-1.4.64-1.79.73-1.17.94L56.4,21.73l2-1.76.24-.61-1.26.4-1.09-.17.75-.52,1.21-.49.76-.85-.54.1.43-.77.92-.66-.14-.09-.34.09-1.11.6-.49.19,2.12-1.27-2.16,1.17.05-.11,2.53-1.47.28-.2-1.86,1L57.43,17l-.45.21-1.06.54-1.39.79,2-1.15.73-.37.71-.36,1-.54.11-.08L58,16.54l-1.44.76-.18.1-.06,0c-3.73,2.18-8.54,5.37-12.14,7.75-5.69,4.06-5.69,4.06-15.95,13.36L26.5,40.28l.31-.31-.61.65-1,1.05-.29.38-1,1-.46.63-.91,1-.22.35v.11l-1,1.14-.92,1.18-1.13,1.4-1,1.32.11.1-1.18,1.59-.87,1.47-.74,1.11-.29.8-.06.54,0,.38-.55.87-.33,1.08-.29.92L13,61.21c-.35.57-.72,1.16-1.07,1.74l.4-1.07.6-1.4.51-.9.22-.82v-.32L14.56,57l-.27.06.28-.67.07-.32v-.22l-.31.22-.64,1.12-.25.66L13,58.8l-.51,1.51L11.63,62l-1.11,2.18L9.47,66,8.06,68.42c-.5.92-1,1.85-1.46,2.78l-.55.7c-.31.62-.61,1.24-.93,1.86l-.67,1.91-1,1.9-.58,1.48-.35,1.26-.83,1.94-.35,1.58-.08,1.25L.56,87.83v1.09L.16,90.36,0,92l.57-.08L.66,93l.41.87.1,1.43-.34,1.8-.18,1.8-.37,3,.2,1.26.3,1.47,0,1.08-.68,1L.17,108l.43,1.14.61,1.27.29,1.41L1.24,113l.05,1,.61.62.51,1.29.36,1.1-.09,1.35.44-.48.25-1.49-.11-1.66-.55-.63.09-1.46-.53-1.16v-3.63l-.36-1.28.16-1.74-.46-.5.12-2.14-.21-1.79L2,98l.51-.15.54.67.12,1.26-.42,2.06L3,104.52l.47,2.13L4,108.13l.34,1.51-.11,1.77.76,1,.46,1.64.33,1.76.89,2.42L7,120.42l.54,1-.66.85-.26,1.39,1.19,2,1,1.66,1.35.73,1.43,1.55,1.75,1.3,2,1.63,1.68.73,1.1-.17.33-.95,1.26-.29,1.43,1.1,1.63,1.9.92,1.59,1.35,0,.52,0,.78.43.9,1.7,1.74.75,0-1.16,1,.66c3.1,5.46,3.1,5.46,2.92,6.57l.64.9.71-.48,1,.64c2.14,2.44,2.14,2.44,3.1,2.31l2.72,1.61,1.46.76-.25-1.8.61-1.16,2.5.16.35,1.13.81-.12.35-1.5-1-1.35-2.59.07-1.67-.07-2.44-.16-1.17-1-1.65-2.12,0-1.73c0-.77-.07-1.53-.09-2.3l.41-2.91,0-2L36,132.73l-1.5-1-2.22.31-1.54-.42-1.67,1-1.1-1,1-1.21v-1c0-.38,0-.76,0-1.15l.41-1.31.61-2.1c0-.77.07-1.55.1-2.32l1-.95.25-1.73-.68-.65-2.38.31-1.48.39-.71,1.64-.7,2.44-.76,2.23-1.2.28-1.69.77-1.73.43-.74-1.6-1.34-1.08-.41-1.83-.81-2.37-.22-4.07.08-2.94.91-2.29.66-2.59-.28-2.62,1.58-2.59,1-.16,1.24-1.36L23,100.66l1.42.26,1,.49,1-.58.51,1.38,1.33,0,1.06-.16-.05-1.07.67-1.75L31.58,99l1.2-.26,2.15.23.62,1.5.73,0,.62-.88.68-.24.86,1.27.77,1.6c-.09.63-.17,1.25-.25,1.88l.44,1.08.11,1.21.66.87.28,1.31.88.64-.06,1.45.84.31.63-1,.57-1.58L43,106.5l-.19-2.85L42,101.16c.15-1.09.32-2.18.66-3.79.23-.52.54-1.22.78-1.73l1.34-2.39,1.58-.77,2.06-1.84,1.9-1.4,1.72-.77.53-1.35L54,86.25,53.39,84l-.55-1,.61-1.23L53,80.68l1.38-.74.67,1.6,1-1.63,1-1.42,1-.92,1.51-3,2.37,0,1.74-1,1.83-.23-.17-1.17.5-2.41L67.5,67.9l1.41,0,.72-1,1.86.06,2-1,1.42-1.42c3.21-.12,3.21-.12,4.26.51-.2.14-.46.32-.65.48a18.29,18.29,0,0,0-2.57.14c-1.64,1.09-1.64,1.09-1.7,2.44l.92.47,1.33-1,1-.57,1.68-.5L81,65.57l1.77-.39,1.65-1.6,1.54-1.12.44-1.27-1.87.45-1.62,2-2.07.11-1.48-.81-1.39-1.37-.3-2.35L79.43,58l.41-1.86L77.71,56l-2.54.73-3,1.56-3.23,2.57-2.38,1.5,1.17-1.39,1.61-1.48,1-.72-1.76-.51,2.44,0,1-1.27,1.7-1.17,1.65-.1,1.1-1.42,1.52-.54,2.14,0,4-.12,1.95.33,1.63-.1,1.87-1.14,1.8-1.55L94,50.82l1.46-.52"/></clipPath></defs><g id="Layer_2" data-name="Layer 2"><g id="Objects"><g class="cls-2"><path class="cls-3" d="M22.47,37q-102.06,96,0,192" transform="translate(28.76 10.73)"/><path class="cls-3" d="M24.55,35.07q-100,97.94,0,195.87" transform="translate(28.76 10.73)"/><path class="cls-3" d="M26.63,33.18q-97.87,99.83,0,199.65" transform="translate(28.76 10.73)"/><path class="cls-3" d="M28.71,31.33q-95.79,101.68,0,203.35" transform="translate(28.76 10.73)"/><path class="cls-3" d="M30.8,29.52q-93.72,103.49,0,207" transform="translate(28.76 10.73)"/><path class="cls-3" d="M32.88,27.75q-91.63,105.26,0,210.51" transform="translate(28.76 10.73)"/><path class="cls-3" d="M35,26q-89.55,107,0,214" transform="translate(28.76 10.73)"/><path class="cls-3" d="M37,24.34Q-50.42,133,37,241.68" transform="translate(28.76 10.73)"/><path class="cls-3" d="M39.13,22.69q-85.4,110.31,0,220.64" transform="translate(28.76 10.73)"/><path class="cls-3" d="M41.21,21.07Q-42.1,133,41.21,244.94" transform="translate(28.76 10.73)"/><path class="cls-3" d="M43.29,19.5q-81.21,113.51,0,227" transform="translate(28.76 10.73)"/><path class="cls-3" d="M45.38,18q-79.14,115,0,230.07" transform="translate(28.76 10.73)"/><path class="cls-3" d="M47.46,16.48Q-29.6,133,47.46,249.53" transform="translate(28.76 10.73)"/><path class="cls-3" d="M49.54,15q-75,118,0,236" transform="translate(28.76 10.73)"/><path class="cls-3" d="M51.62,13.62q-72.88,119.39,0,238.77" transform="translate(28.76 10.73)"/><path class="cls-3" d="M53.71,12.25Q-17.1,133,53.71,253.76" transform="translate(28.76 10.73)"/><path class="cls-3" d="M55.79,10.92Q-12.94,133,55.79,255.1" transform="translate(28.76 10.73)"/><path class="cls-3" d="M57.87,9.63Q-8.77,133,57.87,256.39" transform="translate(28.76 10.73)"/><path class="cls-3" d="M60,8.37Q-4.61,133,60,257.64" transform="translate(28.76 10.73)"/><path class="cls-3" d="M62,7.16Q-.45,133,62,258.85" transform="translate(28.76 10.73)"/><path class="cls-3" d="M64.12,6q-60.39,127,0,254" transform="translate(28.76 10.73)"/><path class="cls-3" d="M66.2,4.86Q7.89,133,66.2,261.16" transform="translate(28.76 10.73)"/><path class="cls-3" d="M68.29,3.76Q12.05,133,68.29,262.25" transform="translate(28.76 10.73)"/><path class="cls-3" d="M70.37,2.71q-54.15,130.29,0,260.6" transform="translate(28.76 10.73)"/><path class="cls-3" d="M72.45,1.7Q20.39,133,72.45,264.32" transform="translate(28.76 10.73)"/><path class="cls-3" d="M74.53.72q-50,132.29,0,264.57" transform="translate(28.76 10.73)"/><path class="cls-3" d="M76.62-.21Q28.71,133,76.62,266.23" transform="translate(28.76 10.73)"/><path class="cls-3" d="M78.7-1.11Q32.88,133,78.7,267.12" transform="translate(28.76 10.73)"/><path class="cls-3" d="M80.78-2Q37,133,80.78,268" transform="translate(28.76 10.73)"/><path class="cls-3" d="M82.86-2.78q-41.64,135.8,0,271.57" transform="translate(28.76 10.73)"/><path class="cls-3" d="M85-3.55Q45.37,133,85,269.57" transform="translate(28.76 10.73)"/><path class="cls-3" d="M87-4.29Q49.55,133,87,270.3" transform="translate(28.76 10.73)"/><path class="cls-3" d="M89.11-5q-35.4,138,0,276" transform="translate(28.76 10.73)"/><path class="cls-3" d="M91.2-5.64Q57.87,133,91.2,271.65" transform="translate(28.76 10.73)"/><path class="cls-3" d="M93.28-6.26a628.54,628.54,0,0,0,0,278.53" transform="translate(28.76 10.73)"/><path class="cls-3" d="M95.36-6.83a677.91,677.91,0,0,0,0,279.68" transform="translate(28.76 10.73)"/><path class="cls-3" d="M97.44-7.37a734.57,734.57,0,0,0,0,280.75" transform="translate(28.76 10.73)"/><path class="cls-3" d="M99.53-7.87a799.92,799.92,0,0,0,0,281.75" transform="translate(28.76 10.73)"/><path class="cls-3" d="M101.61-8.32a877.77,877.77,0,0,0,0,282.66" transform="translate(28.76 10.73)"/><path class="cls-3" d="M103.69-8.74a970.22,970.22,0,0,0,0,283.49" transform="translate(28.76 10.73)"/><path class="cls-3" d="M105.77-9.12a1082.85,1082.85,0,0,0,0,284.25" transform="translate(28.76 10.73)"/><path class="cls-3" d="M107.86-9.46a1222.06,1222.06,0,0,0,0,284.93" transform="translate(28.76 10.73)"/><path class="cls-3" d="M109.94-9.75a1401.48,1401.48,0,0,0,0,285.52" transform="translate(28.76 10.73)"/><path class="cls-3" d="M112-10a1640.16,1640.16,0,0,0,0,286" transform="translate(28.76 10.73)"/><path class="cls-3" d="M114.1-10.23a1973.43,1973.43,0,0,0,0,286.47" transform="translate(28.76 10.73)"/><path class="cls-3" d="M116.19-10.41a2468.26,2468.26,0,0,0,0,286.83" transform="translate(28.76 10.73)"/><path class="cls-3" d="M118.27-10.55Q112,133,118.27,276.56" transform="translate(28.76 10.73)"/><path class="cls-3" d="M120.35-10.65q-4.17,143.66,0,287.31" transform="translate(28.76 10.73)"/><path class="cls-3" d="M122.43-10.71q-2.07,143.72,0,287.43" transform="translate(28.76 10.73)"/><path class="cls-3" d="M124.52-10.73V276.74" transform="translate(28.76 10.73)"/><path class="cls-3" d="M126.6-10.71q2.09,143.72,0,287.43" transform="translate(28.76 10.73)"/><path class="cls-3" d="M128.68-10.65q4.17,143.66,0,287.31" transform="translate(28.76 10.73)"/><path class="cls-3" d="M130.76-10.55q6.26,143.55,0,287.11" transform="translate(28.76 10.73)"/><path class="cls-3" d="M132.85-10.41a2472.7,2472.7,0,0,1,0,286.83" transform="translate(28.76 10.73)"/><path class="cls-3" d="M134.93-10.23a1973.43,1973.43,0,0,1,0,286.47" transform="translate(28.76 10.73)"/><path class="cls-3" d="M137-10a1640.16,1640.16,0,0,1,0,286" transform="translate(28.76 10.73)"/><path class="cls-3" d="M139.1-9.75a1402.91,1402.91,0,0,1,0,285.52" transform="translate(28.76 10.73)"/><path class="cls-3" d="M141.18-9.46a1223.16,1223.16,0,0,1,0,284.93" transform="translate(28.76 10.73)"/><path class="cls-3" d="M143.26-9.12a1082,1082,0,0,1,0,284.25" transform="translate(28.76 10.73)"/><path class="cls-3" d="M145.34-8.74a969.53,969.53,0,0,1,0,283.49" transform="translate(28.76 10.73)"/><path class="cls-3" d="M147.43-8.32a877.77,877.77,0,0,1,0,282.66" transform="translate(28.76 10.73)"/><path class="cls-3" d="M149.51-7.87a800.4,800.4,0,0,1,0,281.75" transform="translate(28.76 10.73)"/><path class="cls-3" d="M151.59-7.37a734.57,734.57,0,0,1,0,280.75" transform="translate(28.76 10.73)"/><path class="cls-3" d="M153.67-6.83a677.91,677.91,0,0,1,0,279.68" transform="translate(28.76 10.73)"/><path class="cls-3" d="M155.76-6.26a628.84,628.84,0,0,1,0,278.53" transform="translate(28.76 10.73)"/><path class="cls-3" d="M157.84-5.64q33.33,138.65,0,277.29" transform="translate(28.76 10.73)"/><path class="cls-3" d="M159.92-5q35.42,138,0,276" transform="translate(28.76 10.73)"/><path class="cls-3" d="M162-4.29Q199.5,133,162,270.3" transform="translate(28.76 10.73)"/><path class="cls-3" d="M164.09-3.55q39.57,136.56,0,273.12" transform="translate(28.76 10.73)"/><path class="cls-3" d="M166.17-2.78q41.66,135.8,0,271.57" transform="translate(28.76 10.73)"/><path class="cls-3" d="M168.25-2Q212,133,168.25,268" transform="translate(28.76 10.73)"/><path class="cls-3" d="M170.34-1.11q45.81,134.12,0,268.23" transform="translate(28.76 10.73)"/><path class="cls-3" d="M172.42-.21q47.9,133.21,0,266.44" transform="translate(28.76 10.73)"/><path class="cls-3" d="M174.5.72q50,132.29,0,264.57" transform="translate(28.76 10.73)"/><path class="cls-3" d="M176.58,1.69q52.06,131.32,0,262.63" transform="translate(28.76 10.73)"/><path class="cls-3" d="M178.67,2.71q54.15,130.29,0,260.6" transform="translate(28.76 10.73)"/><path class="cls-3" d="M180.75,3.76Q237,133,180.75,262.25" transform="translate(28.76 10.73)"/><path class="cls-3" d="M182.83,4.86q58.32,128.15,0,256.3" transform="translate(28.76 10.73)"/><path class="cls-3" d="M184.91,6q60.41,127,0,254" transform="translate(28.76 10.73)"/><path class="cls-3" d="M187,7.16Q249.48,133,187,258.85" transform="translate(28.76 10.73)"/><path class="cls-3" d="M189.08,8.37q64.56,124.64,0,249.27" transform="translate(28.76 10.73)"/><path class="cls-3" d="M191.16,9.63q66.65,123.38,0,246.76" transform="translate(28.76 10.73)"/><path class="cls-3" d="M193.25,10.92Q262,133,193.25,255.1" transform="translate(28.76 10.73)"/><path class="cls-3" d="M195.33,12.25q70.8,120.75,0,241.51" transform="translate(28.76 10.73)"/><path class="cls-3" d="M197.41,13.62q72.89,119.39,0,238.77" transform="translate(28.76 10.73)"/><path class="cls-3" d="M199.49,15q75,118,0,236" transform="translate(28.76 10.73)"/><path class="cls-3" d="M201.58,16.48q77.05,116.53,0,233.05" transform="translate(28.76 10.73)"/><path class="cls-3" d="M203.66,18q79.14,115,0,230.07" transform="translate(28.76 10.73)"/><path class="cls-3" d="M205.74,19.5q81.22,113.51,0,227" transform="translate(28.76 10.73)"/><path class="cls-3" d="M207.82,21.07q83.31,111.95,0,223.87" transform="translate(28.76 10.73)"/><path class="cls-3" d="M209.91,22.68q85.38,110.33,0,220.65" transform="translate(28.76 10.73)"/><path class="cls-3" d="M212,24.33Q299.46,133,212,241.68" transform="translate(28.76 10.73)"/><path class="cls-3" d="M214.07,26q89.57,107,0,214" transform="translate(28.76 10.73)"/><path class="cls-3" d="M216.15,27.75q91.65,105.26,0,210.51" transform="translate(28.76 10.73)"/><path class="cls-3" d="M218.24,29.52q93.72,103.49,0,207" transform="translate(28.76 10.73)"/><path class="cls-3" d="M220.32,31.33q95.81,101.67,0,203.35" transform="translate(28.76 10.73)"/><path class="cls-3" d="M222.4,33.18q97.89,99.83,0,199.65" transform="translate(28.76 10.73)"/><path class="cls-3" d="M224.48,35.07q100,97.94,0,195.88" transform="translate(28.76 10.73)"/><path class="cls-3" d="M226.57,37q102,96,0,192" transform="translate(28.76 10.73)"/></g></g></g></svg>