<svg xmlns="http://www.w3.org/2000/svg" xmlns:xlink="http://www.w3.org/1999/xlink" viewBox="0 0 512 434.32"><defs><style>.cls-1{fill:none;}.cls-2{clip-path:url(#clip-path);}.cls-3{fill:#171717;}.cls-4{fill:#cc2131;}</style><clipPath id="clip-path"><rect class="cls-1" width="512" height="434.32"/></clipPath></defs><g id="Layer_2" data-name="Layer 2"><g id="Layer_1-2" data-name="Layer 1"><g class="cls-2"><path class="cls-3" d="M438.09,234.48h-39.6a102.92,102.92,0,0,1,6.24,35.4V419.53a44.18,44.18,0,0,1-2.54,14.79h65.46A44.4,44.4,0,0,0,512,390V308.39a74,74,0,0,0-73.91-73.91"/><path class="cls-3" d="M107.26,419.53V269.89a102.94,102.94,0,0,1,6.25-35.41H73.91A74,74,0,0,0,0,308.39V390a44.4,44.4,0,0,0,44.35,44.35h65.46a44.19,44.19,0,0,1-2.55-14.79"/><path class="cls-3" d="M151.61,434.32H360.39a14.79,14.79,0,0,0,14.78-14.79V269.88A74,74,0,0,0,301.26,196H210.74a74,74,0,0,0-73.91,73.9V419.53a14.79,14.79,0,0,0,14.78,14.79"/><path class="cls-4" d="M299.44,166.41A88.74,88.74,0,1,0,256,177.77a88.94,88.94,0,0,0,43.44-11.36"/><path class="cls-4" d="M158.58,180.55a66.49,66.49,0,1,0-32.47,29.86,66.85,66.85,0,0,0,32.47-29.86"/><path class="cls-4" d="M385.89,210.41a66.54,66.54,0,1,0-32.47-29.86,66.85,66.85,0,0,0,32.47,29.86"/></g></g></g></svg>