<svg xmlns="http://www.w3.org/2000/svg" xmlns:xlink="http://www.w3.org/1999/xlink" viewBox="0 0 337.5 384"><defs><style>.cls-1{fill:none;}.cls-2{clip-path:url(#clip-path);}.cls-3{fill:#171717;}.cls-4{fill:#cc2131;}</style><clipPath id="clip-path"><rect class="cls-1" width="337.5" height="384"/></clipPath></defs><g id="Layer_2" data-name="Layer 2"><g id="Layer_1-2" data-name="Layer 1"><g class="cls-2"><path class="cls-3" d="M300.42,303.21l-12.87-18.46A167.52,167.52,0,0,1,191.25,315C98.2,315,22.5,239.3,22.5,146.25A167.52,167.52,0,0,1,52.75,50L34.29,37.08A190,190,0,0,0,0,146.25c0,93.94,68.09,172.28,157.5,188.27v27H90V384H292.5V361.5H225v-27a189.85,189.85,0,0,0,75.42-31.31"/><path class="cls-4" d="M181.45,292.17A146.11,146.11,0,0,1,180,271.58c0-8.26-3.59-12.15-13.94-22.2-8.36-8.17-5.37-5.31-13.22-13.13l7.95-8c11.6-11.59,15.85-18.6,10.4-29.49L160,176.45l-48.61-32.4c-14.38-9.59-19.27-28.71-11.14-43.53a12.37,12.37,0,0,0-7.82-18l-29-7.26a145.35,145.35,0,0,0-18.41,71c0,77.35,60.36,140.86,136.45,145.92"/><path class="cls-4" d="M120,111.35c-2.57,4.67-.86,10.81,3.89,14l24,16c-1.3-21.42,11.36-36.42,26.64-44.27,6.45-3.3,5.17-11.48,5.47-18.3A33.79,33.79,0,0,1,213.75,45c8.77,0,24.61-1,24.82-9.77V7.85A146.22,146.22,0,0,0,76.72,55.39l21.19,5.3A34.88,34.88,0,0,1,120,111.35"/><path class="cls-4" d="M202.5,271.58a125,125,0,0,0,1.67,20.36,145.85,145.85,0,0,0,86-38c-14.62-10.2-26.84-22.65-32.73-29.05a51.66,51.66,0,0,1-42.49-28.57A29.28,29.28,0,0,0,188.59,180H187l4.37,8.74c10.34,20.67,1.84,36.64-6.87,47.14,10,9.77,18.05,19,18.05,35.7"/><path class="cls-4" d="M250.61,159.76c-7.23-17.48-2.4-41.39,6.78-50.55,4.91-4.91,30.11-35.85,46.49-56.16a147.42,147.42,0,0,0-42.81-35.28V35.54a28.36,28.36,0,0,1-11.5,22.9c-8.08,6.1-19.79,9.06-35.82,9.06A11.27,11.27,0,0,0,202.5,78.75c.07,16.8-2.23,30.39-17.7,38.32s-18.62,21.58-9.09,40.43h12.88a51.68,51.68,0,0,1,46.48,28.72,29.28,29.28,0,0,0,26.34,16.28h6.34l3.36,3.91c8.29,9.6,21.47,22.17,34.54,30.86a145.83,145.83,0,0,0,26.84-53c-25.06-2.68-47.15-4.24-51.24-4.24-14.14,0-25.31-7.38-30.64-20.24"/><path class="cls-4" d="M317.33,72.2c-14.62,18.09-38.32,47.2-44,52.91-2.59,2.89-5.86,17.13-1.72,26.43,1.89,4.23,4.69,6,9.68,6,5.66,0,29.23,1.69,55.4,4.54a147.18,147.18,0,0,0,.85-15.79,145.41,145.41,0,0,0-20.17-74"/></g></g></g></svg>