<svg xmlns="http://www.w3.org/2000/svg" xmlns:xlink="http://www.w3.org/1999/xlink" viewBox="0 0 384 384"><defs><style>.cls-1{fill:none;}.cls-2{clip-path:url(#clip-path);}.cls-3{fill:#cc2131;}.cls-4{fill:#171717;}</style><clipPath id="clip-path"><rect class="cls-1" width="384" height="384"/></clipPath></defs><g id="Layer_2" data-name="Layer 2"><g id="Layer_1-2" data-name="Layer 1"><g class="cls-2"><path class="cls-3" d="M192,0C128.64,0,76.8,51.84,76.8,115.2S192,326.4,192,326.4,307.2,178.56,307.2,115.2,255.36,0,192,0m0,153.6a38.4,38.4,0,1,1,38.4-38.4A38.51,38.51,0,0,1,192,153.6"/><path class="cls-4" d="M313,213.12c-5.76,11.52-11.52,23-19.2,34.56C326.4,259.2,345.6,274.56,345.6,288c0,23-61.44,57.6-153.6,57.6S38.4,311,38.4,288c0-13.44,19.2-28.8,51.84-42.24-7.68-11.52-13.44-23-19.2-34.56C26.88,230.4,0,257.28,0,288c0,53.76,80.64,96,188.16,96,96,0,195.84-32.64,195.84-96,0-30.72-26.88-57.6-71-74.88"/></g></g></g></svg>