<svg xmlns="http://www.w3.org/2000/svg" xmlns:xlink="http://www.w3.org/1999/xlink" viewBox="0 0 653.32 560.11">
    <defs>
        <style>
            .cls-1 {
                isolation: isolate;
            }
            .cls-2 {
                fill: #d0d4f6;
            }
            .cls-3 {
                fill: #dce1f4;
            }
            .cls-4,
            .cls-87 {
                fill: #f48a71;
            }
            .cls-5 {
                fill: #57ecea;
            }
            .cls-6 {
                fill: #fff;
            }
            .cls-7 {
                fill: none;
                stroke: #dce1f4;
                stroke-width: 2px;
            }
            .cls-8 {
                fill: #c6cbe7;
            }
            .cls-9 {
                fill: #bdc1e4;
            }
            .cls-10,
            .cls-15,
            .cls-23,
            .cls-24,
            .cls-26,
            .cls-27,
            .cls-28,
            .cls-32,
            .cls-33,
            .cls-34,
            .cls-35,
            .cls-43,
            .cls-52,
            .cls-54,
            .cls-56,
            .cls-58,
            .cls-60,
            .cls-72,
            .cls-73,
            .cls-74,
            .cls-79,
            .cls-84,
            .cls-86,
            .cls-96 {
                mix-blend-mode: multiply;
            }
            .cls-10 {
                fill: url(#linear-gradient);
            }
            .cls-11 {
                fill: #5555c6;
            }
            .cls-12 {
                fill: #f7f7fc;
            }
            .cls-13 {
                fill: #6a6ae2;
            }
            .cls-14 {
                fill: url(#linear-gradient-2);
            }
            .cls-15 {
                fill: url(#linear-gradient-3);
            }
            .cls-16 {
                fill: #d34668;
            }
            .cls-17 {
                fill: #ec6675;
            }
            .cls-18 {
                fill: url(#linear-gradient-4);
            }
            .cls-19,
            .cls-89 {
                fill: #009aaa;
            }
            .cls-20 {
                fill: #00d6dc;
            }
            .cls-21 {
                fill: url(#linear-gradient-5);
            }
            .cls-22 {
                fill: url(#linear-gradient-6);
            }
            .cls-23,
            .cls-25 {
                fill: #eaeef9;
            }
            .cls-26 {
                fill: url(#linear-gradient-7);
            }
            .cls-27 {
                fill: url(#linear-gradient-8);
            }
            .cls-28 {
                fill: url(#linear-gradient-9);
            }
            .cls-29 {
                fill: #bbc0e6;
            }
            .cls-30 {
                fill: #ced3f8;
            }
            .cls-31 {
                fill: #f6f6fb;
            }
            .cls-32 {
                fill: url(#linear-gradient-10);
            }
            .cls-33 {
                fill: url(#linear-gradient-11);
            }
            .cls-34 {
                fill: url(#linear-gradient-12);
            }
            .cls-35 {
                fill: url(#linear-gradient-13);
            }
            .cls-36 {
                fill: #ced2f4;
            }
            .cls-37 {
                fill: #bbbfe2;
            }
            .cls-38 {
                fill: #f5f5fa;
            }
            .cls-39 {
                fill: #00b6bf;
            }
            .cls-40 {
                fill: #5652ca;
            }
            .cls-41 {
                fill: #423ead;
            }
            .cls-42 {
                fill: #6b67e7;
            }
            .cls-43 {
                fill: url(#linear-gradient-14);
            }
            .cls-44 {
                fill: #ffc16b;
            }
            .cls-45 {
                fill: url(#linear-gradient-15);
            }
            .cls-46 {
                fill: #f9a363;
            }
            .cls-47 {
                fill: url(#linear-gradient-16);
            }
            .cls-48 {
                fill: #d14b5f;
            }
            .cls-49 {
                fill: #fcba06;
            }
            .cls-50 {
                fill: url(#linear-gradient-17);
            }
            .cls-51 {
                fill: url(#linear-gradient-18);
            }
            .cls-52 {
                fill: url(#linear-gradient-19);
            }
            .cls-53 {
                fill: url(#linear-gradient-20);
            }
            .cls-54 {
                fill: url(#linear-gradient-21);
            }
            .cls-55 {
                fill: url(#linear-gradient-22);
            }
            .cls-56 {
                fill: url(#linear-gradient-23);
            }
            .cls-57 {
                fill: url(#linear-gradient-24);
            }
            .cls-58 {
                fill: url(#linear-gradient-25);
            }
            .cls-59 {
                fill: #f3b378;
            }
            .cls-60 {
                fill: url(#linear-gradient-26);
            }
            .cls-61 {
                fill: url(#linear-gradient-27);
            }
            .cls-62 {
                fill: #131147;
            }
            .cls-63 {
                fill: url(#linear-gradient-28);
            }
            .cls-64 {
                fill: url(#linear-gradient-29);
            }
            .cls-65 {
                fill: url(#linear-gradient-30);
            }
            .cls-66 {
                fill: url(#linear-gradient-31);
            }
            .cls-67 {
                fill: #facfa7;
            }
            .cls-68 {
                fill: #f0c19b;
            }
            .cls-69 {
                fill: url(#linear-gradient-32);
            }
            .cls-70 {
                fill: #4141aa;
            }
            .cls-71 {
                fill: #a7adce;
            }
            .cls-72 {
                fill: url(#linear-gradient-33);
            }
            .cls-73 {
                fill: url(#linear-gradient-34);
            }
            .cls-74 {
                fill: url(#linear-gradient-35);
            }
            .cls-75 {
                fill: url(#linear-gradient-36);
            }
            .cls-76 {
                fill: url(#linear-gradient-37);
            }
            .cls-77 {
                fill: url(#linear-gradient-38);
            }
            .cls-78 {
                fill: #807dfb;
            }
            .cls-79 {
                fill: url(#linear-gradient-39);
            }
            .cls-80 {
                fill: url(#linear-gradient-40);
            }
            .cls-81 {
                fill: url(#linear-gradient-41);
            }
            .cls-82 {
                fill: url(#linear-gradient-42);
            }
            .cls-83 {
                fill: url(#linear-gradient-43);
            }
            .cls-84 {
                fill: url(#linear-gradient-44);
            }
            .cls-85 {
                fill: url(#linear-gradient-45);
            }
            .cls-86 {
                fill: url(#linear-gradient-46);
            }
            .cls-87,
            .cls-88,
            .cls-89,
            .cls-90,
            .cls-91,
            .cls-92,
            .cls-93,
            .cls-94,
            .cls-95 {
                mix-blend-mode: screen;
            }
            .cls-88 {
                fill: url(#linear-gradient-47);
            }
            .cls-90 {
                fill: url(#linear-gradient-48);
            }
            .cls-91 {
                fill: url(#linear-gradient-49);
            }
            .cls-92 {
                fill: url(#linear-gradient-50);
            }
            .cls-93 {
                fill: url(#linear-gradient-51);
            }
            .cls-94 {
                fill: url(#linear-gradient-52);
            }
            .cls-95 {
                fill: url(#linear-gradient-53);
            }
            .cls-96 {
                fill: url(#linear-gradient-54);
            }
            .cls-97 {
                fill: url(#linear-gradient-55);
            }

            @keyframes trans1 {
                0% {
                    -webkit-transform: translateX(0);
                           transform: translateX(0);
                }
                100% {
                    -webkit-transform: translateX(20px);
                            transform: translateX(20px);
                }
            } 
            @keyframes trans2 {
                0% {
                    -webkit-transform: translateY(-10px);
                           transform: translateY(-10px);
                }
                100% {
                    -webkit-transform: translateX(10px);
                            transform: translateX(10px);
                }
            } 
            @keyframes scale1 {
                0% {
                    <!-- opacity: 1; -->
                    -webkit-transform: scale3d(1,1,1);
                           transform: scale3d(1,1,1);
                }
                100% {
                    <!-- opacity: 0; -->
                    -webkit-transform: scale3d(1.1,1.1,1);
                            transform: scale3d(1.1,1.1,1);
                }
            } 
        </style>
        <linearGradient id="linear-gradient" x1="278.36" y1="464.59" x2="517.44" y2="464.59" gradientUnits="userSpaceOnUse">
            <stop offset="0" stop-color="#dce1f4" />
            <stop offset="0.09" stop-color="#dde2f4" stop-opacity="0.96" />
            <stop offset="0.24" stop-color="#dfe3f4" stop-opacity="0.84" />
            <stop offset="0.45" stop-color="#e3e6f4" stop-opacity="0.65" />
            <stop offset="0.69" stop-color="#e8eaf5" stop-opacity="0.38" />
            <stop offset="0.97" stop-color="#efeef5" stop-opacity="0.04" />
            <stop offset="1" stop-color="#f0eff5" stop-opacity="0" />
        </linearGradient>
        <linearGradient id="linear-gradient-2" x1="161.53" y1="295.49" x2="306.3" y2="44.74" gradientUnits="userSpaceOnUse">
            <stop offset="0.17" stop-color="#7f7ff4" />
            <stop offset="0.25" stop-color="#6a6ae2" />
            <stop offset="0.46" stop-color="#6a6ae2" />
            <stop offset="0.58" stop-color="#7373ea" />
            <stop offset="0.69" stop-color="#7f7ff4" />
            <stop offset="0.82" stop-color="#6a6ae2" />
            <stop offset="0.86" stop-color="#7f7ff4" />
        </linearGradient>
        <linearGradient id="linear-gradient-3" x1="254.16" y1="231.61" x2="653.32" y2="231.61" xlink:href="#linear-gradient" />
        <linearGradient id="linear-gradient-4" x1="286.92" y1="297.46" x2="430.99" y2="47.92" gradientUnits="userSpaceOnUse">
            <stop offset="0" stop-color="#f48a71" />
            <stop offset="0.09" stop-color="#ec6675" />
            <stop offset="0.11" stop-color="#ee6e74" />
            <stop offset="0.19" stop-color="#f28372" />
            <stop offset="0.24" stop-color="#f48a71" />
            <stop offset="0.31" stop-color="#f28372" />
            <stop offset="0.4" stop-color="#ee7074" />
            <stop offset="0.44" stop-color="#ec6675" />
            <stop offset="0.62" stop-color="#ec6675" />
            <stop offset="0.65" stop-color="#ee6f74" />
            <stop offset="0.68" stop-color="#f38771" />
            <stop offset="0.69" stop-color="#f48a71" />
        </linearGradient>
        <linearGradient id="linear-gradient-5" x1="151.69" y1="532.31" x2="224.91" y2="405.48" gradientUnits="userSpaceOnUse">
            <stop offset="0" stop-color="#57ecea" />
            <stop offset="0.17" stop-color="#00d6dc" />
            <stop offset="0.44" stop-color="#00d6dc" />
            <stop offset="0.53" stop-color="#23dfe2" />
            <stop offset="0.62" stop-color="#3fe6e6" />
            <stop offset="0.7" stop-color="#51eae9" />
            <stop offset="0.76" stop-color="#57ecea" />
            <stop offset="0.88" stop-color="#00d6dc" />
            <stop offset="1" stop-color="#57ecea" />
        </linearGradient>
        <linearGradient id="linear-gradient-6" x1="271.47" y1="510.49" x2="362.27" y2="353.22" gradientUnits="userSpaceOnUse">
            <stop offset="0" stop-color="#7f7ff4" />
            <stop offset="0.25" stop-color="#6a6ae2" />
            <stop offset="0.61" stop-color="#6a6ae2" />
            <stop offset="0.75" stop-color="#7f7ff4" />
        </linearGradient>
        <linearGradient id="linear-gradient-7" x1="143.26" y1="509.66" x2="252.1" y2="509.66" xlink:href="#linear-gradient" />
        <linearGradient id="linear-gradient-8" x1="295.08" y1="164.21" x2="352.16" y2="263.08" gradientUnits="userSpaceOnUse">
            <stop offset="0" stop-color="#dce1f4" />
            <stop offset="0.4" stop-color="#e7eaf7" />
            <stop offset="1" stop-color="#fff" />
        </linearGradient>
        <linearGradient id="linear-gradient-9" x1="129.12" y1="259.94" x2="157.01" y2="259.94" gradientUnits="userSpaceOnUse">
            <stop offset="0" stop-color="#d1d7f3" />
            <stop offset="0.26" stop-color="#e1e5f7" />
            <stop offset="0.71" stop-color="#f7f8fd" />
            <stop offset="1" stop-color="#fff" />
        </linearGradient>
        <linearGradient id="linear-gradient-10" x1="367.08" y1="283.78" x2="447.4" y2="283.78" gradientTransform="translate(42.41)" xlink:href="#linear-gradient" />
        <linearGradient id="linear-gradient-11" x1="285.42" y1="298.96" x2="362.3" y2="298.96" gradientTransform="translate(97.64)" xlink:href="#linear-gradient" />
        <linearGradient id="linear-gradient-12" x1="203.76" y1="314.15" x2="274.52" y2="314.15" gradientTransform="translate(152.86)" xlink:href="#linear-gradient" />
        <linearGradient id="linear-gradient-13" x1="393.51" y1="268.59" x2="473.83" y2="268.59" gradientTransform="translate(42.41)" xlink:href="#linear-gradient" />
        <linearGradient id="linear-gradient-14" x1="358.74" y1="509.7" x2="408.49" y2="509.7" xlink:href="#linear-gradient" />
        <linearGradient id="linear-gradient-15" x1="348.34" y1="513.59" x2="397.07" y2="513.59" gradientUnits="userSpaceOnUse">
            <stop offset="0" stop-color="#f48a71" />
            <stop offset="1" stop-color="#d14b5f" />
        </linearGradient>
        <linearGradient id="linear-gradient-16" x1="352.92" y1="497.71" x2="392.49" y2="497.71" gradientUnits="userSpaceOnUse">
            <stop offset="0" stop-color="#d14b5f" />
            <stop offset="1" stop-color="#f48a71" />
        </linearGradient>
        <linearGradient id="linear-gradient-17" x1="365.18" y1="508.03" x2="375.88" y2="508.03" xlink:href="#linear-gradient-15" />
        <linearGradient id="linear-gradient-18" x1="372.73" y1="500.21" x2="380.12" y2="500.21" gradientUnits="userSpaceOnUse">
            <stop offset="0" stop-color="#d14b5f" />
            <stop offset="1" stop-color="#ec6675" />
        </linearGradient>
        <linearGradient id="linear-gradient-19" x1="1.41" y1="367.18" x2="38.05" y2="367.18" gradientTransform="translate(475.17)" xlink:href="#linear-gradient" />
        <linearGradient id="linear-gradient-20" x1="-6.09" y1="368.74" x2="28.54" y2="368.74" gradientTransform="translate(475.17)" gradientUnits="userSpaceOnUse">
            <stop offset="0" stop-color="#807dfb" />
            <stop offset="0.01" stop-color="#7f7cfa" />
            <stop offset="0.45" stop-color="#5e5ad1" />
            <stop offset="0.79" stop-color="#4a46b8" />
            <stop offset="1" stop-color="#423eaf" />
        </linearGradient>
        <linearGradient id="linear-gradient-21" x1="27.37" y1="413.96" x2="53" y2="413.96" gradientTransform="translate(475.17)" xlink:href="#linear-gradient" />
        <linearGradient id="linear-gradient-22" x1="22.12" y1="415.05" x2="46.35" y2="415.05" gradientTransform="translate(475.17)" gradientUnits="userSpaceOnUse">
            <stop offset="0" stop-color="#d0d4f6" />
            <stop offset="0.42" stop-color="#c6caed" />
            <stop offset="1" stop-color="#bdc1e4" />
        </linearGradient>
        <linearGradient id="linear-gradient-23" x1="-450.53" y1="484.72" x2="-424.9" y2="484.72" gradientTransform="translate(475.17)" gradientUnits="userSpaceOnUse">
            <stop offset="0.43" stop-color="#c4c9e4" />
            <stop offset="0.58" stop-color="#d7daed" />
            <stop offset="0.85" stop-color="#f4f5fa" />
            <stop offset="1" stop-color="#fff" />
        </linearGradient>
        <linearGradient id="linear-gradient-24" x1="-455.78" y1="485.81" x2="-431.55" y2="485.81" xlink:href="#linear-gradient-22" />
        <linearGradient id="linear-gradient-25" x1="76.44" y1="59.25" x2="181.81" y2="59.25" gradientUnits="userSpaceOnUse">
            <stop offset="0" stop-color="#4141aa" />
            <stop offset="0.39" stop-color="#504ec0" />
            <stop offset="1" stop-color="#6b67e9" />
        </linearGradient>
        <linearGradient id="linear-gradient-26" x1="188.3" y1="424.78" x2="215.6" y2="424.78" gradientUnits="userSpaceOnUse">
            <stop offset="0" stop-color="#c2c7e2" />
            <stop offset="0.08" stop-color="#ccd0e7" />
            <stop offset="0.34" stop-color="#e8eaf4" />
            <stop offset="0.57" stop-color="#f9f9fc" />
            <stop offset="0.74" stop-color="#fff" />
        </linearGradient>
        <linearGradient id="linear-gradient-27" x1="924.88" y1="97.1" x2="930.37" y2="90.56" gradientTransform="matrix(0.88, 0.47, -0.47, 0.88, -289.85, -355.72)" gradientUnits="userSpaceOnUse">
            <stop offset="0" stop-color="#20196f" />
            <stop offset="0.53" stop-color="#312b8e" />
            <stop offset="1" stop-color="#423ead" />
        </linearGradient>
        <linearGradient id="linear-gradient-28" x1="448.34" y1="127.49" x2="493" y2="127.49" gradientUnits="userSpaceOnUse">
            <stop offset="0" stop-color="#20196f" />
            <stop offset="0.23" stop-color="#231c74" />
            <stop offset="0.51" stop-color="#2b2583" />
            <stop offset="0.82" stop-color="#38339b" />
            <stop offset="1" stop-color="#423ead" />
        </linearGradient>
        <linearGradient id="linear-gradient-29" x1="919.48" y1="108.58" x2="924.98" y2="102.04" xlink:href="#linear-gradient-27" />
        <linearGradient id="linear-gradient-30" x1="440.04" y1="133.25" x2="482.85" y2="133.25" gradientUnits="userSpaceOnUse">
            <stop offset="0" stop-color="#20196f" />
            <stop offset="0.51" stop-color="#302b8d" />
            <stop offset="1" stop-color="#423ead" />
        </linearGradient>
        <linearGradient id="linear-gradient-31" x1="-737.45" y1="71.15" x2="-767.16" y2="104.15" gradientTransform="matrix(-1, 0, 0, 1, -300.59, 0)" gradientUnits="userSpaceOnUse">
            <stop offset="0" stop-color="#f7f7fc" />
            <stop offset="0.15" stop-color="#ededf8" />
            <stop offset="0.7" stop-color="#cacde9" />
            <stop offset="1" stop-color="#bdc1e4" />
        </linearGradient>
        <linearGradient id="linear-gradient-32" x1="448.81" y1="50.41" x2="470.36" y2="50.41" gradientUnits="userSpaceOnUse">
            <stop offset="0" stop-color="#5655c4" />
            <stop offset="0.43" stop-color="#4645ab" />
            <stop offset="1" stop-color="#34318d" />
        </linearGradient>
        <linearGradient id="linear-gradient-33" x1="174.56" y1="553.64" x2="211.43" y2="553.64" xlink:href="#linear-gradient" />
        <linearGradient id="linear-gradient-34" x1="230.21" y1="521.51" x2="311.44" y2="521.51" xlink:href="#linear-gradient" />
        <linearGradient id="linear-gradient-35" x1="202.39" y1="537.58" x2="257.96" y2="537.58" xlink:href="#linear-gradient" />
        <linearGradient id="linear-gradient-36" x1="218.36" y1="500.76" x2="240.76" y2="500.76" gradientUnits="userSpaceOnUse">
            <stop offset="0" stop-color="#f48a71" />
            <stop offset="1" stop-color="#d34668" />
        </linearGradient>
        <linearGradient id="linear-gradient-37" x1="190.53" y1="525.81" x2="212.94" y2="525.81" gradientUnits="userSpaceOnUse">
            <stop offset="0" stop-color="#ccd1f6" />
            <stop offset="1" stop-color="#a1a7ce" />
        </linearGradient>
        <linearGradient id="linear-gradient-38" x1="162.71" y1="549.1" x2="185.11" y2="549.1" gradientUnits="userSpaceOnUse">
            <stop offset="0" stop-color="#5652cc" />
            <stop offset="1" stop-color="#423eaf" />
        </linearGradient>
        <linearGradient id="linear-gradient-39" x1="536.07" y1="303.98" x2="605.85" y2="303.98" xlink:href="#linear-gradient" />
        <linearGradient id="linear-gradient-40" x1="551.73" y1="295.92" x2="572.81" y2="295.92" gradientUnits="userSpaceOnUse">
            <stop offset="0" stop-color="#bdc1e4" />
            <stop offset="1" stop-color="#dee2f9" />
        </linearGradient>
        <linearGradient id="linear-gradient-41" x1="545.77" y1="311.45" x2="559.22" y2="311.45" gradientUnits="userSpaceOnUse">
            <stop offset="0" stop-color="#bdc1e4" />
            <stop offset="1" stop-color="#d0d4f6" />
        </linearGradient>
        <linearGradient id="linear-gradient-42" x1="-83.05" y1="310.87" x2="-76.42" y2="321.96" gradientTransform="translate(805.66 538.69) rotate(120)" gradientUnits="userSpaceOnUse">
            <stop offset="0" stop-color="#d0d4f6" />
            <stop offset="1" stop-color="#bdc1e4" />
        </linearGradient>
        <linearGradient id="linear-gradient-43" x1="579.28" y1="300.99" x2="588.45" y2="300.99" gradientUnits="userSpaceOnUse">
            <stop offset="0.4" stop-color="#bdc1e4" />
            <stop offset="1" stop-color="#d0d4f6" />
        </linearGradient>
        <linearGradient id="linear-gradient-44" x1="8.13" y1="337.84" x2="124.13" y2="337.84" gradientUnits="userSpaceOnUse">
            <stop offset="0.47" stop-color="#c2c7e3" />
            <stop offset="0.66" stop-color="#dde0ef" />
            <stop offset="0.87" stop-color="#f6f7fb" />
            <stop offset="1" stop-color="#fff" />
        </linearGradient>
        <linearGradient id="linear-gradient-45" x1="4.98" y1="349.79" x2="120.99" y2="349.79" gradientUnits="userSpaceOnUse">
            <stop offset="0.56" stop-color="#5652cc" />
            <stop offset="0.66" stop-color="#362e94" />
        </linearGradient>
        <linearGradient id="linear-gradient-46" x1="471.35" y1="71.81" x2="540.37" y2="2.79" gradientTransform="matrix(-1, 0, 0, 1, 1002.75, 0)" xlink:href="#linear-gradient-25" />
        <linearGradient id="linear-gradient-47" x1="480.63" y1="41.58" x2="480.63" y2="19.93" gradientUnits="userSpaceOnUse">
            <stop offset="0.03" />
            <stop offset="0.27" stop-color="#121132" />
            <stop offset="0.49" stop-color="#211f5a" />
            <stop offset="0.7" stop-color="#2b2977" />
            <stop offset="0.87" stop-color="#322f89" />
            <stop offset="1" stop-color="#34318f" />
        </linearGradient>
        <linearGradient id="linear-gradient-48" x1="486.26" y1="44.83" x2="486.26" y2="24.3" xlink:href="#linear-gradient-47" />
        <linearGradient id="linear-gradient-49" x1="491.89" y1="48.08" x2="491.89" y2="28.68" xlink:href="#linear-gradient-47" />
        <linearGradient id="linear-gradient-50" x1="497.52" y1="51.33" x2="497.52" y2="30.8" xlink:href="#linear-gradient-47" />
        <linearGradient id="linear-gradient-51" x1="503.14" y1="54.58" x2="503.14" y2="36.3" xlink:href="#linear-gradient-47" />
        <linearGradient id="linear-gradient-52" x1="508.85" y1="57.87" x2="508.85" y2="41.84" xlink:href="#linear-gradient-47" />
        <linearGradient id="linear-gradient-53" x1="514.47" y1="61.12" x2="514.47" y2="43.97" xlink:href="#linear-gradient-47" />
        <linearGradient id="linear-gradient-54" x1="399.43" y1="465.19" x2="455.13" y2="465.19" xlink:href="#linear-gradient" />
        <linearGradient id="linear-gradient-55" x1="382.79" y1="464.65" x2="382.79" y2="404.94" gradientUnits="userSpaceOnUse">
            <stop offset="0" stop-color="#bdc1e4" />
            <stop offset="1" stop-color="#fff" />
        </linearGradient>
    </defs>
    <g class="cls-1">
        <g id="Layer_2" data-name="Layer 2">
            <g id="Objects">
                <g id="Vertical_rectangles" data-name="Vertical rectangles">
                    <polygon class="cls-2" points="83.19 223.95 23.15 258.62 23.15 238.29 83.19 203.62 83.19 223.95" />
                    <polygon class="cls-2" points="104.03 185.02 54.53 213.6 54.53 196.84 104.03 168.26 104.03 185.02" />
                    <polygon class="cls-3" points="121.46 151.17 88.5 170.2 88.49 156.69 121.45 137.66 121.46 151.17" />
                    <polygon class="cls-4" points="134.72 181.37 88.42 208.1 88.42 200.6 134.72 173.87 134.72 181.37" />
                    <polygon class="cls-5" points="46.3 165.35 0 192.07 0 179.51 46.3 152.78 46.3 165.35" />
                    <polygon class="cls-6" points="73.75 192.89 75.89 191.66 75.89 194.13 73.75 195.36 73.75 192.89" />
                    <polygon class="cls-6" points="78.21 190.31 80.35 189.08 80.35 191.55 78.21 192.79 78.21 190.31" />
                    <polygon class="cls-6" points="82.67 187.74 84.81 186.5 84.81 188.98 82.67 190.21 82.67 187.74" />
                </g>
                <g id="Lines">
                    <line class="cls-7" x1="476.82" y1="372.75" x2="404.81" y2="414.33" />
                    <path class="cls-7" d="M399.92,433.9l66.33-38.3a11.34,11.34,0,0,1,11.35,0L500.81,409" />
                    <path class="cls-7" d="M26,487.93l66.34-38.3a11.32,11.32,0,0,1,11.34,0L126.88,463" />
                </g>
                <g id="Horizontal_pie_chart" data-name="Horizontal pie chart">
                    <path class="cls-3" d="M201.27,359.18l11,6.36c16.78-9.68,44-9.68,60.74,0s16.77,25.39,0,35.07-44,9.68-60.74,0l-11,6.36c22.86,13.2,59.92,13.2,82.78,0s22.86-34.59,0-47.79S224.13,346,201.27,359.18Z" />
                    <path class="cls-8" d="M212.29,365.54l-11-6.36c-22.85,13.2-22.85,34.6,0,47.79l11-6.36C195.52,390.93,195.52,375.23,212.29,365.54Z" />
                    <path class="cls-3" d="M228.53,383.3l1.69,1,6.6,9.9-2.69,1.56-6.34-9.54-5.32,3.07,2.3,1.33L222.43,392,218,389.39Z" />
                    <path
                        class="cls-3"
                        d="M244.58,381.38a7.69,7.69,0,0,1,4.41,1A3.62,3.62,0,0,1,250.6,384a2.08,2.08,0,0,1-.23,2,6.54,6.54,0,0,1-2.39,2,16,16,0,0,1-3.22,1.39,15.62,15.62,0,0,1-3.44.65l-.89-1.75a12.75,12.75,0,0,0,2.79-.48,11,11,0,0,0,2.54-1.05,3,3,0,0,0,1.55-1.53c.14-.51-.11-.95-.76-1.32a3.79,3.79,0,0,0-2.4-.44,9.71,9.71,0,0,0-3.35,1.32l-3.28,1.89L230.84,382l8-4.6,2.11,1.22L235.08,382l2.85,2,1.3-.75A12.36,12.36,0,0,1,244.58,381.38Z"
                    />
                    <path
                        class="cls-3"
                        d="M247.81,379.42a7.73,7.73,0,0,1-3.59-1q-1.66-1-1.8-2.07t1.32-1.95a6.21,6.21,0,0,1,3.37-.77,7.73,7.73,0,0,1,3.61,1c1.12.65,1.72,1.34,1.8,2.08s-.37,1.39-1.34,2A6.11,6.11,0,0,1,247.81,379.42Zm2.62-2.61c-.12-.41-.55-.83-1.3-1.26a5.54,5.54,0,0,0-2.18-.76,3,3,0,0,0-1.85.36c-.51.29-.7.64-.59,1.06a2.52,2.52,0,0,0,1.28,1.26,5.38,5.38,0,0,0,2.19.74,3,3,0,0,0,1.84-.33C250.35,377.57,250.56,377.21,250.43,376.81Zm1.58-7.07,1.9-1.09,4.3,13.17-1.9,1.1ZM263.1,378a7.82,7.82,0,0,1-3.59-1q-1.67-1-1.8-2.07t1.32-1.95a6.2,6.2,0,0,1,3.38-.77,7.7,7.7,0,0,1,3.59,1c1.11.64,1.71,1.33,1.79,2.07s-.36,1.4-1.32,2A6.22,6.22,0,0,1,263.1,378Zm2.6-2.62a2.53,2.53,0,0,0-1.29-1.25,5.31,5.31,0,0,0-2.18-.75,3,3,0,0,0-1.85.34c-.51.3-.71.66-.6,1.07s.55.83,1.3,1.26a5.5,5.5,0,0,0,2.19.75,3,3,0,0,0,1.84-.35C265.63,376.13,265.82,375.78,265.7,375.36Z"
                    />
                </g>
                <g id="Axis">
                    <polygon class="cls-9" points="191.5 303.3 195.38 301.06 203.64 305.83 199.76 308.07 191.5 303.3" />
                    <polygon class="cls-9" points="171.74 314.71 175.62 312.47 183.88 317.24 180 319.48 171.74 314.71" />
                    <polygon class="cls-9" points="151.98 326.12 155.86 323.88 164.12 328.65 160.24 330.89 151.98 326.12" />
                </g>
                <g id="Wave_charts_Main_" data-name="Wave charts(Main)">
                    <path class="cls-10" d="M461.13,409.74l-105.75.2,56.31,32.51-133.33,77h8.69c37.07-16.5,157.36-35,186-51.53l44.42-25.65Z" />
                    <path class="cls-9" d="M129.12,331.8V281.74l54.4-31.41c22.23-12.83,35.2-35.57,47.74-57.56,13.11-23,25.49-44.69,48.54-58,16.5-9.52,28.88-7.82,40.85-6.17,11,1.51,21.34,2.94,33.9-4.31L395,100.92v77.36Z" />
                    <path
                        class="cls-11"
                        d="M354.55,119.33c-24.49,14.14-41.76-8.56-74.75,10.48C231.66,157.6,225.75,221,183.52,245.37l-54.4,31.41v5l54.4-31.41c22.23-12.83,35.2-35.57,47.74-57.56,13.11-23,25.49-44.69,48.54-58,16.5-9.52,28.88-7.82,40.85-6.17,11,1.51,21.34,2.94,33.9-4.31L395,100.92V96Z"
                    />
                    <polygon class="cls-12" points="72.81 249.23 129.12 281.74 129.12 331.8 72.81 299.29 72.81 249.23" />
                    <polygon class="cls-13" points="72.81 244.27 129.12 276.78 129.12 281.74 72.81 249.23 72.81 244.27" />
                    <path
                        class="cls-14"
                        d="M183.52,245.37c25.48-14.71,37.74-43.61,54-70.33v0c10.7-17.56,23.15-34.17,42.23-45.19,33-19,50.26,3.66,74.75-10.48L395,96,338.71,63.45,298.24,86.82C273.75,101,256.48,78.26,223.5,97.3c-48.14,27.8-54.06,91.18-96.28,115.56L72.81,244.27l56.31,32.51Z"
                    />
                    <path class="cls-15" d="M597,138.6H463.74l56.31,32.51L254.16,324.63h88.66c25.31-23.4-30.81-23.45,19.54-52.51,59.06-34.1,169.35-30.8,211.27-55l79.69-46Z" />
                    <path class="cls-9" d="M254.16,324.63v-41c16.14-5.66,25.24-3.33,34.82-.88,12.86,3.3,26.16,6.71,55.89-10.46C379,252.56,392.82,223.51,405,197.87c9.59-20.11,17.87-37.48,34.85-47.29l80.16-46.28v66.81Z" />
                    <path
                        class="cls-16"
                        d="M439.89,145.62c-41.81,24.14-36.11,87.66-95,121.67-50.21,29-50.3-3.32-90.71,11.25v5c16.14-5.66,25.24-3.33,34.82-.88,12.86,3.3,26.16,6.71,55.89-10.46C379,252.56,392.82,223.51,405,197.87c9.59-20.11,17.87-37.48,34.85-47.29l80.16-46.28v-5Z"
                    />
                    <polygon class="cls-12" points="197.85 250.99 254.16 283.5 254.16 324.63 197.85 292.12 197.85 250.99" />
                    <polygon class="cls-17" points="197.85 246.03 254.16 278.54 254.16 283.5 197.85 250.99 197.85 246.03" />
                    <path
                        class="cls-18"
                        d="M344.87,267.29c58.91-34,53.21-97.53,95-121.67l80.16-46.28L463.74,66.83l-80.16,46.28c-41.8,24.14-36.11,87.66-95,121.67-50.21,29-50.3-3.32-90.71,11.25l56.31,32.51C294.57,264,294.66,296.28,344.87,267.29Z"
                    />
                    <path class="cls-9" d="M143.26,532.41c9.15-7,18.61-19.3,28.56-32.21C185.1,483,200.15,463.41,216.45,454s31.36-7.24,44.64-5.33c9.94,1.43,19.41,2.79,28.56-.77Z" />
                    <path
                        class="cls-19"
                        d="M216.45,449c-29.54,17-53.34,62.54-73.19,78.33v5c9.15-7,18.61-19.3,28.56-32.21C185.1,483,200.15,463.41,216.45,454s31.36-7.24,44.64-5.33c9.94,1.43,19.41,2.79,28.56-.77v-5C269.8,450,246,432,216.45,449Z"
                    />
                    <polygon class="cls-20" points="86.95 494.94 143.26 527.45 143.26 532.41 86.95 499.9 86.95 494.94" />
                    <path class="cls-21" d="M143.26,527.37c19.85-15.79,43.65-61.28,73.19-78.33s53.35.95,73.2-6.19l-56.31-32.43c-19.85,7.13-43.65-10.87-73.19,6.18S106.8,479.15,87,494.94l56.31,32.51Z" />
                    <path class="cls-9" d="M278.36,519.43c14.82-10.81,30-32.92,44.64-54.35,15.14-22.1,30.8-44.95,44.39-52.79l44.3-25.58v55.74Z" />
                    <path class="cls-11" d="M367.39,407.33c-28.54,16.47-60.53,85.75-89,107.09v5c14.82-10.81,30-32.92,44.64-54.35,15.14-22.1,30.8-44.95,44.39-52.79l44.3-25.58v-5Z" />
                    <polygon class="cls-13" points="222.05 481.96 278.36 514.47 278.36 519.43 222.05 486.92 222.05 481.96" />
                    <path class="cls-22" d="M278.36,514.42c28.5-21.34,60.49-90.62,89-107.09l44.3-25.58-56.31-32.47-44.3,25.58c-27.33,15.78-57.82,80-85.39,104.13l-3.64,3,56.31,32.51Z" />
                    <path class="cls-23" d="M225.69,479l-3.64,3,27.28,15.75c6.25-6.25,15.38-34.33,6.52-55.58h0C245.61,456.82,235.47,470.42,225.69,479Z" />
                    <g class="cls-24"><path class="cls-25" d="M197.85,292.12h0L129.12,331.8H224.4l21.09-12.18Z" /></g>
                    <polygon class="cls-23" points="245.49 319.62 204.6 249.93 197.85 246.03 197.85 292.12 245.49 319.62" />
                    <path class="cls-26" d="M222.05,486.92l-78.79,45.49h8.89c19.41-8.14,64.66-17.35,99.95-28.14Z" />
                    <polygon class="cls-23" points="252.1 504.27 249.33 497.71 222.05 481.96 222.05 486.92 252.1 504.27" />
                    <path
                        class="cls-27"
                        d="M387.65,117l18.45-10.66-5.35-3.09L395,106.51l-11.44,6.6c-41.8,24.14-36.11,87.66-95,121.67-50.21,29-50.3-3.32-90.71,11.25l6.75,3.9s2.89-1.06,6.14-2.06c10.5-2.06,58.59,14,80,29.18,12.93,3.31,25.23,6.93,54.13-9.76,27.82-16.06,41.23-38.7,52-60.67h0C391.08,190.62,374.86,124.33,387.65,117Z"
                    />
                </g>
                <g id="Little_block" data-name="Little block">
                    <polygon class="cls-28" points="146.18 253.69 129.12 253.69 139.95 259.94 129.12 266.19 146.18 266.19 157.01 259.94 146.18 253.69" />
                    <polygon class="cls-29" points="129.12 266.19 139.95 259.94 139.95 247.25 129.12 253.5 129.12 266.19" />
                    <polygon class="cls-30" points="129.12 266.19 118.29 259.94 118.29 247.25 129.12 253.5 129.12 266.19" />
                    <polygon class="cls-31" points="129.12 253.5 118.29 247.25 129.12 241 139.95 247.25 129.12 253.5" />
                </g>
                <g id="Bar_graph" data-name="Bar graph">
                    <polygon class="cls-32" points="469.4 272 409.49 272 429.89 283.78 409.49 295.56 469.4 295.56 489.81 283.78 469.4 272" />
                    <polygon class="cls-33" points="439.53 287.18 383.06 287.18 403.46 298.96 383.06 310.74 439.53 310.74 459.93 298.96 439.53 287.18" />
                    <polygon class="cls-34" points="406.98 302.37 356.63 302.37 377.03 314.15 356.63 325.93 406.98 325.93 427.38 314.15 406.98 302.37" />
                    <polygon class="cls-35" points="495.84 256.81 435.92 256.81 456.32 268.59 435.92 280.37 495.84 280.37 516.24 268.59 495.84 256.81" />
                    <polygon class="cls-36" points="415.51 211.87 435.92 223.64 435.92 280.37 415.51 268.59 415.51 211.87" />
                    <polygon class="cls-37" points="456.32 211.87 435.92 223.64 435.92 280.37 456.32 268.59 456.32 211.87" />
                    <polygon class="cls-38" points="435.92 200.09 415.51 211.87 435.92 223.64 456.32 211.87 435.92 200.09" />
                    <polygon class="cls-39" points="415.51 211.87 435.92 223.65 435.92 246.56 415.51 234.78 415.51 211.87" />
                    <polygon class="cls-19" points="456.32 211.87 435.92 223.65 435.92 246.56 456.32 234.78 456.32 211.87" />
                    <polygon class="cls-5" points="435.92 200.08 415.51 211.87 435.92 223.65 456.32 211.87 435.92 200.08" />
                    <polygon class="cls-36" points="389.08 237.37 409.49 249.15 409.49 295.56 389.08 283.77 389.08 237.37" />
                    <polygon class="cls-37" points="429.89 237.37 409.49 249.15 409.49 295.56 429.89 283.77 429.89 237.37" />
                    <polygon class="cls-38" points="409.49 225.59 389.08 237.37 409.49 249.15 429.89 237.37 409.49 225.59" />
                    <polygon class="cls-39" points="389.08 237.37 409.49 249.15 409.49 261.91 389.08 250.13 389.08 237.37" />
                    <polygon class="cls-19" points="429.89 237.37 409.49 249.15 409.49 261.91 429.89 250.13 429.89 237.37" />
                    <polygon class="cls-5" points="409.49 225.59 389.08 237.37 409.49 249.15 429.89 237.37 409.49 225.59" />
                    <polygon class="cls-40" points="362.65 225.46 383.06 237.24 383.06 310.74 362.65 298.96 362.65 225.46" />
                    <polygon class="cls-41" points="403.46 225.57 383.06 237.35 383.06 310.74 403.46 298.96 403.46 225.57" />
                    <polygon class="cls-42" points="383.06 213.91 362.65 225.69 383.06 237.47 403.46 225.69 383.06 213.91" />
                    <polygon class="cls-36" points="336.22 289.61 356.63 301.39 356.63 325.93 336.22 314.15 336.22 289.61" />
                    <polygon class="cls-37" points="377.03 289.61 356.63 301.39 356.63 325.93 377.03 314.15 377.03 289.61" />
                    <polygon class="cls-38" points="356.63 277.83 336.22 289.61 356.63 301.39 377.03 289.61 356.63 277.83" />
                    <polygon class="cls-23" points="346.83 320.27 336.22 306.62 336.22 314.15 346.83 320.27" />
                </g>
                <g id="Coin">
                    <path
                        class="cls-43"
                        d="M401.14,499.5c-5.2-3-12.11-4.38-18.9-4.18H371.6v1.74A28.41,28.41,0,0,0,366,499.5c-9.68,5.63-9.62,14.75.12,20.38a28,28,0,0,0,5.52,2.39v1.82h12.76c6.14-.1,12.23-1.49,16.9-4.21C410.94,514.25,410.89,505.13,401.14,499.5Z"
                    />
                    <path class="cls-44" d="M348.34,503.09c0-3.61,2.38-7.2,7.13-9.95s11-4.12,17.23-4.12,12.47,1.37,17.23,4.12,7.14,6.34,7.14,9.94-2.38,7.2-7.14,9.95-11,4.12-17.23,4.12-12.47-1.37-17.22-4.12S348.34,506.68,348.34,503.09Z" />
                    <path
                        class="cls-45"
                        d="M389.93,513c-4.76,2.75-11,4.12-17.23,4.12s-12.47-1.37-17.22-4.12-7.14-6.35-7.14-9.94V510c0,3.6,2.38,7.2,7.14,9.94s11,4.12,17.22,4.12,12.47-1.37,17.23-4.12,7.14-6.34,7.14-9.94v-6.95C397.07,506.68,394.69,510.28,389.93,513Z"
                    />
                    <path class="cls-46" d="M358.71,511.16a30.89,30.89,0,0,0,28,0c3.57-2.05,5.49-4.7,5.76-7.4-.27-2.69-2.19-5.34-5.76-7.4a30.89,30.89,0,0,0-28,0c-3.56,2.06-5.48,4.71-5.76,7.4C353.23,506.46,355.15,509.1,358.71,511.16Z" />
                    <path
                        class="cls-47"
                        d="M358.71,496.36a30.89,30.89,0,0,1,28,0c3.57,2.06,5.49,4.71,5.76,7.4,0-.22,0-.45,0-.68,0-2.92-1.93-5.84-5.8-8.07a30.89,30.89,0,0,0-28,0c-3.86,2.23-5.79,5.15-5.79,8.08,0,.22,0,.44,0,.67C353.23,501.07,355.15,498.42,358.71,496.36Z"
                    />
                    <polygon class="cls-48" points="382.45 500.18 384.32 499.1 384.32 497.74 382.45 498.82 382.45 500.18" />
                    <path
                        class="cls-44"
                        d="M373.82,502.44a1.59,1.59,0,0,1,0-3,5.78,5.78,0,0,1,5.22,0c1.44.84,1.44,2.19,0,3l2.38,1.37c2.33-1.35,2.68-3.42,1-5l1.87-1.08L382,496.37l-1.87,1.09a11.14,11.14,0,0,0-8.63.6,3,3,0,0,0,0,5.75c1.44.83,1.44,2.19,0,3a5.8,5.8,0,0,1-5.23,0c-1.44-.83-1.44-2.19,0-3l-2.37-1.37c-2.34,1.35-2.68,3.42-1,5l-1.72,1,2.37,1.37,1.72-1a11.21,11.21,0,0,0,8.64-.59C376.56,506.61,376.56,504,373.82,502.44Z"
                    />
                    <polygon class="cls-4" points="361.08 509.78 363.46 511.15 363.46 509.79 361.08 508.42 361.08 509.78" />
                    <polygon class="cls-48" points="363.46 511.15 365.18 510.15 365.18 508.79 363.46 509.79 363.46 511.15" />
                    <polygon class="cls-4" points="379.04 503.79 381.42 505.17 381.42 503.81 379.04 502.44 379.04 503.79" />
                    <path class="cls-48" d="M366.22,505.16v-1.35c-1,.59-1.31,1.44-.89,2.19A2.42,2.42,0,0,1,366.22,505.16Z" />
                    <path class="cls-4" d="M361.79,505.25v1.53h0a2.81,2.81,0,0,0,.29,1.07l.72-.41a2.9,2.9,0,0,1-1-2.18Z" />
                    <path class="cls-17" d="M371.45,505.16a2.5,2.5,0,0,1,.89.84c.42-.75.13-1.6-.89-2.19a3.51,3.51,0,0,1-2.07-2.88v1.36A3.51,3.51,0,0,0,371.45,505.16Z" />
                    <path class="cls-49" d="M375.88,505.31v0h0Z" />
                    <path class="cls-48" d="M383.47,500.93a3.49,3.49,0,0,1-2.05,2.88v1.35a3.41,3.41,0,0,0,2-3h0v-1.28Z" />
                    <path class="cls-50" d="M373.82,508.2a11.21,11.21,0,0,1-8.64.59v1.36a11.21,11.21,0,0,0,8.64-.6,3.54,3.54,0,0,0,2.06-2.85h0v-1.37A3.5,3.5,0,0,1,373.82,508.2Z" />
                    <path class="cls-51" d="M379,499.42a5.78,5.78,0,0,0-5.22,0,1.85,1.85,0,0,0-1.09,1.51,1.31,1.31,0,0,0,.2.68,2.4,2.4,0,0,1,.89-.83,5.78,5.78,0,0,1,5.22,0,2.4,2.4,0,0,1,.89.83C380.36,500.87,380.06,500,379,499.42Z" />
                </g>
                <g id="Little_cylinders" data-name="Little cylinders">
                    <path
                        class="cls-52"
                        d="M508.11,360.09A25.46,25.46,0,0,0,495,357.18h-9.44v1.21a19.74,19.74,0,0,0-3.91,1.7c-6.74,3.92-6.7,10.26.08,14.18a20,20,0,0,0,3.83,1.66v1.27h10.91a24.65,24.65,0,0,0,11.76-2.93C514.92,370.35,514.89,364,508.11,360.09Z"
                    />
                    <path class="cls-53" d="M474.19,374.26c-3.41-2-5.12-4.55-5.11-7.14v-6.85c0,2.59,1.7,5.17,5.11,7.14,6.78,3.92,17.74,3.92,24.47,0,3.35-1.94,5-4.49,5-7v6.85c0,2.55-1.68,5.1-5,7C491.92,378.18,481,378.18,474.19,374.26Z" />
                    <path class="cls-31" d="M474.2,367.41c-6.78-3.91-6.82-10.26-.08-14.17s17.7-3.92,24.47,0,6.82,10.26.08,14.17S481,371.33,474.2,367.41Z" />
                    <polygon class="cls-29" points="493.33 363.28 488.11 360.27 493.33 357.26 491.61 356.27 486.4 359.28 481.18 356.27 479.47 357.26 484.68 360.27 479.47 363.28 481.18 364.27 486.4 361.26 491.61 364.27 493.33 363.28" />
                    <path
                        class="cls-54"
                        d="M524.6,409a17.85,17.85,0,0,0-9.21-2H508.8v.84a14.26,14.26,0,0,0-2.75,1.19c-4.71,2.74-4.68,7.18.06,9.92a13.56,13.56,0,0,0,2.69,1.16V421h7.63a17.25,17.25,0,0,0,8.22-2.05C529.36,416.18,529.34,411.74,524.6,409Z"
                    />
                    <path
                        class="cls-55"
                        d="M500.86,418.91c-2.38-1.37-3.58-3.18-3.57-5v-4.79c0,1.8,1.19,3.61,3.57,5,4.75,2.74,12.41,2.74,17.12,0,2.35-1.36,3.52-3.14,3.52-4.92V414c0,1.78-1.17,3.56-3.51,4.93C513.27,421.65,505.61,421.65,500.86,418.91Z"
                    />
                    <path class="cls-31" d="M500.87,414.12c-4.74-2.74-4.77-7.18-.05-9.92s12.38-2.73,17.12,0,4.77,7.18,0,9.92S505.62,416.86,500.87,414.12Z" />
                    <path
                        class="cls-56"
                        d="M46.69,479.76a17.89,17.89,0,0,0-9.2-2h-6.6v.85a13.83,13.83,0,0,0-2.74,1.19c-4.71,2.74-4.68,7.18.06,9.92a14.08,14.08,0,0,0,2.68,1.16v.89h7.64a17.28,17.28,0,0,0,8.22-2.05C51.46,486.94,51.44,482.5,46.69,479.76Z"
                    />
                    <path
                        class="cls-57"
                        d="M23,489.67c-2.39-1.38-3.58-3.18-3.57-5v-4.79c0,1.8,1.18,3.61,3.57,5,4.75,2.74,12.41,2.74,17.12,0,2.34-1.36,3.52-3.14,3.52-4.92v4.79c0,1.78-1.18,3.56-3.52,4.92C35.37,492.41,27.7,492.41,23,489.67Z"
                    />
                    <path class="cls-31" d="M23,484.88c-4.74-2.74-4.77-7.18-.06-9.92s12.38-2.74,17.13,0,4.76,7.18.05,9.92S27.72,487.62,23,484.88Z" />
                </g>
                <g id="Cloud">
                    <path
                        class="cls-58" style="animation: trans1 2s linear infinite alternate;"
                        d="M177.74,30.13l-6.41,3.7c-3.74,2.16-8.9-9.64-13.09-7.22L147,33.1c-8.38,4.83-5.36-9.25-17.89-2-14.73,8.51-13.52,25.57-21.9,30.41L96,68c-4.19,2.42-5.34,12.43-9.08,14.59l-6.41,3.7c-1.4.81-4.06,3-4.06,6l52.68-30.41,52.69-30.42C181.81,28.47,179.14,29.32,177.74,30.13Z"
                    />
                </g>
                <g id="Marker">
                    <polygon class="cls-59" points="188.3 404.94 202.45 413.11 188.3 421.28 174.15 413.11 188.3 404.94" />
                    <polygon class="cls-4" points="188.3 421.28 188.3 428.87 174.15 413.11 188.3 421.28" />
                    <polygon class="cls-16" points="188.3 428.87 202.45 413.11 188.3 421.28 188.3 428.87" />
                    <polygon class="cls-60" points="188.3 428.87 215.6 420.7 201.44 428.87 188.3 428.87" />
                </g>
                <path class="cls-61" d="M483.88,154.31c-2-.66-4,2-4.09,4.28a8,8,0,0,0,1.33,2.26s4.46,5.36,5.69,6.14,4.33,1.81,5.72-.25c.49-1.46-.43-2.42-1.38-4-1.24-2-2-4.38-3-5.86C487.24,155.68,483.88,154.31,483.88,154.31Z" />
                <path
                    class="cls-62"
                    d="M487.08,166.38c-1.26-.8-5.86-6.31-5.86-6.31a8.45,8.45,0,0,1-1.33-2.25,4.06,4.06,0,0,0-.1.77,8,8,0,0,0,1.33,2.26s4.46,5.36,5.69,6.14,4.33,1.81,5.72-.25a.75.75,0,0,0,0-.16C491,168.07,488.24,167.12,487.08,166.38Z"
                />
                <path class="cls-6" d="M488.79,154.44a35,35,0,0,0-4.62-.61,2,2,0,0,1-.59.77l-.13.08c-.82.24-1.89.87-.51,2.26,2.68,2.71,6.56,2,5.68.62C488,156.62,488.54,155.18,488.79,154.44Z" />
                <path
                    class="cls-63"
                    d="M493,123a8,8,0,0,0-2.52-4.93c-7.43-6.32-25.3-13.25-33.81-20.48-2.4,1.5-5.64,4.41-8.05,5.91-3.24,13.65,23.47,17.61,34.24,22.2-2.05,9.2-.55,21.18-.44,29.53.74,1.83,4.48,3.16,6.5,1.52C490.23,147.13,492.39,133.91,493,123Z"
                />
                <path class="cls-64" d="M473.74,161.93c-2-.67-4,2-4.09,4.27a7.63,7.63,0,0,0,1.33,2.26s4.46,5.37,5.69,6.15,4.33,1.81,5.72-.26c.49-1.46-.44-2.42-1.39-4-1.23-2-1.95-4.39-3-5.87C477.1,163.3,473.74,161.93,473.74,161.93Z" />
                <path
                    class="cls-62"
                    d="M476.94,174c-1.27-.8-5.86-6.32-5.86-6.32a8.73,8.73,0,0,1-1.34-2.24,4.92,4.92,0,0,0-.09.76,7.63,7.63,0,0,0,1.33,2.26s4.46,5.37,5.69,6.15,4.33,1.81,5.72-.26c0,0,0-.1,0-.15C480.87,175.68,478.09,174.74,476.94,174Z"
                />
                <path class="cls-6" d="M478.64,162.05a36.11,36.11,0,0,0-4.61-.6,1.89,1.89,0,0,1-.6.76l-.13.09c-.82.24-1.88.86-.5,2.26,2.68,2.71,6.55,2,5.68.61C477.88,164.24,478.39,162.79,478.64,162.05Z" />
                <path
                    class="cls-65"
                    d="M482.85,130.57a8,8,0,0,0-2.52-4.94c-7.43-6.32-23.44-16.95-31.95-24.19-2.41,1.51-5.65,4.41-8.05,5.92-3.24,13.65,21.61,20.34,32.38,25.9-2,9.2-.55,21.19-.44,29.54.74,1.82,4.48,3.15,6.49,1.52C480.09,154.74,482.25,141.52,482.85,130.57Z"
                />
                <path class="cls-66" d="M440.08,68.52c2.37-3,8.17-7.09,12-7.37,6.47-.47,11.59,4.87,12.91,9.33,1.24,4.21-.23,27.35,1.16,33.06-.69,3-5.17,4.65-7.27,5.11-9.13,2-17.57,4-19.23-1.53C436.69,97.27,436.67,71.92,440.08,68.52Z" />
                <path class="cls-67" d="M451.24,52.57c-.24-2.09,7,2.17,6.71,4.94-.24,2.25-.89,4.23,1.38,5.64.79.63,3.42,4.41-.66,5.05-4.76.74-9.47-3.17-11.74-5.21C449.47,61.55,452,59.36,451.24,52.57Z" />
                <path class="cls-67" d="M449.53,51.33l2.94-4.14h12.81v6.42c0,5.34-2.87,9-6.4,9a7,7,0,0,1-6.79-6.91l-1.55-.54Z" />
                <path class="cls-68" d="M458.58,64.67c-3.06,0-6.85-4.92-6.49-9a7.39,7.39,0,0,0,6.53,6.91,5.67,5.67,0,0,0,.71.55,1.39,1.39,0,0,1,.22.21C459.55,64,459.14,64.67,458.58,64.67Z" />
                <path class="cls-69" d="M462.7,50.39c4.69,2.58,11.75-.91,4.64-5.3-6.61-4.07-11.8-5.08-15.55-.58-5.64,6.79-1.64,15.31-1.19,14.71,1.47-2,0-4.91,2.47-5.52-.15-1.4.14-4.59,1.25-2.28s2-.91,2.54-2.19S459,48.38,462.7,50.39Z" />
                <g id="Vertical_pie_chart" data-name="Vertical pie chart">
                    <path class="cls-6" d="M260.83,187.59v13l-2.1,1.21v-11l-2.39,1.38v-2Z" />
                    <path
                        class="cls-6"
                        d="M270.14,188.34c.77.27,1.15,1,1.15,2.26a6.5,6.5,0,0,1-.5,2.41,8.17,8.17,0,0,1-1.5,2.38,9.82,9.82,0,0,1-2.47,2,8.35,8.35,0,0,1-2.34.95,3.5,3.5,0,0,1-1.91,0l.89-2.39A2.88,2.88,0,0,0,265,196a5.85,5.85,0,0,0,1.82-.71,5.5,5.5,0,0,0,1.75-1.54,3.18,3.18,0,0,0,.64-1.83c0-.67-.23-1-.69-1.12a4.32,4.32,0,0,0-2.35.84l-2.73,1.58.58-7.44,6.64-3.83v2l-4.86,2.8-.24,3.16,1.08-.62C268.2,188.39,269.38,188.07,270.14,188.34Z"
                    />
                    <path
                        class="cls-6"
                        d="M286.58,176.8c.63.36.95,1.27.95,2.72v5.71l-2,1.16V181c0-.87-.17-1.43-.5-1.68s-.81-.19-1.44.17a4.34,4.34,0,0,0-1.63,1.71,5.28,5.28,0,0,0-.61,2.57v5.05l-2,1.16v-5.4c0-.87-.16-1.43-.5-1.68s-.81-.19-1.43.17a4.17,4.17,0,0,0-1.64,1.71,5.18,5.18,0,0,0-.61,2.56v5l-2,1.17v-10l1.92-1.11v1.27a7.51,7.51,0,0,1,1.22-1.73,7.36,7.36,0,0,1,1.61-1.29,3.73,3.73,0,0,1,1.72-.57,1.37,1.37,0,0,1,1.18.56,8.82,8.82,0,0,1,1.38-2A8,8,0,0,1,284,177.2C285.08,176.58,285.94,176.44,286.58,176.8Z"
                    />
                    <path
                        class="cls-6"
                        d="M301.87,175.82a9.58,9.58,0,0,1-2.78,2.88v2.09l-1.33.77v-2.07a9.18,9.18,0,0,1-2.26.8,2.9,2.9,0,0,1-1.69-.07l.72-2.3a3.11,3.11,0,0,0,1.46.1,5.54,5.54,0,0,0,1.77-.55v-3.72a9.34,9.34,0,0,1-1.91.4,1.66,1.66,0,0,1-1.28-.38,2.07,2.07,0,0,1-.52-1.65A6.21,6.21,0,0,1,295,169a9.34,9.34,0,0,1,2.76-2.86V164l1.33-.77v2.07a8,8,0,0,1,1.76-.67,3.79,3.79,0,0,1,1.51-.08l-.66,2.26a5.27,5.27,0,0,0-2.61.5v3.77a9.93,9.93,0,0,1,1.92-.43,1.74,1.74,0,0,1,1.3.37,2.1,2.1,0,0,1,.52,1.64A6.07,6.07,0,0,1,301.87,175.82Zm-5.32-4.26a2.48,2.48,0,0,0,1.21-.07v-3.32a4.61,4.61,0,0,0-1.22,1.31,2.6,2.6,0,0,0-.41,1.33Q296.13,171.43,296.55,171.56Zm3.8,3.8a2.39,2.39,0,0,0,.41-1.3c0-.42-.14-.67-.43-.76a2.48,2.48,0,0,0-1.24.07v3.3A4.8,4.8,0,0,0,300.35,175.36Z"
                    />
                    <path
                        class="cls-6"
                        d="M272.39,206a2.26,2.26,0,0,1,.47,1.58,5.7,5.7,0,0,1-.57,2.42,8.36,8.36,0,0,1-1.62,2.31,10.92,10.92,0,0,1-2.44,1.88,6.78,6.78,0,0,1-2.43.93,1.83,1.83,0,0,1-1.6-.45,2.37,2.37,0,0,1-.57-1.76,5.28,5.28,0,0,1,.47-2.12,7.52,7.52,0,0,1,1.34-2,1.32,1.32,0,0,1-1-.53,2.33,2.33,0,0,1-.37-1.4,5.19,5.19,0,0,1,.53-2.22,8,8,0,0,1,1.48-2.13,9.76,9.76,0,0,1,2.19-1.71,6,6,0,0,1,2.21-.83,1.77,1.77,0,0,1,1.49.41,2.17,2.17,0,0,1,.53,1.61,4.7,4.7,0,0,1-.37,1.82,6.76,6.76,0,0,1-1.07,1.75A1.66,1.66,0,0,1,272.39,206Zm-2.32,4.67a3.34,3.34,0,0,0,.68-1.94c0-.65-.23-1-.68-1.14a2.69,2.69,0,0,0-1.84.51,5.51,5.51,0,0,0-1.82,1.61,3.3,3.3,0,0,0-.66,1.91c0,.66.22,1.05.66,1.16a2.55,2.55,0,0,0,1.82-.49A5.73,5.73,0,0,0,270.07,210.68Zm-3.4-6.61a2.89,2.89,0,0,0-.57,1.69c0,.56.19.89.57,1a2.14,2.14,0,0,0,1.56-.41,4.7,4.7,0,0,0,1.58-1.4,2.89,2.89,0,0,0,.58-1.67c0-.59-.19-.93-.58-1a2.26,2.26,0,0,0-1.58.42A4.9,4.9,0,0,0,266.67,204.07Z"
                    />
                    <path
                        class="cls-6"
                        d="M281.42,200a2.24,2.24,0,0,1,.82,2,6.11,6.11,0,0,1-.5,2.36,8,8,0,0,1-1.51,2.35,9.69,9.69,0,0,1-2.46,2,8.3,8.3,0,0,1-2.33.95,3.71,3.71,0,0,1-1.91,0l.9-2.4a2.7,2.7,0,0,0,1.49.08,5.62,5.62,0,0,0,1.82-.71,5.39,5.39,0,0,0,1.75-1.54,3.07,3.07,0,0,0,.64-1.81c0-.61-.2-1-.61-1.08a2.78,2.78,0,0,0-1.85.56l-1,.59v-1.65l2.57-5-5.14,3v-2l7.7-4.44v1.62L279,200.12A2.54,2.54,0,0,1,281.42,200Z"
                    />
                    <path
                        class="cls-6"
                        d="M284,197.89a2.55,2.55,0,0,1-.74-2.16,6.34,6.34,0,0,1,.74-3,5.09,5.09,0,0,1,2-2.12,1.74,1.74,0,0,1,2-.15,2.55,2.55,0,0,1,.75,2.17,6.36,6.36,0,0,1-.75,3,5.09,5.09,0,0,1-2,2.11A1.69,1.69,0,0,1,284,197.89Zm3-2.63a4.62,4.62,0,0,0,.36-1.89,2.21,2.21,0,0,0-.36-1.47c-.25-.25-.59-.26-1,0a2.51,2.51,0,0,0-1,1.19,4.51,4.51,0,0,0-.38,1.88,2.09,2.09,0,0,0,.38,1.45c.25.26.59.27,1,0A2.58,2.58,0,0,0,287,195.26Zm5.75-8.45,1.58-.91-7.71,17.5-1.59.91Zm-1.32,12.95a2.56,2.56,0,0,1-.75-2.16,6.37,6.37,0,0,1,.75-3,5,5,0,0,1,1.95-2.11,1.71,1.71,0,0,1,2-.15,2.56,2.56,0,0,1,.75,2.16,6.34,6.34,0,0,1-.75,3,5.06,5.06,0,0,1-2,2.12C292.57,200.09,291.92,200.14,291.43,199.76Zm3-2.63a4.68,4.68,0,0,0,.37-1.89,2.18,2.18,0,0,0-.37-1.45c-.25-.26-.59-.27-1,0a2.57,2.57,0,0,0-1,1.19,4.46,4.46,0,0,0-.37,1.89,2.1,2.1,0,0,0,.37,1.46c.25.26.59.26,1,0A2.57,2.57,0,0,0,294.4,197.13Z"
                    />
                    <path class="cls-70" d="M279.8,147.51v5c12.6-7.27,23.46-5,28.51,4.41l3.88-4.35C306.45,141.82,294.11,139.25,279.8,147.51Z" />
                    <path
                        class="cls-71"
                        d="M312.19,152.52l-3.88,4.35a29.08,29.08,0,0,1,3,13.79c0,20.09-14.11,44.53-31.52,54.58s-31.51,1.9-31.51-18.19,14.11-44.54,31.51-54.59v-5C260,158.93,244,186.69,244,209.52s16,32.08,35.79,20.67,35.8-39.18,35.8-62C315.6,161.87,314.37,156.61,312.19,152.52Z"
                    />
                    <polygon class="cls-13" points="332.98 155 321.95 161.37 321.95 157.17 332.98 150.81 332.98 155" />
                    <polygon class="cls-13" points="330.51 163.24 321.6 168.38 321.6 164.99 330.51 159.85 330.51 163.24" />
                </g>
                <g id="Cylinder_graph" data-name="Cylinder graph">
                    <path class="cls-72" d="M208.15,549.07a16.14,16.14,0,0,0-7.92-1.9H174.56v12.94h25.67a16.25,16.25,0,0,0,7.92-1.9c2.18-1.26,3.28-2.92,3.28-4.57S210.33,550.33,208.15,549.07Z" />
                    <path class="cls-73" d="M308.16,516.94a16.24,16.24,0,0,0-7.92-1.89h-70V528h70a16.24,16.24,0,0,0,7.92-1.89c2.19-1.27,3.28-2.92,3.28-4.58S310.35,518.2,308.16,516.94Z" />
                    <path class="cls-74" d="M254.68,533a16.22,16.22,0,0,0-7.92-1.89H202.39V544h44.37a16.22,16.22,0,0,0,7.92-1.89c2.19-1.27,3.28-2.92,3.28-4.57S256.87,534.27,254.68,533Z" />
                    <path class="cls-75" d="M218.36,473.54v48c0,1.66,1.09,3.31,3.28,4.58a17.54,17.54,0,0,0,15.84,0c2.19-1.27,3.28-2.92,3.28-4.58v-48Z" />
                    <path class="cls-59" d="M221.64,469a17.48,17.48,0,0,1,15.84,0c2.19,1.26,3.28,2.92,3.28,4.57s-1.09,3.31-3.28,4.57a17.48,17.48,0,0,1-15.84,0c-2.19-1.26-3.28-2.91-3.28-4.57S219.45,470.23,221.64,469Z" />
                    <path class="cls-76" d="M190.53,507.57v30c0,1.65,1.1,3.3,3.28,4.57a17.56,17.56,0,0,0,15.85,0c2.18-1.27,3.28-2.92,3.28-4.57v-30Z" />
                    <path class="cls-6" d="M193.81,503a17.5,17.5,0,0,1,15.85,0c2.18,1.26,3.28,2.92,3.28,4.57s-1.1,3.31-3.28,4.58a17.56,17.56,0,0,1-15.85,0c-2.18-1.27-3.28-2.92-3.28-4.58S191.63,504.26,193.81,503Z" />
                    <path class="cls-77" d="M162.71,538.1v15.54c0,1.65,1.09,3.31,3.28,4.57a17.48,17.48,0,0,0,15.84,0c2.19-1.26,3.28-2.92,3.28-4.57V538.1Z" />
                    <path class="cls-78" d="M166,533.52a17.54,17.54,0,0,1,15.84,0c2.19,1.27,3.28,2.92,3.28,4.58s-1.09,3.31-3.28,4.57a17.48,17.48,0,0,1-15.84,0c-2.19-1.26-3.28-2.92-3.28-4.57S163.8,534.79,166,533.52Z" />
                </g>
                <g id="Gear"  style="animation: scale1 2s linear infinite alternate; animation-delay: -0.8s;">
                    <path
                        class="cls-79"
                        d="M598.11,300.41a9.55,9.55,0,0,0-1-1.43c-1.39-1.37,1.8-3.67,3.23-4.5,0,0-4.18-2.43-4.18-2.43H583.76a5.6,5.6,0,0,1-1-3.23h-5.94a4.93,4.93,0,0,1-2,4.08,3.54,3.54,0,0,1-1.2.41c-.84.16-1.67.36-2.47.59a.22.22,0,0,1-.1,0c-.81-.23-1.63-.42-2.47-.59-2.65-.4-3.2-3.32-3.19-4.49h-5.94c0,1-.4,3.13-2,4.08a3.34,3.34,0,0,1-1.2.41c-.84.17-1.67.36-2.47.59-2.74.59-6.32-1-7.75-1.86l-4.21,2.44c1.42.83,4.58,3.12,3.18,4.49a9.71,9.71,0,0,0-1,1.43,1.63,1.63,0,0,1-.71.69c-1.64.95-5.38,1.17-7.06,1.17v3.44c2,0,7.06.33,7.74,1.86a8.36,8.36,0,0,0,1,1.43c1.38,1.37-1.8,3.67-3.24,4.5l4.18,2.43.53-.28-.5.28h12.38a5.68,5.68,0,0,1,1,3.22h23.35l5.82-3.23H596l4.22-2.43c-1.43-.83-4.59-3.13-3.19-4.5a10.36,10.36,0,0,0,.66-.86h3.92l4.21-2.43,0-3.44C603.69,302.36,598.79,302,598.11,300.41Z"
                    />
                    <path class="cls-12" d="M545.23,288.13c0-1.33-2.36-3-3.53-3.7l0,10c1.18.68,3.54,2.36,3.54,3.7Z" />
                    <path class="cls-9" d="M583,294.47l0-10c-1.19.69-3.58,2.38-3.58,3.72l0,10C579.37,296.85,581.76,295.15,583,294.47Z" />
                    <path
                        class="cls-80"
                        d="M554.86,299.66a16.42,16.42,0,0,1,14.89,0c2,1.19,3.06,2.73,3.06,4.29l0-10c0-1.55-1-3.1-3.06-4.29a16.42,16.42,0,0,0-14.89,0c-2.07,1.2-3.11,2.78-3.1,4.34l0,10C551.75,302.43,552.79,300.86,554.86,299.66Z"
                    />
                    <polygon class="cls-2" points="545.77 305.88 541.59 303.44 541.62 313.48 545.8 315.91 545.77 305.88" />
                    <polygon class="cls-9" points="582.84 313.48 582.81 303.44 578.6 305.88 578.63 315.91 582.84 313.48" />
                    <path class="cls-81" d="M553.57,314.05c.8.23,1.63.43,2.47.59,2.62.4,3.18,3.25,3.18,4.45l0-10c0-1.2-.57-4.05-3.19-4.44-.84-.17-1.67-.36-2.47-.6-2.36-.8-6.33,1-7.77,1.86l0,10C547.24,315.08,551.21,313.25,553.57,314.05Z" />
                    <path
                        class="cls-82"
                        d="M567.21,315.05a3.54,3.54,0,0,1,1.2-.41c.84-.16,1.66-.36,2.47-.59,2.37-.8,6.32,1,7.75,1.86l0-10c-1.43-.83-5.38-2.66-7.75-1.85-.81.23-1.63.42-2.47.59a3.48,3.48,0,0,0-1.19.4c-1.62.94-2,3.07-2.06,4.09l0,10C565.25,318.12,565.6,316,567.21,315.05Z"
                    />
                    <path
                        class="cls-25"
                        d="M544.83,299c1.38,1.37-1.8,3.66-3.24,4.49l4.18,2.43c1.44-.83,5.41-2.66,7.77-1.86.8.24,1.63.43,2.47.6,2.65.39,3.2,3.32,3.19,4.49h5.93c.1-1,.44-3.15,2.06-4.09a3.48,3.48,0,0,1,1.19-.4c.84-.17,1.66-.36,2.47-.59,2.37-.81,6.32,1,7.75,1.85l4.21-2.43c-1.42-.83-4.58-3.12-3.18-4.49a11.91,11.91,0,0,0,1-1.43,1.65,1.65,0,0,1,.71-.7c1.64-.94,5.38-1.17,7-1.16l0-3.44c-2.17.08-7.06-.33-7.74-1.87a9.42,9.42,0,0,0-1-1.43c-1.38-1.37,1.8-3.66,3.24-4.49L578.73,282c-1.43.83-5.41,2.66-7.76,1.86-.81-.23-1.63-.43-2.47-.6-2.65-.4-3.2-3.32-3.19-4.49h-5.94c0,1-.4,3.14-2,4.08a3.34,3.34,0,0,1-1.2.41c-.84.17-1.67.36-2.47.6-2.74.59-6.32-1-7.75-1.86l-4.21,2.43c1.42.83,4.58,3.12,3.18,4.49a10.27,10.27,0,0,0-1,1.43,1.65,1.65,0,0,1-.71.7c-1.64.94-5.38,1.16-7.06,1.16v3.45c2,0,7.06.32,7.74,1.86A9.23,9.23,0,0,0,544.83,299Zm10-9.33a16.42,16.42,0,0,1,14.89,0c4.1,2.39,4.08,6.25-.05,8.63a16.4,16.4,0,0,1-14.88,0C550.69,295.86,550.71,292,554.83,289.62Z"
                    />
                    <path class="cls-2" d="M541.59,303.44c1.44-.83,4.62-3.12,3.24-4.49a9.23,9.23,0,0,1-1-1.43c-.68-1.54-5.72-1.87-7.74-1.86l0,10a25.61,25.61,0,0,1,5.5.59Z" />
                    <polygon class="cls-9" points="565.16 319.14 565.13 309.1 559.2 309.1 559.23 319.14 565.16 319.14" />
                    <path class="cls-83" d="M588.45,305.69l0-10c-1.67,0-5.41.22-7,1.16a1.65,1.65,0,0,0-.71.7,11.91,11.91,0,0,1-1,1.43c-1.4,1.37,1.76,3.66,3.18,4.49v2.88A25,25,0,0,1,588.45,305.69Z" />
                </g>
                <g id="Horizontal_speech_bubble" data-name="Horizontal speech bubble" style="animation: trans1 2s linear infinite alternate; animation-delay: -0.8s;">
                    <path
                        class="cls-84"
                        d="M122.17,342.4,96.73,327.71v-7.54H83.67L58.23,305.48a10.51,10.51,0,0,0-9.46,0L10.09,327.82c-2.61,1.51-2.61,3.95,0,5.46L74,370.2a8.3,8.3,0,0,0,2.3.86l-.89.27h3.5a9.65,9.65,0,0,0,4.54-1.12l38.69-22.34C124.78,346.35,124.78,343.91,122.17,342.4Z"
                    />
                    <path class="cls-78" d="M93.58,325.45v-7.54h-13L55.09,303.22a10.44,10.44,0,0,0-9.46,0L6.94,325.56c-2.61,1.5-2.61,3.95,0,5.46l63.94,36.91a10.44,10.44,0,0,0,9.46,0L119,345.6c2.61-1.51,2.61-4,0-5.46Z" />
                    <path class="cls-6" d="M43.37,318.23l-12,6.95-2.23-1.29L39.26,318l-2.54-1.47,1.87-1.08Z" />
                    <path
                        class="cls-6"
                        d="M44.34,330.5l-1.9,1.1-8.87-5.13,1.5-.86,9.32.14a13.1,13.1,0,0,0,2.44-.15,4.6,4.6,0,0,0,1.43-.5c.56-.32.8-.68.72-1.07s-.49-.8-1.22-1.22a7,7,0,0,0-4.08-.91l-.36-1.6a11.39,11.39,0,0,1,3.37.25,11.27,11.27,0,0,1,3.2,1.24c1.31.76,2,1.54,2.2,2.35s-.29,1.52-1.36,2.13a7.5,7.5,0,0,1-2.25.83,17.89,17.89,0,0,1-3.54.22l-6.28-.09Z"
                    />
                    <path
                        class="cls-6"
                        d="M57.66,333c.15.85-.34,1.6-1.47,2.26a6.82,6.82,0,0,1-2.5.82,8.46,8.46,0,0,1-3-.12,10.16,10.16,0,0,1-3.15-1.22,8.71,8.71,0,0,1-2.12-1.65,3.83,3.83,0,0,1-1-1.76l2.69-.46a3,3,0,0,0,.74,1.43,6.11,6.11,0,0,0,1.61,1.3,5.86,5.86,0,0,0,2.36.8,3.38,3.38,0,0,0,2-.39c.62-.36.84-.77.67-1.23s-.85-1-2-1.72l-2.91-1.68L56.75,326,63.82,330,62,331.12l-5.18-3-3,1.46,1.15.66C56.58,331.23,57.5,332.15,57.66,333Z"
                    />
                    <path
                        class="cls-6"
                        d="M77.06,342c0,.77-.66,1.55-2,2.33l-5.26,3-2.15-1.24,5-2.88c.8-.46,1.23-.91,1.28-1.35s-.25-.85-.92-1.24a4.57,4.57,0,0,0-2.45-.59,5.57,5.57,0,0,0-2.69.8l-4.66,2.69L61,342.33l5-2.88c.8-.46,1.22-.92,1.28-1.36s-.26-.85-.92-1.23a4.5,4.5,0,0,0-2.46-.6,5.58,5.58,0,0,0-2.69.81l-4.66,2.69-2.15-1.24,9.19-5.31,2,1.19-1.17.67a8,8,0,0,1,2.24.2,7.61,7.61,0,0,1,2,.8,4,4,0,0,1,1.44,1.28,1.44,1.44,0,0,1,.12,1.39,9.47,9.47,0,0,1,2.59.2,8.11,8.11,0,0,1,2.38.91C76.47,340.52,77.05,341.24,77.06,342Z"
                    />
                    <path
                        class="cls-6"
                        d="M86.11,355.61a10.12,10.12,0,0,1-4.14-1L80,355.69l-1.41-.82,1.91-1.1a9.3,9.3,0,0,1-1.94-1.66,3.1,3.1,0,0,1-.85-1.6l2.52-.55a3.34,3.34,0,0,0,.67,1.39,6.36,6.36,0,0,0,1.46,1.35l3.44-2a10.08,10.08,0,0,1-1.4-1.55,1.78,1.78,0,0,1-.33-1.38c.09-.48.5-.93,1.25-1.36a6.42,6.42,0,0,1,3.39-.78,9.71,9.71,0,0,1,4.1,1l2-1.12,1.41.81-1.91,1.1a8.09,8.09,0,0,1,1.56,1.28,4,4,0,0,1,.88,1.35l-2.44.59a5.63,5.63,0,0,0-1.86-2.14l-3.47,2a10.88,10.88,0,0,1,1.42,1.56,1.81,1.81,0,0,1,.35,1.38c-.08.48-.49.93-1.24,1.36A6.45,6.45,0,0,1,86.11,355.61Zm1.1-7.18a2.62,2.62,0,0,0,.71,1.08L91,347.74a5.2,5.2,0,0,0-1.86-.44,2.84,2.84,0,0,0-1.44.34C87.3,347.86,87.14,348.12,87.21,348.43ZM85.73,354a2.66,2.66,0,0,0,1.42-.31c.39-.23.54-.5.47-.81a2.77,2.77,0,0,0-.73-1.11l-3,1.76A5.12,5.12,0,0,0,85.73,354Z"
                    />
                    <path
                        class="cls-85"
                        d="M119,345.6,80.34,367.93a10.44,10.44,0,0,1-9.46,0L6.94,331A3.3,3.3,0,0,1,5,328.25H5v2.38H5a3.37,3.37,0,0,0,2,2.65L70.88,370.2a10.51,10.51,0,0,0,9.46,0L119,347.86a3.33,3.33,0,0,0,2-2.67h0v-.06h0v-2.26A3.34,3.34,0,0,1,119,345.6Z"
                    />
                </g>
                <g id="Speech_bubble" data-name="Speech bubble" style="animation: trans1 2s linear infinite alternate; animation-delay: -0.8s;">
                    <path class="cls-86" d="M475.94.56l45.23,26.11a9.2,9.2,0,0,1,4.14,7.18V67.09c0,2.63-1.86,3.71-4.14,2.39L485.93,49.14l-6.75,5.67V45.24l-3.24-1.87a9.18,9.18,0,0,1-4.14-7.17V3C471.8.32,473.66-.75,475.94.56Z" />
                    <polygon class="cls-87" points="483.44 21.88 477.81 18.63 477.81 16.38 483.44 19.63 483.44 21.88" />
                    <polygon class="cls-88" points="480.06 40.92 480.06 19.93 481.2 20.58 481.2 41.58 480.06 40.92" />
                    <polygon class="cls-89" points="489.07 26.25 483.44 23 483.44 20.75 489.07 24 489.07 26.25" />
                    <polygon class="cls-90" points="485.69 44.17 485.69 24.3 486.83 24.96 486.83 44.83 485.69 44.17" />
                    <polygon class="cls-87" points="494.7 30.63 489.07 27.38 489.07 25.13 494.7 28.38 494.7 30.63" />
                    <polygon class="cls-91" points="491.32 47.42 491.32 28.68 492.45 29.33 492.45 48.08 491.32 47.42" />
                    <polygon class="cls-89" points="500.33 32.75 494.7 29.5 494.7 27.25 500.33 30.5 500.33 32.75" />
                    <polygon class="cls-92" points="496.95 50.67 496.95 30.8 498.08 31.46 498.08 51.33 496.95 50.67" />
                    <polygon class="cls-89" points="505.96 38.25 500.33 35 500.33 32.75 505.96 36 505.96 38.25" />
                    <polygon class="cls-93" points="502.57 53.92 502.57 36.3 503.71 36.96 503.71 54.58 502.57 53.92" />
                    <polygon class="cls-87" points="511.66 43.8 506.03 40.55 506.03 38.3 511.66 41.55 511.66 43.8" />
                    <polygon class="cls-94" points="508.28 57.22 508.28 41.84 509.42 42.5 509.42 57.87 508.28 57.22" />
                    <polygon class="cls-89" points="517.29 45.92 511.66 42.67 511.66 40.42 517.29 43.67 517.29 45.92" />
                    <polygon class="cls-95" points="513.9 60.47 513.9 43.97 515.04 44.62 515.04 61.12 513.9 60.47" />
                </g>
                <g id="Pie_chart" data-name="Pie chart" style="animation: trans2 1s linear infinite alternate; animation-delay: -0.5s;">
                    <path class="cls-96" d="M455.13,451.56c-21.24.64-41.81,4.44-51,10-12.12,7.29.05,14.81,27.15,16.8a199.52,199.52,0,0,0,23.86.25Z" />
                    <path class="cls-20" d="M422.27,421.48a37.86,37.86,0,0,1,.69,11.45l-23.53,1.21Z" />
                    <path class="cls-17" d="M393.18,405.8c12.61-7,25.64,0,29.09,15.68l-22.84,12.66Z" />
                    <path class="cls-4" d="M404,402.78l3.34.86a19.06,19.06,0,0,0-14.15,2.16l-3.34-.86A19,19,0,0,1,404,402.78Z" />
                    <path class="cls-97" d="M391.53,464.65l-3.34-.87c-7.06-1.83-12.81-8.2-14.94-17.84-3.45-15.65,4-34,16.59-41l3.34.86c-12.63,7-20.05,25.36-16.6,41C378.71,456.45,384.47,462.81,391.53,464.65Z" />
                    <path class="cls-2" d="M393.18,405.8l6.25,28.34L423,432.93c-1.08,12.3-7.67,24.23-17.28,29.55-12.62,7-25.64,0-29.1-15.67S380.55,412.8,393.18,405.8Z" />
                </g>
            </g>
        </g>
    </g>
</svg>
