<svg width="160" height="180" viewBox="0 0 160 180" fill="none" xmlns="http://www.w3.org/2000/svg">
<path d="M12 12C12 5.37258 17.3726 0 24 0H80H136C142.627 0 148 5.37258 148 12V152.845C148 158.296 144.327 163.062 139.056 164.45L84.0741 178.927C81.4036 179.63 78.5964 179.63 75.9259 178.927L20.9444 164.45C15.6735 163.062 12 158.296 12 152.845V12Z" fill="#4F52B1"/>
<rect y="56" width="160" height="52" rx="8" fill="#343799"/>
<path d="M68.9649 78V66.656H65.4929L62.5329 74.32L59.4129 66.656H56.1169V78H58.5169V70.576L61.4769 78H63.5249L66.4849 70.48V78H68.9649ZM74.1311 72.32C74.1311 69.952 75.8271 68.88 77.4111 68.88C78.9791 68.88 80.6751 69.952 80.6751 72.32C80.6751 74.688 78.9791 75.744 77.4111 75.744C75.8271 75.744 74.1311 74.688 74.1311 72.32ZM71.5071 72.336C71.5071 75.92 74.2111 78.24 77.4111 78.24C80.5951 78.24 83.2991 75.92 83.2991 72.336C83.2991 68.736 80.5951 66.416 77.4111 66.416C74.2111 66.416 71.5071 68.736 71.5071 72.336ZM93.706 69.44C93.466 68.112 92.394 66.416 89.562 66.416C87.386 66.416 85.498 67.92 85.498 70.064C85.498 71.744 86.666 73.024 88.586 73.392L90.138 73.68C90.89 73.824 91.354 74.24 91.354 74.816C91.354 75.52 90.746 76 89.754 76C88.202 76 87.498 75.088 87.402 74.048L85.082 74.608C85.242 76.208 86.586 78.24 89.722 78.24C92.426 78.24 93.914 76.432 93.914 74.656C93.914 73.04 92.794 71.648 90.634 71.248L89.114 70.96C88.33 70.816 87.994 70.416 87.994 69.872C87.994 69.248 88.602 68.656 89.546 68.656C90.922 68.656 91.354 69.552 91.434 70.08L93.706 69.44ZM104.893 69.072V66.656H95.3726V69.072H98.8606V78H101.389V69.072H104.893ZM18.5829 96H21.3669L19.0629 91.408C20.4549 90.912 21.3029 89.744 21.3029 88.208C21.3029 86.192 19.8629 84.656 17.6229 84.656H13.1269V96H15.6549V91.776H16.5509L18.5829 96ZM15.6549 89.6V86.848H17.1429C18.1829 86.848 18.7429 87.376 18.7429 88.224C18.7429 89.024 18.1829 89.6 17.1429 89.6H15.6549ZM31.1075 96V93.6H26.4355V91.424H30.6595V89.2H26.4355V87.04H31.0915V84.656H23.9075V96H31.1075ZM38.9358 96.24C42.4558 96.24 43.9598 93.84 44.3278 92.272L41.9118 91.584C41.6878 92.4 40.9038 93.712 38.9358 93.712C37.2398 93.712 35.6718 92.48 35.6718 90.352C35.6718 87.968 37.3838 86.88 38.9038 86.88C40.9038 86.88 41.6238 88.208 41.7998 88.992L44.1838 88.24C43.8158 86.608 42.3118 84.416 38.9038 84.416C35.7358 84.416 33.0478 86.816 33.0478 90.352C33.0478 93.888 35.6718 96.24 38.9358 96.24ZM48.5461 90.32C48.5461 87.952 50.2421 86.88 51.8261 86.88C53.3941 86.88 55.0901 87.952 55.0901 90.32C55.0901 92.688 53.3941 93.744 51.8261 93.744C50.2421 93.744 48.5461 92.688 48.5461 90.32ZM45.9221 90.336C45.9221 93.92 48.6261 96.24 51.8261 96.24C55.0101 96.24 57.7141 93.92 57.7141 90.336C57.7141 86.736 55.0101 84.416 51.8261 84.416C48.6261 84.416 45.9221 86.736 45.9221 90.336ZM73.113 96V84.656H69.641L66.681 92.32L63.561 84.656H60.265V96H62.665V88.576L65.625 96H67.673L70.633 88.48V96H73.113ZM89.1593 96V84.656H85.6873L82.7273 92.32L79.6073 84.656H76.3113V96H78.7113V88.576L81.6713 96H83.7193L86.6793 88.48V96H89.1593ZM99.5575 96V93.6H94.8855V91.424H99.1095V89.2H94.8855V87.04H99.5415V84.656H92.3575V96H99.5575ZM112.15 96V84.656H109.622V91.552L105.366 84.656H102.294V96H104.806V88.544L109.478 96H112.15ZM117.884 93.616V87.04H119.356C121.1 87.04 122.524 88.064 122.524 90.336C122.524 92.608 121.1 93.616 119.356 93.616H117.884ZM119.452 96C122.876 96 125.164 93.84 125.164 90.336C125.164 86.832 122.876 84.656 119.468 84.656H115.356V96H119.452ZM134.946 96V93.6H130.274V91.424H134.498V89.2H130.274V87.04H134.93V84.656H127.746V96H134.946ZM140.211 93.616V87.04H141.683C143.427 87.04 144.851 88.064 144.851 90.336C144.851 92.608 143.427 93.616 141.683 93.616H140.211ZM141.779 96C145.203 96 147.491 93.84 147.491 90.336C147.491 86.832 145.203 84.656 141.795 84.656H137.683V96H141.779Z" fill="white"/>
<path d="M46.7566 124.562C47.1717 123.368 48.8604 123.368 49.2755 124.562L49.9058 126.376C50.0889 126.902 50.5805 127.26 51.1381 127.271L53.0575 127.31C54.3214 127.336 54.8433 128.942 53.8359 129.706L52.306 130.865C51.8616 131.202 51.6738 131.78 51.8353 132.314L52.3913 134.152C52.7573 135.362 51.3911 136.354 50.3535 135.632L48.7776 134.536C48.3199 134.217 47.7122 134.217 47.2545 134.536L45.6786 135.632C44.6409 136.354 43.2747 135.362 43.6408 134.152L44.1968 132.314C44.3582 131.78 44.1705 131.202 43.7261 130.865L42.1962 129.706C41.1888 128.942 41.7107 127.336 42.9746 127.31L44.894 127.271C45.4516 127.26 45.9432 126.902 46.1263 126.376L46.7566 124.562Z" fill="white"/>
<path d="M62.7566 124.562C63.1717 123.368 64.8604 123.368 65.2755 124.562L65.9058 126.376C66.0889 126.902 66.5805 127.26 67.1381 127.271L69.0575 127.31C70.3214 127.336 70.8433 128.942 69.8359 129.706L68.306 130.865C67.8616 131.202 67.6738 131.78 67.8353 132.314L68.3913 134.152C68.7573 135.362 67.3911 136.354 66.3535 135.632L64.7776 134.536C64.3199 134.217 63.7122 134.217 63.2545 134.536L61.6786 135.632C60.6409 136.354 59.2747 135.362 59.6408 134.152L60.1968 132.314C60.3582 131.78 60.1705 131.202 59.7261 130.865L58.1962 129.706C57.1888 128.942 57.7107 127.336 58.9746 127.31L60.894 127.271C61.4516 127.26 61.9432 126.902 62.1263 126.376L62.7566 124.562Z" fill="white"/>
<path d="M78.7566 124.562C79.1717 123.368 80.8604 123.368 81.2755 124.562L81.9058 126.376C82.0889 126.902 82.5805 127.26 83.1381 127.271L85.0575 127.31C86.3214 127.336 86.8433 128.942 85.8359 129.706L84.306 130.865C83.8616 131.202 83.6738 131.78 83.8353 132.314L84.3913 134.152C84.7573 135.362 83.3911 136.354 82.3535 135.632L80.7776 134.536C80.3199 134.217 79.7122 134.217 79.2545 134.536L77.6786 135.632C76.6409 136.354 75.2747 135.362 75.6408 134.152L76.1968 132.314C76.3582 131.78 76.1705 131.202 75.7261 130.865L74.1962 129.706C73.1888 128.942 73.7107 127.336 74.9746 127.31L76.894 127.271C77.4516 127.26 77.9432 126.902 78.1263 126.376L78.7566 124.562Z" fill="white"/>
<path d="M94.7566 124.562C95.1717 123.368 96.8604 123.368 97.2755 124.562L97.9058 126.376C98.0889 126.902 98.5805 127.26 99.1381 127.271L101.058 127.31C102.321 127.336 102.843 128.942 101.836 129.706L100.306 130.865C99.8616 131.202 99.6738 131.78 99.8353 132.314L100.391 134.152C100.757 135.362 99.3911 136.354 98.3535 135.632L96.7776 134.536C96.3199 134.217 95.7122 134.217 95.2545 134.536L93.6786 135.632C92.6409 136.354 91.2747 135.362 91.6408 134.152L92.1968 132.314C92.3582 131.78 92.1705 131.202 91.7261 130.865L90.1962 129.706C89.1888 128.942 89.7107 127.336 90.9746 127.31L92.894 127.271C93.4516 127.26 93.9432 126.902 94.1263 126.376L94.7566 124.562Z" fill="white"/>
<path d="M110.757 124.562C111.172 123.368 112.86 123.368 113.275 124.562L113.906 126.376C114.089 126.902 114.58 127.26 115.138 127.271L117.058 127.31C118.321 127.336 118.843 128.942 117.836 129.706L116.306 130.865C115.862 131.202 115.674 131.78 115.835 132.314L116.391 134.152C116.757 135.362 115.391 136.354 114.353 135.632L112.778 134.536C112.32 134.217 111.712 134.217 111.254 134.536L109.679 135.632C108.641 136.354 107.275 135.362 107.641 134.152L108.197 132.314C108.358 131.78 108.17 131.202 107.726 130.865L106.196 129.706C105.189 128.942 105.711 127.336 106.975 127.31L108.894 127.271C109.452 127.26 109.943 126.902 110.126 126.376L110.757 124.562Z" fill="white"/>
<path d="M68.5427 153.332C68.4947 153.176 68.4707 153.008 68.4707 152.852C68.4707 152.204 68.8307 151.7 69.5627 151.7C70.2587 151.7 70.6067 152.132 70.6067 152.624C70.6067 153.14 70.3667 153.464 69.7547 153.824L68.4827 154.568C67.0547 155.396 66.6467 156.572 66.6467 158H72.5627V156.416H68.9627C69.0707 156.188 69.2627 156.032 69.4907 155.888L70.9667 155.012C71.9627 154.424 72.5027 153.596 72.5027 152.588C72.5027 151.196 71.3987 150.032 69.6107 150.032C67.7387 150.032 66.6947 151.28 66.6947 152.672C66.6947 152.912 66.7307 153.224 66.7667 153.32L68.5427 153.332ZM75.9608 154.112C75.9608 153.488 76.0328 152.876 76.2488 152.42C76.4648 151.988 76.8128 151.7 77.3888 151.7C77.9768 151.7 78.3128 151.988 78.5288 152.42C78.7568 152.876 78.8288 153.488 78.8288 154.112C78.8288 154.736 78.7568 155.348 78.5288 155.804C78.3128 156.236 77.9768 156.524 77.3888 156.524C76.8128 156.524 76.4648 156.236 76.2488 155.804C76.0328 155.348 75.9608 154.736 75.9608 154.112ZM74.0648 154.112C74.0648 155.072 74.2088 156.044 74.7488 156.86C75.2648 157.628 76.1288 158.192 77.3888 158.192C78.6608 158.192 79.5248 157.628 80.0408 156.86C80.5808 156.044 80.7248 155.072 80.7248 154.112C80.7248 153.152 80.5808 152.18 80.0408 151.364C79.5248 150.584 78.6608 150.032 77.3888 150.032C76.1288 150.032 75.2648 150.584 74.7488 151.364C74.2088 152.18 74.0648 153.152 74.0648 154.112ZM84.0808 153.332C84.0328 153.176 84.0088 153.008 84.0088 152.852C84.0088 152.204 84.3688 151.7 85.1008 151.7C85.7968 151.7 86.1448 152.132 86.1448 152.624C86.1448 153.14 85.9048 153.464 85.2928 153.824L84.0208 154.568C82.5928 155.396 82.1848 156.572 82.1848 158H88.1008V156.416H84.5008C84.6088 156.188 84.8008 156.032 85.0288 155.888L86.5048 155.012C87.5008 154.424 88.0408 153.596 88.0408 152.588C88.0408 151.196 86.9368 150.032 85.1488 150.032C83.2768 150.032 82.2328 151.28 82.2328 152.672C82.2328 152.912 82.2688 153.224 82.3048 153.32L84.0808 153.332ZM93.1069 158V150.212H91.4869C91.3549 151.004 90.5269 151.664 89.3629 151.676V152.936H91.2229V158H93.1069Z" fill="white"/>
<g clip-path="url(#clip0)">
<path fill-rule="evenodd" clip-rule="evenodd" d="M131.215 25.168C131.215 24.5355 131.734 24.0166 132.366 24.0166H140.856C141.488 24.0166 142.007 24.5355 142.007 25.168V29.3355C142.007 29.968 141.488 30.4869 140.856 30.4869H139.972C139.339 30.4869 138.375 30.7382 137.815 31.0463L134.734 32.7571C134.183 33.0653 133.948 32.8463 134.207 32.2707L134.564 31.4923C134.823 30.9166 134.523 30.4463 133.891 30.4463H132.358C131.726 30.4463 131.207 29.9274 131.207 29.295V25.168" fill="#FD810B"/>
<path fill-rule="evenodd" clip-rule="evenodd" d="M131.225 36.0087C131.29 36.0087 131.346 36.0006 131.395 35.9762C131.436 35.9519 131.46 35.9114 131.46 35.8303C131.46 35.7897 131.452 35.7573 131.436 35.7411C131.419 35.7168 131.395 35.7006 131.371 35.6924C131.346 35.6843 131.314 35.6762 131.282 35.6681C131.249 35.6681 131.217 35.66 131.192 35.66H130.99V36.0087H131.225ZM131.225 35.4168C131.403 35.4168 131.541 35.4573 131.63 35.5303C131.719 35.6033 131.768 35.7168 131.768 35.8546C131.768 35.9762 131.736 36.0654 131.671 36.1303C131.606 36.1952 131.525 36.2357 131.428 36.2438L131.776 36.8195H131.436L131.103 36.2519H130.99V36.8195H130.682V35.4168H131.225ZM130.349 36.4789C130.398 36.5924 130.455 36.6897 130.536 36.7789C130.617 36.86 130.714 36.933 130.819 36.9816C130.933 37.0303 131.055 37.0546 131.184 37.0546C131.314 37.0546 131.436 37.0303 131.549 36.9816C131.663 36.933 131.76 36.8681 131.833 36.7789C131.914 36.6979 131.979 36.5924 132.019 36.4789C132.068 36.3654 132.084 36.2438 132.084 36.1222C132.084 35.9924 132.06 35.8789 132.019 35.7654C131.971 35.6519 131.914 35.5546 131.833 35.4654C131.752 35.3843 131.655 35.3114 131.541 35.2627C131.428 35.2141 131.306 35.1897 131.176 35.1897C131.046 35.1897 130.925 35.2141 130.811 35.2627C130.698 35.3114 130.601 35.3762 130.519 35.4654C130.438 35.5465 130.373 35.6519 130.333 35.7654C130.284 35.8789 130.268 36.0006 130.268 36.1222C130.276 36.2519 130.301 36.3654 130.349 36.4789ZM129.984 35.6114C130.049 35.4492 130.146 35.3114 130.26 35.1979C130.373 35.0762 130.511 34.987 130.674 34.9222C130.828 34.8573 130.998 34.8168 131.184 34.8168C131.363 34.8168 131.533 34.8492 131.695 34.9141C131.849 34.9789 131.995 35.0762 132.109 35.1897C132.23 35.3114 132.319 35.4492 132.384 35.6033C132.449 35.7573 132.49 35.9276 132.49 36.1141C132.49 36.3006 132.457 36.4627 132.392 36.6249C132.328 36.787 132.23 36.9168 132.117 37.0384C131.995 37.1519 131.857 37.2492 131.703 37.3141C131.549 37.3789 131.379 37.4114 131.192 37.4114C131.014 37.4114 130.844 37.3789 130.682 37.3141C130.519 37.2492 130.382 37.16 130.268 37.0384C130.146 36.9249 130.057 36.787 129.984 36.6249C129.919 36.4708 129.879 36.3006 129.879 36.1141C129.887 35.9438 129.919 35.7735 129.984 35.6114Z" fill="white"/>
<path fill-rule="evenodd" clip-rule="evenodd" d="M126.927 32.221H125.054C124.916 32.221 124.867 32.1318 124.867 32.0345L124.883 31.7912C124.916 31.2966 125.386 30.9318 126.002 30.9318C126.602 30.9318 127.081 31.2885 127.121 31.775L127.137 32.0183C127.137 32.1318 127.097 32.221 126.927 32.221ZM125.929 28.9696C123.902 28.9696 122.459 30.4291 122.459 32.0993V34.3128C122.459 36.1696 123.837 37.4588 125.929 37.4588C127.064 37.4588 127.883 37.0615 128.467 36.4939C128.743 36.2183 128.962 35.8939 129.156 35.5696C129.262 35.3993 129.205 35.2047 129.108 35.1561L127.405 34.2966C127.3 34.248 127.194 34.2804 127.145 34.4345C126.91 35.0345 126.513 35.3101 125.929 35.3101C125.297 35.3101 124.843 34.8804 124.843 34.3291V33.948C124.843 33.8264 124.891 33.7615 125.045 33.7615H129.189C129.294 33.7615 129.359 33.7128 129.359 33.5912V32.0993C129.367 30.4453 127.94 28.9696 125.929 28.9696Z" fill="white"/>
<path fill-rule="evenodd" clip-rule="evenodd" d="M118.51 31.0868C119.045 31.0868 119.434 31.4273 119.726 32.1165C119.775 32.2382 119.864 32.2706 119.986 32.2219L121.672 31.4679C121.778 31.4192 121.81 31.3138 121.761 31.176C121.607 30.8192 121.437 30.4868 121.21 30.2111C120.643 29.4571 119.799 29.0273 118.494 29.0273C116.361 29.0273 115.072 30.3165 115.072 32.1733V34.2652C115.072 36.1219 116.361 37.3949 118.494 37.3949C119.694 37.3949 120.488 37.0382 121.056 36.3976C121.348 36.0733 121.575 35.676 121.761 35.23C121.81 35.0922 121.778 35.003 121.672 34.9544L119.986 34.1841C119.864 34.1355 119.783 34.1679 119.726 34.2895C119.434 34.9787 119.037 35.3355 118.51 35.3355C117.878 35.3355 117.464 34.8895 117.464 34.3382V32.0841C117.456 31.5327 117.87 31.0868 118.51 31.0868Z" fill="white"/>
<path fill-rule="evenodd" clip-rule="evenodd" d="M113.557 29.2139H111.514C111.392 29.2139 111.344 29.2625 111.344 29.3841V37.0301C111.344 37.1517 111.392 37.2004 111.514 37.2004H113.557C113.655 37.2004 113.711 37.1517 113.711 37.0301V29.3841C113.711 29.2625 113.638 29.2139 113.557 29.2139Z" fill="white"/>
<path fill-rule="evenodd" clip-rule="evenodd" d="M112.519 25.8416C111.854 25.8416 111.311 26.3848 111.311 27.0497C111.311 27.7145 111.854 28.2578 112.519 28.2578C113.184 28.2578 113.727 27.7145 113.727 27.0497C113.727 26.3848 113.192 25.8416 112.519 25.8416Z" fill="white"/>
<path fill-rule="evenodd" clip-rule="evenodd" d="M110.265 29.2139H108.084C107.995 29.2139 107.93 29.2625 107.898 29.3517L106.608 33.049C106.544 33.2355 106.438 33.6814 106.406 33.9085H106.357C106.325 33.6814 106.235 33.276 106.154 33.049L104.816 29.3355C104.784 29.2463 104.735 29.2139 104.646 29.2139H102.465C102.311 29.2139 102.262 29.3193 102.311 29.4571L105.384 37.0868C105.416 37.1679 105.481 37.2085 105.554 37.2085H107.152C107.241 37.2085 107.306 37.176 107.338 37.0868L110.427 29.4571C110.476 29.3193 110.427 29.2139 110.265 29.2139Z" fill="white"/>
<path fill-rule="evenodd" clip-rule="evenodd" d="M99.0039 34.2337C99.0039 34.8013 98.5417 35.231 97.9417 35.231C97.3255 35.231 96.8958 34.8013 96.8958 34.2337V32.1743C96.8958 31.6229 97.3255 31.2094 97.9417 31.2094C98.558 31.2094 99.0039 31.6229 99.0039 32.1743V34.2337ZM101.201 26.377H99.1742C99.0931 26.377 99.0039 26.4256 99.0039 26.5472V28.9391C99.0039 29.1986 99.0526 29.6932 99.0526 29.6932C98.712 29.3851 98.1444 29.2148 97.7309 29.2148C95.858 29.2148 94.5039 30.4715 94.5039 32.3445V34.0797C94.5039 36.0743 95.6715 37.2094 97.7715 37.2094C98.2499 37.2094 98.8174 37.0553 99.1823 36.7472C99.2877 36.658 99.4093 36.6905 99.4093 36.8283V37.0878C99.4093 37.1526 99.458 37.2094 99.5472 37.2094H101.209C101.315 37.2094 101.38 37.1607 101.38 37.0391V26.5472C101.371 26.4337 101.307 26.377 101.201 26.377Z" fill="white"/>
<path fill-rule="evenodd" clip-rule="evenodd" d="M90.0342 33.5121H88.9882C88.8179 33.5121 88.745 33.4067 88.7855 33.3094L89.1423 31.9148C89.3125 31.2824 89.4504 30.5202 89.4828 30.0743H89.5558C89.5882 30.5202 89.6936 31.2743 89.8639 31.9148L90.2288 33.3094C90.2612 33.4067 90.1882 33.5121 90.0342 33.5121ZM90.4477 26.4986C90.4152 26.4094 90.3585 26.377 90.2774 26.377H88.745C88.6396 26.377 88.6071 26.4094 88.5747 26.4986L85.1936 36.9824C85.145 37.1202 85.2098 37.2094 85.3639 37.2094H87.5288C87.6179 37.2094 87.6504 37.177 87.6828 37.0878L88.1774 35.5229C88.2098 35.4337 88.2423 35.4175 88.3639 35.4175H90.6342C90.7558 35.4175 90.7882 35.4337 90.8206 35.5229L91.299 37.0878C91.3315 37.1688 91.372 37.2094 91.4693 37.2094H93.6504C93.8206 37.2094 93.8774 37.1202 93.8206 36.9824L90.4477 26.4986Z" fill="white"/>
<path fill-rule="evenodd" clip-rule="evenodd" d="M79.0242 32.221H77.1512C77.0134 32.221 76.9647 32.1318 76.9647 32.0345L76.981 31.7912C77.0134 31.2966 77.4837 30.9318 78.0999 30.9318C78.6999 30.9318 79.1864 31.2885 79.2188 31.775L79.235 32.0183C79.2269 32.1318 79.1945 32.221 79.0242 32.221ZM78.0269 28.9696C75.9999 28.9696 74.5566 30.4291 74.5566 32.0993V34.3128C74.5566 36.1696 75.9269 37.4588 78.0269 37.4588C79.162 37.4588 79.9891 37.0615 80.5729 36.4939C80.8485 36.2183 81.0756 35.8939 81.262 35.5696C81.3675 35.3993 81.3107 35.2047 81.2134 35.1561L79.5107 34.2966C79.4053 34.248 79.308 34.2804 79.2512 34.4345C79.008 35.0345 78.6188 35.3101 78.035 35.3101C77.4026 35.3101 76.9485 34.8804 76.9485 34.3291V33.948C76.9485 33.8264 76.9972 33.7615 77.1593 33.7615H81.3026C81.408 33.7615 81.4729 33.7128 81.4729 33.5912V32.0993C81.4647 30.4453 80.0377 28.9696 78.0269 28.9696Z" fill="white"/>
<path fill-rule="evenodd" clip-rule="evenodd" d="M73.5278 29.2463C73.4062 29.2301 73.2684 29.2139 73.0819 29.2139C72.4332 29.2139 71.8089 29.522 71.5332 29.8625C71.444 29.9436 71.3062 29.9355 71.3062 29.7814V29.3841C71.3062 29.2625 71.2576 29.2139 71.1359 29.2139H69.5062C69.4008 29.2139 69.3359 29.2625 69.3359 29.3841V37.0301C69.3359 37.1517 69.4008 37.2004 69.5062 37.2004H71.5332C71.6386 37.2004 71.7035 37.1517 71.7035 37.0301V32.4733C71.7035 31.8733 72.1332 31.4436 72.7332 31.4436C72.9927 31.4436 73.2116 31.476 73.4224 31.5328C73.5765 31.5652 73.6819 31.5166 73.6819 31.3625V29.4166C73.6819 29.3355 73.6251 29.2625 73.5278 29.2463Z" fill="white"/>
<path fill-rule="evenodd" clip-rule="evenodd" d="M64.4124 35.3436H63.78C63.4151 35.3436 63.2124 35.1165 63.2124 34.6382C63.2124 34.2976 63.4557 34.0544 63.7962 34.0544H65.2557C65.3611 34.0544 65.3935 34.2409 65.3935 34.2976C65.353 34.93 64.8746 35.3436 64.4124 35.3436ZM64.3638 29.0273C63.3016 29.0273 62.507 29.3679 61.9233 29.903C61.5989 30.1949 61.3395 30.5355 61.1368 30.9165C61.0314 31.0868 61.0881 31.2814 61.1854 31.33L62.8881 32.1895C62.9935 32.2382 63.0908 32.2057 63.1476 32.0517C63.3908 31.4517 63.78 31.176 64.3638 31.176C64.9962 31.176 65.3935 31.6057 65.3935 32.1571V32.2463C65.3935 32.3679 65.3449 32.4327 65.2233 32.4327H63.707C62.1989 32.4327 60.9746 33.2598 60.9746 34.703V34.8733C60.9746 36.3327 62.0773 37.2084 63.553 37.2084H64.153C64.6152 37.2084 65.1341 37.0544 65.4908 36.7625C65.5557 36.7138 65.6449 36.73 65.6611 36.7787L65.7097 37.0706C65.726 37.1598 65.7989 37.2084 65.8962 37.2084H67.5827C67.6881 37.2084 67.753 37.1598 67.753 37.0382V32.1733C67.7611 30.3165 66.4557 29.0273 64.3638 29.0273Z" fill="white"/>
<path fill-rule="evenodd" clip-rule="evenodd" d="M60.2867 29.2139H58.2111C58.1057 29.2139 58.0408 29.2625 58.0246 29.3517L57.2543 32.5787C57.1651 32.9436 57.1003 33.4544 57.084 33.8193H57.0273C57.0111 33.4544 56.9381 32.9922 56.8408 32.5787L56.0624 29.3517C56.0462 29.2625 55.9732 29.2139 55.8759 29.2139H54.1732C54.0678 29.2139 54.0192 29.2625 54.003 29.3517L53.2489 32.5625C53.1597 32.9193 53.0949 33.3895 53.0624 33.7301H53.0138C52.9976 33.3895 52.9327 32.9193 52.8435 32.5625L52.0408 29.3517C52.0246 29.2625 51.9759 29.2139 51.8705 29.2139H49.7381C49.584 29.2139 49.5273 29.3031 49.584 29.4409L52.0084 37.0868C52.0408 37.1679 52.0976 37.2085 52.1786 37.2085H53.6949C53.8003 37.2085 53.8489 37.176 53.8651 37.0868L54.8138 33.5274C54.9192 33.1301 55.0003 32.4652 55.0003 32.4652H55.0489C55.0489 32.4652 55.1381 33.1382 55.2354 33.5274L56.1597 37.0625C56.1759 37.1517 56.2246 37.2004 56.33 37.2004H57.8219C57.9111 37.2004 57.9597 37.1679 57.9921 37.0787L60.4489 29.4328C60.4976 29.3193 60.4408 29.2139 60.2867 29.2139Z" fill="white"/>
<path fill-rule="evenodd" clip-rule="evenodd" d="M48.6999 29.2142H47.5485C47.3944 29.2142 47.3458 29.1655 47.3458 29.0439V27.9574C47.3458 27.8358 47.3134 27.8033 47.1917 27.8033H46.1053C46.0404 27.8033 45.9512 27.8358 45.9026 27.8925L43.7539 30.0412V31.2087C43.7539 31.3304 43.8026 31.3628 43.9242 31.3628H44.7836C44.9377 31.3628 44.9863 31.4358 44.9863 31.5493V34.2331C44.9863 36.2925 46.2755 37.3628 47.9053 37.3628H48.6269C48.7809 37.3628 48.8539 37.2979 48.8539 37.1763V35.4087C48.8539 35.3033 48.8053 35.2385 48.6836 35.2385H48.3917C47.6863 35.2385 47.3458 34.8087 47.3458 34.0709V31.5493C47.3458 31.4277 47.3944 31.3628 47.5485 31.3628H48.6999C48.8215 31.3628 48.8539 31.3304 48.8539 31.2087V29.3844C48.8539 29.2628 48.8215 29.2142 48.6999 29.2142Z" fill="white"/>
<path fill-rule="evenodd" clip-rule="evenodd" d="M43.5687 26.2947C43.2768 26.2299 42.7984 26.1731 42.3525 26.1731C39.8065 26.1731 38.8498 27.9407 38.8498 29.3353V29.765C38.8498 29.8866 38.8011 29.9353 38.6633 29.9353H38.266C38.1606 29.9353 38.0957 29.9839 38.0957 30.1055V31.9136C38.0957 32.0353 38.1606 32.0839 38.266 32.0839H38.6633C38.8173 32.0839 38.8498 32.1326 38.8498 32.2542V37.0299C38.8498 37.1515 38.8984 37.2001 39.02 37.2001H41.0471C41.1687 37.2001 41.2173 37.1515 41.2173 37.0299V32.2542C41.2173 32.1326 41.266 32.0839 41.4038 32.0839H42.5146C42.6362 32.0839 42.6849 32.0353 42.6849 31.9136V30.1055C42.6849 29.9839 42.6362 29.9353 42.5146 29.9353H41.3957C41.2579 29.9353 41.2092 29.8866 41.2092 29.765V29.3028C41.2092 28.7028 41.6389 28.3217 42.2876 28.3217C42.5146 28.3217 42.7498 28.3542 42.9362 28.4109C43.0579 28.4434 43.1227 28.4109 43.1633 28.3055L43.6984 26.538C43.7389 26.4163 43.7065 26.3271 43.5687 26.2947Z" fill="white"/>
<path fill-rule="evenodd" clip-rule="evenodd" d="M34.6822 34.33C34.6822 34.8814 34.2363 35.3273 33.6363 35.3273C33.0039 35.3273 32.5498 34.8814 32.5498 34.33V32.0841C32.5498 31.549 32.9957 31.0868 33.6363 31.0868C34.2363 31.0868 34.6822 31.5327 34.6822 32.0841V34.33ZM33.6363 29.0273C31.5363 29.0273 30.166 30.3165 30.166 32.1733V34.2652C30.166 36.1219 31.5363 37.3949 33.6363 37.3949C35.6957 37.3949 37.0741 36.1382 37.0741 34.2652V32.1733C37.0741 30.2922 35.6957 29.0273 33.6363 29.0273Z" fill="white"/>
<path fill-rule="evenodd" clip-rule="evenodd" d="M26.4758 30.738C25.5271 30.3812 24.5136 30.1217 24.5136 29.3515C24.5136 28.7353 24.9758 28.3217 25.5758 28.3217H25.8352C26.419 28.3217 26.8163 28.5974 27.0595 29.1974C27.1082 29.3515 27.2136 29.3839 27.319 29.3353L29.0217 28.4758C29.1271 28.4271 29.1758 28.2326 29.0704 28.0623C28.9325 27.8028 28.7623 27.5515 28.5514 27.3244C27.9514 26.6515 27.092 26.1731 25.8352 26.1731H25.5758C23.4271 26.1731 22.1055 27.4461 22.1055 29.3839C22.1055 31.3623 23.3785 32.1001 24.9596 32.7326C25.9893 33.1461 26.8812 33.365 26.8812 34.2244C26.8812 34.9299 26.3298 35.238 25.7136 35.238H25.2839C24.7001 35.238 24.3028 34.9623 24.0677 34.3623C24.019 34.2082 23.9136 34.1758 23.8082 34.2244L22.1055 35.0839C22.0001 35.1326 21.9514 35.3271 22.0568 35.4974C22.2109 35.7731 22.3974 36.0488 22.6244 36.292C23.2082 36.9407 24.0677 37.3866 25.2839 37.3866H25.8352C28.0163 37.3866 29.2893 36.1299 29.2893 34.192C29.2893 32.1893 28.1055 31.3785 26.4758 30.738Z" fill="white"/>
</g>
<defs>
<clipPath id="clip0">
<rect width="120" height="13.4595" fill="white" transform="translate(22 24)"/>
</clipPath>
</defs>
</svg>
