<svg width="160" height="180" viewBox="0 0 160 180" fill="none" xmlns="http://www.w3.org/2000/svg">
<path d="M12 12C12 5.37258 17.3726 0 24 0H80H136C142.627 0 148 5.37258 148 12V152.845C148 158.296 144.327 163.062 139.056 164.45L84.0741 178.927C81.4036 179.63 78.5964 179.63 75.9259 178.927L20.9444 164.45C15.6735 163.062 12 158.296 12 152.845V12Z" fill="#3E3E42"/>
<rect y="56" width="160" height="52" rx="8" fill="#2E2E33"/>
<path d="M40.3345 78.24C43.8545 78.24 45.3585 75.84 45.7265 74.272L43.3105 73.584C43.0865 74.4 42.3025 75.712 40.3345 75.712C38.6385 75.712 37.0705 74.48 37.0705 72.352C37.0705 69.968 38.7825 68.88 40.3025 68.88C42.3025 68.88 43.0225 70.208 43.1985 70.992L45.5825 70.24C45.2145 68.608 43.7105 66.416 40.3025 66.416C37.1345 66.416 34.4465 68.816 34.4465 72.352C34.4465 75.888 37.0705 78.24 40.3345 78.24ZM55.2777 78H58.0297L53.8057 66.656H50.8777L46.6057 78H49.2617L50.0777 75.696H54.4617L55.2777 78ZM52.3017 69.472L53.6617 73.392H50.9097L52.3017 69.472ZM67.4883 69.072V66.656H57.9683V69.072H61.4563V78H63.9843V69.072H67.4883ZM76.8787 78V75.6H72.2067V73.424H76.4307V71.2H72.2067V69.04H76.8627V66.656H69.6787V78H76.8787ZM89.955 78V71.936H84.179V74.08H87.587C87.443 74.72 86.659 75.936 84.787 75.936C82.947 75.936 81.379 74.704 81.379 72.336C81.379 69.808 83.187 68.784 84.723 68.784C86.611 68.784 87.363 70.064 87.539 70.768L89.971 69.92C89.475 68.336 87.971 66.416 84.723 66.416C81.523 66.416 78.819 68.768 78.819 72.336C78.819 75.92 81.411 78.24 84.563 78.24C86.179 78.24 87.251 77.568 87.747 76.848L87.907 78H89.955ZM94.708 72.32C94.708 69.952 96.404 68.88 97.988 68.88C99.556 68.88 101.252 69.952 101.252 72.32C101.252 74.688 99.556 75.744 97.988 75.744C96.404 75.744 94.708 74.688 94.708 72.32ZM92.084 72.336C92.084 75.92 94.788 78.24 97.988 78.24C101.172 78.24 103.876 75.92 103.876 72.336C103.876 68.736 101.172 66.416 97.988 66.416C94.788 66.416 92.084 68.736 92.084 72.336ZM111.883 78H114.667L112.363 73.408C113.755 72.912 114.603 71.744 114.603 70.208C114.603 68.192 113.163 66.656 110.923 66.656H106.427V78H108.955V73.776H109.851L111.883 78ZM108.955 71.6V68.848H110.443C111.483 68.848 112.043 69.376 112.043 70.224C112.043 71.024 111.483 71.6 110.443 71.6H108.955ZM119.539 73.264V78H122.067V73.264L126.051 66.656H123.235L120.883 70.864L118.563 66.656H115.603L119.539 73.264ZM51.2528 96V93.584H46.3568V84.656H43.8288V96H51.2528ZM60.6219 96V93.6H55.9499V91.424H60.1739V89.2H55.9499V87.04H60.6059V84.656H53.4219V96H60.6219ZM70.8628 96H73.6148L69.3908 84.656H66.4628L62.1908 96H64.8468L65.6628 93.696H70.0468L70.8628 96ZM67.8868 87.472L69.2468 91.392H66.4948L67.8868 87.472ZM78.183 93.616V87.04H79.655C81.399 87.04 82.823 88.064 82.823 90.336C82.823 92.608 81.399 93.616 79.655 93.616H78.183ZM79.751 96C83.175 96 85.463 93.84 85.463 90.336C85.463 86.832 83.175 84.656 79.767 84.656H75.655V96H79.751ZM95.245 96V93.6H90.573V91.424H94.797V89.2H90.573V87.04H95.229V84.656H88.045V96H95.245ZM103.438 96H106.222L103.918 91.408C105.31 90.912 106.158 89.744 106.158 88.208C106.158 86.192 104.718 84.656 102.478 84.656H97.9819V96H100.51V91.776H101.406L103.438 96ZM100.51 89.6V86.848H101.998C103.038 86.848 103.598 87.376 103.598 88.224C103.598 89.024 103.038 89.6 101.998 89.6H100.51ZM116.618 87.44C116.378 86.112 115.306 84.416 112.474 84.416C110.298 84.416 108.41 85.92 108.41 88.064C108.41 89.744 109.578 91.024 111.498 91.392L113.05 91.68C113.802 91.824 114.266 92.24 114.266 92.816C114.266 93.52 113.658 94 112.666 94C111.114 94 110.41 93.088 110.314 92.048L107.994 92.608C108.154 94.208 109.498 96.24 112.634 96.24C115.338 96.24 116.826 94.432 116.826 92.656C116.826 91.04 115.706 89.648 113.546 89.248L112.026 88.96C111.242 88.816 110.906 88.416 110.906 87.872C110.906 87.248 111.514 86.656 112.458 86.656C113.834 86.656 114.266 87.552 114.346 88.08L116.618 87.44Z" fill="white"/>
<path d="M46.7566 124.562C47.1717 123.368 48.8604 123.368 49.2755 124.562L49.9058 126.376C50.0889 126.902 50.5805 127.26 51.1381 127.271L53.0575 127.31C54.3214 127.336 54.8433 128.942 53.8359 129.706L52.306 130.865C51.8616 131.202 51.6738 131.78 51.8353 132.314L52.3913 134.152C52.7573 135.362 51.3911 136.354 50.3535 135.632L48.7776 134.536C48.3199 134.217 47.7122 134.217 47.2545 134.536L45.6786 135.632C44.6409 136.354 43.2747 135.362 43.6408 134.152L44.1968 132.314C44.3582 131.78 44.1705 131.202 43.7261 130.865L42.1962 129.706C41.1888 128.942 41.7107 127.336 42.9746 127.31L44.894 127.271C45.4516 127.26 45.9432 126.902 46.1263 126.376L46.7566 124.562Z" fill="white"/>
<path d="M62.7566 124.562C63.1717 123.368 64.8604 123.368 65.2755 124.562L65.9058 126.376C66.0889 126.902 66.5805 127.26 67.1381 127.271L69.0575 127.31C70.3214 127.336 70.8433 128.942 69.8359 129.706L68.306 130.865C67.8616 131.202 67.6738 131.78 67.8353 132.314L68.3913 134.152C68.7573 135.362 67.3911 136.354 66.3535 135.632L64.7776 134.536C64.3199 134.217 63.7122 134.217 63.2545 134.536L61.6786 135.632C60.6409 136.354 59.2747 135.362 59.6408 134.152L60.1968 132.314C60.3582 131.78 60.1705 131.202 59.7261 130.865L58.1962 129.706C57.1888 128.942 57.7107 127.336 58.9746 127.31L60.894 127.271C61.4516 127.26 61.9432 126.902 62.1263 126.376L62.7566 124.562Z" fill="white"/>
<path d="M78.7566 124.562C79.1717 123.368 80.8604 123.368 81.2755 124.562L81.9058 126.376C82.0889 126.902 82.5805 127.26 83.1381 127.271L85.0575 127.31C86.3214 127.336 86.8433 128.942 85.8359 129.706L84.306 130.865C83.8616 131.202 83.6738 131.78 83.8353 132.314L84.3913 134.152C84.7573 135.362 83.3911 136.354 82.3535 135.632L80.7776 134.536C80.3199 134.217 79.7122 134.217 79.2545 134.536L77.6786 135.632C76.6409 136.354 75.2747 135.362 75.6408 134.152L76.1968 132.314C76.3582 131.78 76.1705 131.202 75.7261 130.865L74.1962 129.706C73.1888 128.942 73.7107 127.336 74.9746 127.31L76.894 127.271C77.4516 127.26 77.9432 126.902 78.1263 126.376L78.7566 124.562Z" fill="white"/>
<path d="M94.7566 124.562C95.1717 123.368 96.8604 123.368 97.2755 124.562L97.9058 126.376C98.0889 126.902 98.5805 127.26 99.1381 127.271L101.058 127.31C102.321 127.336 102.843 128.942 101.836 129.706L100.306 130.865C99.8616 131.202 99.6738 131.78 99.8353 132.314L100.391 134.152C100.757 135.362 99.3911 136.354 98.3535 135.632L96.7776 134.536C96.3199 134.217 95.7122 134.217 95.2545 134.536L93.6786 135.632C92.6409 136.354 91.2747 135.362 91.6408 134.152L92.1968 132.314C92.3582 131.78 92.1705 131.202 91.7261 130.865L90.1962 129.706C89.1888 128.942 89.7107 127.336 90.9746 127.31L92.894 127.271C93.4516 127.26 93.9432 126.902 94.1263 126.376L94.7566 124.562Z" fill="white"/>
<path d="M110.757 124.562C111.172 123.368 112.86 123.368 113.275 124.562L113.906 126.376C114.089 126.902 114.58 127.26 115.138 127.271L117.058 127.31C118.321 127.336 118.843 128.942 117.836 129.706L116.306 130.865C115.862 131.202 115.674 131.78 115.835 132.314L116.391 134.152C116.757 135.362 115.391 136.354 114.353 135.632L112.778 134.536C112.32 134.217 111.712 134.217 111.254 134.536L109.679 135.632C108.641 136.354 107.275 135.362 107.641 134.152L108.197 132.314C108.358 131.78 108.17 131.202 107.726 130.865L106.196 129.706C105.189 128.942 105.711 127.336 106.975 127.31L108.894 127.271C109.452 127.26 109.943 126.902 110.126 126.376L110.757 124.562Z" fill="white"/>
<path d="M68.5427 153.332C68.4947 153.176 68.4707 153.008 68.4707 152.852C68.4707 152.204 68.8307 151.7 69.5627 151.7C70.2587 151.7 70.6067 152.132 70.6067 152.624C70.6067 153.14 70.3667 153.464 69.7547 153.824L68.4827 154.568C67.0547 155.396 66.6467 156.572 66.6467 158H72.5627V156.416H68.9627C69.0707 156.188 69.2627 156.032 69.4907 155.888L70.9667 155.012C71.9627 154.424 72.5027 153.596 72.5027 152.588C72.5027 151.196 71.3987 150.032 69.6107 150.032C67.7387 150.032 66.6947 151.28 66.6947 152.672C66.6947 152.912 66.7307 153.224 66.7667 153.32L68.5427 153.332ZM75.9608 154.112C75.9608 153.488 76.0328 152.876 76.2488 152.42C76.4648 151.988 76.8128 151.7 77.3888 151.7C77.9768 151.7 78.3128 151.988 78.5288 152.42C78.7568 152.876 78.8288 153.488 78.8288 154.112C78.8288 154.736 78.7568 155.348 78.5288 155.804C78.3128 156.236 77.9768 156.524 77.3888 156.524C76.8128 156.524 76.4648 156.236 76.2488 155.804C76.0328 155.348 75.9608 154.736 75.9608 154.112ZM74.0648 154.112C74.0648 155.072 74.2088 156.044 74.7488 156.86C75.2648 157.628 76.1288 158.192 77.3888 158.192C78.6608 158.192 79.5248 157.628 80.0408 156.86C80.5808 156.044 80.7248 155.072 80.7248 154.112C80.7248 153.152 80.5808 152.18 80.0408 151.364C79.5248 150.584 78.6608 150.032 77.3888 150.032C76.1288 150.032 75.2648 150.584 74.7488 151.364C74.2088 152.18 74.0648 153.152 74.0648 154.112ZM84.0808 153.332C84.0328 153.176 84.0088 153.008 84.0088 152.852C84.0088 152.204 84.3688 151.7 85.1008 151.7C85.7968 151.7 86.1448 152.132 86.1448 152.624C86.1448 153.14 85.9048 153.464 85.2928 153.824L84.0208 154.568C82.5928 155.396 82.1848 156.572 82.1848 158H88.1008V156.416H84.5008C84.6088 156.188 84.8008 156.032 85.0288 155.888L86.5048 155.012C87.5008 154.424 88.0408 153.596 88.0408 152.588C88.0408 151.196 86.9368 150.032 85.1488 150.032C83.2768 150.032 82.2328 151.28 82.2328 152.672C82.2328 152.912 82.2688 153.224 82.3048 153.32L84.0808 153.332ZM93.1069 158V150.212H91.4869C91.3549 151.004 90.5269 151.664 89.3629 151.676V152.936H91.2229V158H93.1069Z" fill="white"/>
<path d="M57.0342 29.8755L51.1642 24.0055C50.9613 23.817 50.6569 23.817 50.4685 24.0055L49.309 25.165L54.0195 29.8755C54.2079 30.0639 54.2079 30.3828 54.0195 30.5712L49.1641 35.4266L50.3236 36.5861C50.5265 36.7745 50.8309 36.7745 51.0193 36.5861L57.0197 30.5857C57.2227 30.3828 57.2227 30.0784 57.0342 29.8755Z" fill="#009C9C"/>
<path d="M47.0333 24.4416L46.613 24.0213C46.4101 23.8329 46.1057 23.8329 45.9173 24.0213L44.7578 25.1808L45.526 25.949L47.0333 27.4564L48.5407 25.949L47.0333 24.4416Z" fill="#40E3E3"/>
<path d="M46.9044 33.1665L45.3971 34.6739L44.6289 35.442L45.7884 36.6015C45.9913 36.79 46.2957 36.79 46.4841 36.6015L46.9044 36.1812L48.4118 34.6739L46.9044 33.1665Z" fill="#40E3E3"/>
<path d="M49.4842 29.8754C49.6726 30.0783 49.6726 30.3827 49.4842 30.5711L46.9043 33.151L48.4117 34.6584L52.4989 30.5711C52.6873 30.3827 52.6873 30.0639 52.4989 29.8754L48.5566 25.9331L47.0347 27.4405L49.4842 29.8754Z" fill="#1ABAB8"/>
<path d="M39.9033 30.0204L43.9906 25.9331L42.4832 24.4258L42.0484 24.0055C41.8455 23.817 41.5411 23.817 41.3527 24.0055L35.3523 30.0204C35.1638 30.2088 35.1638 30.5277 35.3523 30.7161L41.2223 36.5861C41.4252 36.7745 41.7296 36.7745 41.918 36.5861L42.3528 36.1658L43.8602 34.6584L39.9178 30.7161C39.7149 30.5277 39.7149 30.2233 39.9033 30.0204Z" fill="#87F0F0"/>
<path d="M44.4533 30.0218L46.2505 28.2245L44.7432 26.7172L43.975 25.949L39.9167 30.0362C39.7283 30.2247 39.7283 30.5435 39.9167 30.732L43.8445 34.6598L44.6127 33.8916L46.1201 32.3843L44.4533 30.7175C44.2649 30.5435 44.2649 30.2247 44.4533 30.0218Z" fill="#40E3E3"/>
<path d="M44.4547 30.7165L46.1215 32.3833L47.9187 30.586C48.1071 30.3976 48.1071 30.0787 47.9187 29.8903L46.2519 28.2235L44.4547 30.0207C44.2807 30.2237 44.2807 30.528 44.4547 30.7165Z" fill="#17CFCF"/>
<path d="M61.7458 28.6436C61.7603 27.9769 61.8907 27.3247 62.1371 26.7015C62.369 26.1362 62.7169 25.6144 63.1517 25.1941C63.63 24.7593 64.1952 24.4259 64.804 24.223C65.5432 23.9766 66.3258 23.8607 67.094 23.8752C67.9637 23.8462 68.8333 23.9766 69.6449 24.2665C70.2247 24.4839 70.7755 24.8028 71.2393 25.2231C71.6016 25.542 71.877 25.9333 72.0654 26.3681C72.2104 26.687 72.2973 27.0203 72.3408 27.3682C72.3553 27.4986 72.3118 27.6291 72.2104 27.716C72.1089 27.803 71.9929 27.8465 71.8625 27.8465H70.4276C70.3117 27.8465 70.2102 27.8175 70.1232 27.745C70.0508 27.6871 69.9928 27.6146 69.9638 27.5421C69.9348 27.4986 69.8768 27.3972 69.7754 27.2377C69.6449 27.0493 69.4855 26.8754 69.2971 26.745C69.0362 26.5565 68.7463 26.3971 68.4419 26.2812C68.0216 26.1362 67.5578 26.0637 67.1085 26.0782C66.3403 26.0348 65.5722 26.2956 64.9779 26.7884C64.4416 27.2812 64.1373 27.9769 64.1228 28.7161C64.0938 29.1654 64.0938 29.6437 64.0938 30.1655C64.0938 30.6728 64.0938 31.1656 64.1228 31.6149C64.1518 32.6005 64.4416 33.3107 64.9779 33.7455C65.5867 34.2093 66.3403 34.4412 67.094 34.4122C67.4998 34.4122 67.9057 34.3687 68.297 34.2673C68.6449 34.1803 68.9637 34.0209 69.2391 33.8035C69.5145 33.5861 69.7319 33.2962 69.8623 32.9628C70.0218 32.557 70.0943 32.1222 70.0798 31.6874V31.5424H67.9202C67.7897 31.5424 67.6738 31.4989 67.5868 31.3975C67.4998 31.3105 67.4419 31.1946 67.4419 31.0641V29.8032C67.4419 29.5423 67.6593 29.3249 67.9202 29.3249H72.0074C72.2683 29.3249 72.4857 29.5423 72.4857 29.8032V31.7453C72.5002 32.4121 72.3843 33.0788 72.1524 33.702C71.935 34.2818 71.5871 34.8035 71.1378 35.2384C70.6595 35.6877 70.0798 36.0355 69.4565 36.2529C67.9347 36.7312 66.2969 36.7312 64.7605 36.2529C64.1518 36.05 63.5865 35.7167 63.1227 35.2818C62.6879 34.847 62.34 34.3252 62.1226 33.7455C61.8907 33.1223 61.7603 32.4555 61.7458 31.7888C61.7458 31.5714 61.7313 31.3105 61.7168 31.0496C61.7168 30.7742 61.7168 30.4989 61.7168 30.209C61.7168 29.9191 61.7168 29.6437 61.7168 29.3828C61.7168 29.1075 61.7313 28.8756 61.7458 28.6436Z" fill="white"/>
<path d="M77.9483 29.1955C77.6439 29.181 77.3541 29.239 77.0642 29.3404C76.8323 29.4274 76.6294 29.5578 76.4554 29.7318C76.296 29.8767 76.1656 30.0651 76.0786 30.268C75.9916 30.442 75.9337 30.6304 75.9192 30.8188H79.9195C79.8905 30.6304 79.847 30.442 79.789 30.268C79.7166 30.0651 79.6151 29.8912 79.4702 29.7318C79.3107 29.5578 79.1078 29.4274 78.8904 29.3404C78.586 29.2245 78.2672 29.181 77.9483 29.1955ZM73.6146 31.8479C73.6146 31.2101 73.7161 30.5869 73.919 29.9782C74.1074 29.4129 74.3973 28.8911 74.7886 28.4418C75.1655 28.007 75.6438 27.6592 76.1656 27.4272C76.7308 27.1809 77.3396 27.0504 77.9483 27.0504C78.557 27.0359 79.1658 27.1664 79.7311 27.4128C80.2528 27.6447 80.7311 27.978 81.1225 28.3983C81.4993 28.8187 81.8037 29.297 82.0066 29.8332C82.2095 30.384 82.3255 30.9638 82.311 31.558V32.3552C82.311 32.6161 82.0936 32.8335 81.8327 32.8335H75.9192C75.9192 33.0799 75.9771 33.3263 76.0786 33.5437C76.1945 33.7466 76.3395 33.9205 76.5279 34.0509C76.7308 34.1959 76.9482 34.2973 77.1801 34.3698C77.4265 34.4423 77.6874 34.4713 77.9483 34.4713C78.2527 34.4858 78.5715 34.4423 78.8759 34.3553C79.0788 34.2973 79.2817 34.1959 79.4557 34.0654C79.5571 33.993 79.6586 33.9205 79.7745 33.8625C79.876 33.819 79.9919 33.8045 80.1079 33.8045H81.5283C81.6587 33.8045 81.7892 33.8625 81.8761 33.9495C81.9776 34.0365 82.0211 34.1524 82.0066 34.2828C81.9631 34.5147 81.8761 34.7322 81.7312 34.9206C81.5283 35.2249 81.2674 35.4858 80.963 35.6888C80.5717 35.9641 80.1369 36.1815 79.6876 36.3265C79.1223 36.5149 78.5281 36.6019 77.9483 36.5874C77.3396 36.5874 76.7308 36.4714 76.1656 36.2395C75.6438 36.0221 75.1655 35.6888 74.7886 35.2684C74.3973 34.8191 74.1074 34.3118 73.919 33.7466C73.7016 33.1523 73.6001 32.5001 73.6146 31.8479Z" fill="white"/>
<path d="M86.5592 33.1235C86.5447 33.4424 86.6462 33.7613 86.8491 33.9932C87.0375 34.2106 87.3999 34.3265 87.9361 34.3265H89.0087C89.2696 34.3265 89.487 34.5439 89.487 34.8048V35.9788C89.487 36.2397 89.2696 36.4571 89.0087 36.4571H87.6897C86.5737 36.4571 85.7331 36.1818 85.1388 35.6455C84.5446 35.1092 84.2547 34.2831 84.2402 33.1815V29.3696H83.0662C82.9357 29.3696 82.8198 29.3262 82.7328 29.2247C82.6459 29.1377 82.5879 29.0218 82.5879 28.8913V27.7173C82.5879 27.5869 82.6314 27.4709 82.7328 27.384C82.8198 27.297 82.9357 27.239 83.0662 27.239H84.2402V24.3548C84.2402 24.0939 84.4576 23.8765 84.7185 23.8765H86.0664C86.3273 23.8765 86.5447 24.0939 86.5447 24.3548V27.239H88.8347C89.0956 27.2535 89.2841 27.4564 89.2986 27.7173V28.8913C89.2986 29.1522 89.0811 29.3696 88.8203 29.3696H86.5302L86.5592 33.1235Z" fill="white"/>
<path d="M98.1974 31.8324L96.2407 26.7885L94.2985 31.8324H98.1974ZM97.2118 24.0492C97.3712 24.0347 97.5162 24.0927 97.6321 24.1941C97.7481 24.3246 97.835 24.484 97.893 24.6434L102.227 35.8472C102.241 35.8907 102.241 35.9342 102.241 35.9632C102.241 36.224 102.024 36.4415 101.763 36.4415H100.487C100.313 36.456 100.125 36.4125 99.9946 36.2965C99.9076 36.2096 99.8497 36.1081 99.8062 36.0066L99.038 34.0355H93.4434L92.6752 36.0066C92.6317 36.1226 92.5593 36.2096 92.4868 36.2965C92.3418 36.4125 92.1679 36.4704 91.994 36.4415H90.7185C90.4576 36.4415 90.2402 36.224 90.2402 35.9632C90.2402 35.9197 90.2402 35.8762 90.2547 35.8472L94.5884 24.6434C94.6464 24.484 94.7333 24.3246 94.8493 24.1941C94.9652 24.0927 95.1247 24.0347 95.2696 24.0492H97.2118Z" fill="white"/>
<path d="M109.836 32.3402C109.865 32.0069 109.865 31.6735 109.836 31.3546C109.763 30.5865 109.531 30.0357 109.126 29.7023C108.72 29.3545 108.198 29.1806 107.662 29.195C107.125 29.1806 106.604 29.3545 106.198 29.7023C105.777 30.0792 105.546 30.6154 105.517 31.1662C105.488 31.3836 105.473 31.6155 105.488 31.8329C105.488 32.0648 105.502 32.2822 105.517 32.4996C105.546 33.0504 105.792 33.5722 106.198 33.949C106.604 34.3114 107.125 34.4998 107.662 34.4853C108.198 34.4998 108.72 34.3114 109.126 33.978C109.531 33.6447 109.763 33.0939 109.836 32.3402ZM108.198 36.6304C107.865 36.6304 107.531 36.6014 107.212 36.5289C106.951 36.471 106.691 36.384 106.444 36.2681C106.256 36.1666 106.067 36.0506 105.893 35.9057C105.763 35.8042 105.633 35.6883 105.517 35.5579V39.3263C105.517 39.5871 105.299 39.8046 105.038 39.8046H103.705C103.444 39.8046 103.227 39.5871 103.227 39.3263V27.7167C103.227 27.4558 103.444 27.2384 103.705 27.2384H105.053C105.314 27.2384 105.531 27.4558 105.531 27.7167V28.1225C105.647 27.9921 105.763 27.8761 105.908 27.7746C106.082 27.6442 106.27 27.5283 106.473 27.4268C106.72 27.3108 106.98 27.2239 107.241 27.1659C107.56 27.0934 107.894 27.0644 108.227 27.0644C108.778 27.05 109.328 27.1804 109.836 27.4123C110.3 27.6297 110.72 27.9486 111.053 28.3399C111.401 28.7312 111.662 29.1806 111.85 29.6733C112.039 30.1806 112.155 30.7024 112.184 31.2387C112.198 31.4126 112.198 31.6155 112.198 31.8619C112.198 32.1083 112.198 32.3112 112.184 32.4852C112.155 33.0214 112.053 33.5577 111.85 34.0505C111.662 34.5433 111.401 34.9926 111.053 35.3839C110.72 35.7753 110.3 36.0796 109.836 36.3115C109.299 36.5289 108.749 36.6449 108.198 36.6304Z" fill="white"/>
<path d="M119.851 32.3402C119.88 32.0069 119.88 31.6735 119.851 31.3546C119.779 30.5865 119.547 30.0357 119.141 29.7023C118.735 29.3545 118.213 29.1806 117.677 29.195C117.141 29.1806 116.619 29.3545 116.213 29.7023C115.793 30.0792 115.561 30.6154 115.532 31.1662C115.503 31.3836 115.488 31.6155 115.503 31.8329C115.503 32.0648 115.517 32.2822 115.532 32.4996C115.561 33.0504 115.807 33.5722 116.213 33.949C116.619 34.3114 117.141 34.4998 117.677 34.4853C118.213 34.4998 118.735 34.3114 119.141 33.978C119.547 33.6447 119.779 33.0939 119.851 32.3402ZM118.199 36.6159C117.865 36.6159 117.532 36.5869 117.213 36.5144C116.952 36.4565 116.691 36.3695 116.445 36.2536C116.242 36.1521 116.054 36.0361 115.894 35.9057C115.764 35.8042 115.633 35.6883 115.517 35.5579V39.3263C115.517 39.4567 115.459 39.5727 115.372 39.6596C115.286 39.7466 115.17 39.8046 115.039 39.8046H113.691C113.43 39.8046 113.213 39.5871 113.213 39.3263V27.7167C113.213 27.4558 113.43 27.2384 113.691 27.2384H115.039C115.3 27.2384 115.517 27.4558 115.517 27.7167V28.1225C115.633 27.9921 115.764 27.8761 115.894 27.7746C116.068 27.6442 116.257 27.5283 116.445 27.4268C116.691 27.3108 116.952 27.2239 117.213 27.1659C117.532 27.0934 117.865 27.0644 118.199 27.0644C118.75 27.05 119.3 27.1804 119.808 27.4123C120.271 27.6297 120.692 27.9486 121.025 28.3399C121.373 28.7312 121.634 29.1806 121.822 29.6733C122.011 30.1806 122.127 30.7024 122.156 31.2387C122.17 31.4126 122.17 31.6155 122.17 31.8619C122.17 32.1083 122.17 32.3112 122.156 32.4852C122.127 33.0214 122.025 33.5577 121.822 34.0505C121.634 34.5433 121.373 34.9926 121.025 35.3839C120.677 35.7753 120.271 36.0796 119.808 36.3115C119.3 36.5434 118.75 36.6594 118.199 36.6594" fill="white"/>
</svg>
