<svg width="160" height="180" viewBox="0 0 160 180" fill="none" xmlns="http://www.w3.org/2000/svg">
<path d="M12 12C12 5.37258 17.3726 0 24 0H80H136C142.627 0 148 5.37258 148 12V152.845C148 158.296 144.327 163.062 139.056 164.45L84.0741 178.927C81.4036 179.63 78.5964 179.63 75.9259 178.927L20.9444 164.45C15.6735 163.062 12 158.296 12 152.845V12Z" fill="#4584FF"/>
<rect y="56" width="160" height="52" rx="8" fill="#3466F2"/>
<path d="M60.6638 66.656V78H65.2398C67.3838 78 68.7918 76.64 68.7918 74.784C68.7918 73.312 67.7998 72.368 66.7758 72.128C67.7038 71.824 68.4398 70.864 68.4398 69.696C68.4398 67.952 67.1438 66.656 64.9038 66.656H60.6638ZM63.1278 71.2V68.752H64.4718C65.4638 68.752 65.9598 69.232 65.9598 69.968C65.9598 70.736 65.3838 71.2 64.5038 71.2H63.1278ZM63.1278 75.936V73.28H64.7118C65.7038 73.28 66.2798 73.824 66.2798 74.608C66.2798 75.424 65.6878 75.936 64.7118 75.936H63.1278ZM78.5663 78V75.6H73.8943V73.424H78.1183V71.2H73.8943V69.04H78.5503V66.656H71.3663V78H78.5663ZM89.1591 69.44C88.9191 68.112 87.8471 66.416 85.0151 66.416C82.8391 66.416 80.9511 67.92 80.9511 70.064C80.9511 71.744 82.1191 73.024 84.0391 73.392L85.5911 73.68C86.3431 73.824 86.8071 74.24 86.8071 74.816C86.8071 75.52 86.1991 76 85.2071 76C83.6551 76 82.9511 75.088 82.8551 74.048L80.5351 74.608C80.6951 76.208 82.0391 78.24 85.1751 78.24C87.8791 78.24 89.3671 76.432 89.3671 74.656C89.3671 73.04 88.2471 71.648 86.0871 71.248L84.5671 70.96C83.7831 70.816 83.4471 70.416 83.4471 69.872C83.4471 69.248 84.0551 68.656 84.9991 68.656C86.3751 68.656 86.8071 69.552 86.8871 70.08L89.1591 69.44ZM100.346 69.072V66.656H90.8257V69.072H94.3137V78H96.8417V69.072H100.346ZM58.6961 92.64L55.9601 84.656H53.1761L57.3361 96H59.9441L64.0881 84.656H61.4001L58.6961 92.64ZM72.7534 96H75.5054L71.2814 84.656H68.3534L64.0814 96H66.7374L67.5534 93.696H71.9374L72.7534 96ZM69.7774 87.472L71.1374 91.392H68.3854L69.7774 87.472ZM84.9696 96V93.584H80.0736V84.656H77.5456V96H84.9696ZM91.3509 96.256C93.8469 96.256 95.8469 94.752 95.8469 91.904V84.656H93.3189V91.696C93.3189 93.072 92.5509 93.76 91.3509 93.76C90.1509 93.76 89.3829 93.072 89.3829 91.696V84.656H86.8549V91.904C86.8549 94.752 88.8549 96.256 91.3509 96.256ZM106.135 96V93.6H101.463V91.424H105.687V89.2H101.463V87.04H106.119V84.656H98.935V96H106.135Z" fill="white"/>
<path d="M46.7566 124.562C47.1717 123.368 48.8604 123.368 49.2755 124.562L49.9058 126.376C50.0889 126.902 50.5805 127.26 51.1381 127.271L53.0575 127.31C54.3214 127.336 54.8433 128.942 53.8359 129.706L52.306 130.865C51.8616 131.202 51.6738 131.78 51.8353 132.314L52.3913 134.152C52.7573 135.362 51.3911 136.354 50.3535 135.632L48.7776 134.536C48.3199 134.217 47.7122 134.217 47.2545 134.536L45.6786 135.632C44.6409 136.354 43.2747 135.362 43.6408 134.152L44.1968 132.314C44.3582 131.78 44.1705 131.202 43.7261 130.865L42.1962 129.706C41.1888 128.942 41.7107 127.336 42.9746 127.31L44.894 127.271C45.4516 127.26 45.9432 126.902 46.1263 126.376L46.7566 124.562Z" fill="white"/>
<path d="M62.7566 124.562C63.1717 123.368 64.8604 123.368 65.2755 124.562L65.9058 126.376C66.0889 126.902 66.5805 127.26 67.1381 127.271L69.0575 127.31C70.3214 127.336 70.8433 128.942 69.8359 129.706L68.306 130.865C67.8616 131.202 67.6738 131.78 67.8353 132.314L68.3913 134.152C68.7573 135.362 67.3911 136.354 66.3535 135.632L64.7776 134.536C64.3199 134.217 63.7122 134.217 63.2545 134.536L61.6786 135.632C60.6409 136.354 59.2747 135.362 59.6408 134.152L60.1968 132.314C60.3582 131.78 60.1705 131.202 59.7261 130.865L58.1962 129.706C57.1888 128.942 57.7107 127.336 58.9746 127.31L60.894 127.271C61.4516 127.26 61.9432 126.902 62.1263 126.376L62.7566 124.562Z" fill="white"/>
<path d="M78.7566 124.562C79.1717 123.368 80.8604 123.368 81.2755 124.562L81.9058 126.376C82.0889 126.902 82.5805 127.26 83.1381 127.271L85.0575 127.31C86.3214 127.336 86.8433 128.942 85.8359 129.706L84.306 130.865C83.8616 131.202 83.6738 131.78 83.8353 132.314L84.3913 134.152C84.7573 135.362 83.3911 136.354 82.3535 135.632L80.7776 134.536C80.3199 134.217 79.7122 134.217 79.2545 134.536L77.6786 135.632C76.6409 136.354 75.2747 135.362 75.6408 134.152L76.1968 132.314C76.3582 131.78 76.1705 131.202 75.7261 130.865L74.1962 129.706C73.1888 128.942 73.7107 127.336 74.9746 127.31L76.894 127.271C77.4516 127.26 77.9432 126.902 78.1263 126.376L78.7566 124.562Z" fill="white"/>
<path d="M94.7566 124.562C95.1717 123.368 96.8604 123.368 97.2755 124.562L97.9058 126.376C98.0889 126.902 98.5805 127.26 99.1381 127.271L101.058 127.31C102.321 127.336 102.843 128.942 101.836 129.706L100.306 130.865C99.8616 131.202 99.6738 131.78 99.8353 132.314L100.391 134.152C100.757 135.362 99.3911 136.354 98.3535 135.632L96.7776 134.536C96.3199 134.217 95.7122 134.217 95.2545 134.536L93.6786 135.632C92.6409 136.354 91.2747 135.362 91.6408 134.152L92.1968 132.314C92.3582 131.78 92.1705 131.202 91.7261 130.865L90.1962 129.706C89.1888 128.942 89.7107 127.336 90.9746 127.31L92.894 127.271C93.4516 127.26 93.9432 126.902 94.1263 126.376L94.7566 124.562Z" fill="white"/>
<path d="M110.757 124.562C111.172 123.368 112.86 123.368 113.275 124.562L113.906 126.376C114.089 126.902 114.58 127.26 115.138 127.271L117.058 127.31C118.321 127.336 118.843 128.942 117.836 129.706L116.306 130.865C115.862 131.202 115.674 131.78 115.835 132.314L116.391 134.152C116.757 135.362 115.391 136.354 114.353 135.632L112.778 134.536C112.32 134.217 111.712 134.217 111.254 134.536L109.679 135.632C108.641 136.354 107.275 135.362 107.641 134.152L108.197 132.314C108.358 131.78 108.17 131.202 107.726 130.865L106.196 129.706C105.189 128.942 105.711 127.336 106.975 127.31L108.894 127.271C109.452 127.26 109.943 126.902 110.126 126.376L110.757 124.562Z" fill="white"/>
<path d="M68.5427 153.332C68.4947 153.176 68.4707 153.008 68.4707 152.852C68.4707 152.204 68.8307 151.7 69.5627 151.7C70.2587 151.7 70.6067 152.132 70.6067 152.624C70.6067 153.14 70.3667 153.464 69.7547 153.824L68.4827 154.568C67.0547 155.396 66.6467 156.572 66.6467 158H72.5627V156.416H68.9627C69.0707 156.188 69.2627 156.032 69.4907 155.888L70.9667 155.012C71.9627 154.424 72.5027 153.596 72.5027 152.588C72.5027 151.196 71.3987 150.032 69.6107 150.032C67.7387 150.032 66.6947 151.28 66.6947 152.672C66.6947 152.912 66.7307 153.224 66.7667 153.32L68.5427 153.332ZM75.9608 154.112C75.9608 153.488 76.0328 152.876 76.2488 152.42C76.4648 151.988 76.8128 151.7 77.3888 151.7C77.9768 151.7 78.3128 151.988 78.5288 152.42C78.7568 152.876 78.8288 153.488 78.8288 154.112C78.8288 154.736 78.7568 155.348 78.5288 155.804C78.3128 156.236 77.9768 156.524 77.3888 156.524C76.8128 156.524 76.4648 156.236 76.2488 155.804C76.0328 155.348 75.9608 154.736 75.9608 154.112ZM74.0648 154.112C74.0648 155.072 74.2088 156.044 74.7488 156.86C75.2648 157.628 76.1288 158.192 77.3888 158.192C78.6608 158.192 79.5248 157.628 80.0408 156.86C80.5808 156.044 80.7248 155.072 80.7248 154.112C80.7248 153.152 80.5808 152.18 80.0408 151.364C79.5248 150.584 78.6608 150.032 77.3888 150.032C76.1288 150.032 75.2648 150.584 74.7488 151.364C74.2088 152.18 74.0648 153.152 74.0648 154.112ZM84.0808 153.332C84.0328 153.176 84.0088 153.008 84.0088 152.852C84.0088 152.204 84.3688 151.7 85.1008 151.7C85.7968 151.7 86.1448 152.132 86.1448 152.624C86.1448 153.14 85.9048 153.464 85.2928 153.824L84.0208 154.568C82.5928 155.396 82.1848 156.572 82.1848 158H88.1008V156.416H84.5008C84.6088 156.188 84.8008 156.032 85.0288 155.888L86.5048 155.012C87.5008 154.424 88.0408 153.596 88.0408 152.588C88.0408 151.196 86.9368 150.032 85.1488 150.032C83.2768 150.032 82.2328 151.28 82.2328 152.672C82.2328 152.912 82.2688 153.224 82.3048 153.32L84.0808 153.332ZM93.1069 158V150.212H91.4869C91.3549 151.004 90.5269 151.664 89.3629 151.676V152.936H91.2229V158H93.1069Z" fill="white"/>
<path d="M34.0391 27.2872H42.2336H47.21V22.3556L34.0391 27.2872Z" fill="#FF9D28"/>
<path d="M47.2109 22.3556V39.7877L53.4388 20.0314L47.2109 22.3556Z" fill="#68C5ED"/>
<path d="M47.2107 27.2872H42.2344L47.2107 39.7728V27.2872Z" fill="#044D80"/>
<path d="M34.0391 27.2872L43.515 30.4906L42.2336 27.2872H34.0391Z" fill="#E54747"/>
<path d="M64.2245 35.1838C64.15 35.2583 64.0308 35.3477 63.8669 35.4519C63.703 35.5562 63.4795 35.6754 63.2113 35.7797C62.9431 35.884 62.6153 35.9883 62.2131 36.0628C61.8257 36.1373 61.3787 36.182 60.8721 36.182C59.9037 36.182 59.0544 36.0181 58.3393 35.7201C57.6241 35.4073 57.043 34.9752 56.5812 34.409C56.1193 33.8428 55.7766 33.1873 55.568 32.4274C55.3445 31.6675 55.2402 30.8183 55.2402 29.9094C55.2402 29.0006 55.3594 28.1513 55.5978 27.3766C55.8362 26.6018 56.1789 25.9314 56.6557 25.3652C57.1175 24.799 57.7135 24.352 58.4138 24.0392C59.114 23.7263 59.9484 23.5624 60.9019 23.5624C61.3638 23.5624 61.7959 23.6071 62.1684 23.6816C62.5408 23.771 62.8835 23.8604 63.1666 23.9796C63.4497 24.0987 63.6881 24.2179 63.8669 24.3371C64.0606 24.4563 64.1947 24.5755 64.2841 24.65C64.3884 24.7394 64.4926 24.8586 64.5671 24.9927C64.6416 25.1268 64.6863 25.2758 64.6863 25.4248C64.6863 25.6632 64.5969 25.9016 64.4181 26.1399C64.2394 26.3783 64.0457 26.6018 63.8222 26.8104C63.6732 26.6614 63.5093 26.5124 63.3305 26.3634C63.1517 26.2144 62.9431 26.0803 62.7196 25.9612C62.4962 25.842 62.2429 25.7526 61.9598 25.6781C61.6767 25.6036 61.3638 25.5589 61.0062 25.5589C60.3954 25.5589 59.8739 25.6781 59.4567 25.9314C59.0395 26.1846 58.7118 26.4975 58.4585 26.8998C58.2052 27.3021 58.0264 27.7491 57.9221 28.2556C57.8178 28.7622 57.7582 29.2837 57.7582 29.82C57.7582 30.3862 57.8178 30.9226 57.9221 31.4441C58.0264 31.9655 58.2201 32.4125 58.4883 32.8148C58.7564 33.2171 59.0991 33.53 59.5312 33.7683C59.9633 34.0067 60.4848 34.1259 61.1254 34.1259C61.4681 34.1259 61.7661 34.0812 62.0492 34.0067C62.3323 33.9173 62.5855 33.813 62.7941 33.6938C63.0176 33.5746 63.1964 33.4406 63.3603 33.3214C63.5242 33.1873 63.6583 33.0681 63.7626 32.9787C63.8371 33.0681 63.9116 33.1724 64.0159 33.2916C64.1202 33.4108 64.2096 33.5448 64.2841 33.664C64.3735 33.7981 64.433 33.9322 64.5075 34.0663C64.5671 34.2004 64.5969 34.3196 64.5969 34.4239C64.5969 34.5878 64.5671 34.707 64.5075 34.8262C64.4479 34.9305 64.3437 35.0497 64.2245 35.1838ZM73.5216 33.7981C73.5216 34.7517 73.6557 35.452 73.9387 35.884C73.7153 35.9734 73.5216 36.033 73.3279 36.0628C73.1342 36.0926 72.9405 36.1224 72.7319 36.1224C72.2998 36.1224 71.972 36.033 71.7486 35.8691C71.5251 35.7052 71.3761 35.452 71.3165 35.1391C71.0483 35.4222 70.7056 35.6605 70.2586 35.8542C69.8266 36.0479 69.2902 36.1373 68.6644 36.1373C68.3366 36.1373 68.0089 36.0926 67.6811 36.0032C67.3533 35.9138 67.0553 35.7648 66.7871 35.5562C66.5189 35.3477 66.3103 35.0795 66.1316 34.7368C65.9677 34.3941 65.8783 33.9769 65.8783 33.4853C65.8783 32.8744 66.0273 32.3678 66.3252 31.9804C66.6232 31.5931 66.9957 31.2951 67.4427 31.0716C67.8897 30.8481 68.3813 30.6991 68.8879 30.6097C69.4094 30.5203 69.8862 30.4756 70.3182 30.4458C70.4672 30.4309 70.6013 30.4309 70.7503 30.4309H71.1377V30.1031C71.1377 29.6413 71.0185 29.3135 70.7652 29.1049C70.5119 28.9112 70.1096 28.8069 69.5584 28.8069C69.0369 28.8069 68.575 28.8963 68.1728 29.0602C67.7705 29.2241 67.3682 29.4178 66.9808 29.6413C66.8169 29.4327 66.6679 29.2092 66.5785 28.9559C66.4742 28.7026 66.4295 28.5238 66.4295 28.4046C66.4295 28.2407 66.5189 28.0768 66.7126 27.9129C66.9063 27.7491 67.1596 27.615 67.4874 27.4809C67.8152 27.3468 68.1876 27.2574 68.6197 27.168C69.0369 27.0935 69.4839 27.0488 69.9607 27.0488C70.6162 27.0488 71.1675 27.1084 71.6145 27.2425C72.0614 27.3766 72.4339 27.5852 72.717 27.8533C73.0001 28.1364 73.2087 28.4791 73.3279 28.8963C73.4471 29.3135 73.5067 29.8051 73.5067 30.3564L73.5216 33.7981ZM71.1973 31.6973H70.944C70.8546 31.6973 70.7801 31.6973 70.6907 31.7122C70.3927 31.742 70.0947 31.7718 69.7968 31.8165C69.4988 31.8612 69.2306 31.9506 69.0071 32.0698C68.7836 32.189 68.5899 32.3529 68.4409 32.5466C68.2919 32.7403 68.2174 32.9936 68.2174 33.2916C68.2174 33.6342 68.3068 33.9173 68.5005 34.1557C68.6942 34.3941 69.022 34.5133 69.4839 34.5133C69.7074 34.5133 69.9309 34.4835 70.1394 34.4239C70.348 34.3643 70.5268 34.2898 70.6907 34.1855C70.8546 34.0812 70.9738 33.9769 71.0632 33.8726C71.1526 33.7534 71.1973 33.6491 71.1973 33.5598V31.6973ZM78.036 28.1215C78.2297 27.898 78.5277 27.6597 78.9449 27.4213C79.3621 27.1829 79.8686 27.0637 80.4944 27.0637C80.9414 27.0637 81.3735 27.1382 81.7757 27.2872C82.178 27.4362 82.5356 27.6895 82.8485 28.0172C83.1614 28.3599 83.4146 28.8069 83.5934 29.3582C83.7871 29.9094 83.8765 30.5948 83.8765 31.4143C83.8765 32.3529 83.7722 33.1426 83.5487 33.7534C83.3253 34.3643 83.0571 34.856 82.7144 35.1987C82.3717 35.5562 81.9843 35.8095 81.5671 35.9585C81.15 36.1075 80.7179 36.182 80.3007 36.182C79.958 36.182 79.6451 36.1373 79.3919 36.0628C79.1386 35.9883 78.9151 35.8989 78.7363 35.7946C78.5575 35.7052 78.4234 35.6009 78.3191 35.5115C78.2297 35.4222 78.1552 35.3477 78.1403 35.3179V39.7876H75.6671V27.3319C75.7267 27.317 75.8011 27.3021 75.8905 27.3021C75.965 27.2872 76.0544 27.2872 76.1438 27.2723C76.2481 27.2723 76.3524 27.2574 76.4865 27.2574C76.8888 27.2574 77.2315 27.317 77.5146 27.4511C77.7827 27.5852 77.9615 27.8087 78.036 28.1215ZM81.3139 31.4739C81.3139 31.1163 81.2841 30.7736 81.2245 30.4607C81.1649 30.1478 81.0606 29.8796 80.9265 29.6413C80.7924 29.4178 80.5987 29.239 80.3603 29.1049C80.1219 28.9708 79.8388 28.9112 79.4962 28.9112C78.9896 28.9112 78.632 29.0155 78.4383 29.1943C78.2446 29.388 78.1403 29.5966 78.1403 29.8349V33.6938C78.2297 33.7981 78.4085 33.9024 78.6618 34.0365C78.9151 34.1706 79.1982 34.2302 79.526 34.2302C80.1368 34.2302 80.5838 33.9918 80.8818 33.5002C81.1649 33.0234 81.3139 32.3529 81.3139 31.4739ZM85.7836 34.6027C85.6942 34.3643 85.6495 34.111 85.6197 33.8428C85.5899 33.5746 85.5899 33.3065 85.5899 33.0383V24.6202C85.6793 24.6053 85.7687 24.5904 85.8581 24.5904C85.9475 24.5755 86.0369 24.5755 86.1263 24.5606C86.2157 24.5606 86.32 24.5457 86.4094 24.5457C86.6031 24.5457 86.7968 24.5606 86.9905 24.6053C87.1841 24.6351 87.3629 24.7096 87.5119 24.8288C87.6758 24.9331 87.795 25.0821 87.8993 25.2758C87.9887 25.4695 88.0483 25.7079 88.0483 26.0058V27.3021H90.5961V29.1347H88.0632V33.0085C88.0632 33.8577 88.4059 34.2749 89.0912 34.2749C89.2551 34.2749 89.419 34.2451 89.568 34.2004C89.717 34.1408 89.8511 34.0812 89.9703 34.0216C90.0895 33.962 90.1938 33.8875 90.2832 33.813C90.3726 33.7385 90.4322 33.6789 90.4769 33.6491C90.6557 33.9173 90.8047 34.1408 90.8941 34.3345C90.9834 34.5282 91.043 34.707 91.043 34.8858C91.043 35.0497 90.9834 35.1987 90.8494 35.3477C90.7153 35.4966 90.5365 35.6456 90.313 35.7648C90.0895 35.8989 89.8064 36.0032 89.4786 36.0777C89.1508 36.1522 88.7933 36.1969 88.4059 36.1969C87.6609 36.1969 87.065 36.0479 86.6478 35.7648C86.2604 35.4519 85.9624 35.0795 85.7836 34.6027ZM96.8537 34.3643C97.1517 34.3643 97.4199 34.3345 97.6583 34.26C97.8818 34.2004 98.0904 34.111 98.2841 34.0216C98.4629 33.9322 98.6267 33.813 98.7608 33.7087C98.8949 33.5895 99.0141 33.4853 99.1184 33.3959C99.2674 33.5746 99.4164 33.813 99.5803 34.0961C99.7442 34.3792 99.8187 34.6176 99.8187 34.7964C99.8187 35.0646 99.6697 35.303 99.3717 35.5264C99.1184 35.7201 98.7608 35.884 98.2841 36.033C97.8222 36.1671 97.2709 36.2416 96.6451 36.2416C96.079 36.2416 95.5128 36.1671 94.9615 36.0181C94.4103 35.8691 93.9186 35.6158 93.4865 35.2583C93.0544 34.9007 92.7118 34.409 92.4436 33.7981C92.1754 33.1873 92.0413 32.4125 92.0413 31.4888C92.0413 30.7289 92.1605 30.0733 92.3989 29.5221C92.6373 28.9708 92.9501 28.5089 93.3375 28.1513C93.7249 27.7938 94.1719 27.5256 94.6785 27.3468C95.1701 27.1829 95.6767 27.0935 96.1982 27.0935C96.8686 27.0935 97.4497 27.1978 97.9265 27.4064C98.4033 27.615 98.7757 27.898 99.0737 28.2556C99.3717 28.6132 99.5803 29.0155 99.7144 29.4774C99.8485 29.9392 99.9081 30.416 99.9081 30.9226V31.1759C99.9081 31.2802 99.9081 31.3696 99.8932 31.4888C99.8932 31.5931 99.8783 31.6973 99.8783 31.8016C99.8783 31.9059 99.8634 31.9804 99.8485 32.04H94.4997C94.5444 32.7105 94.7529 33.2618 95.1254 33.7087C95.483 34.1408 96.0641 34.3643 96.8537 34.3643ZM97.6881 30.6842C97.6881 30.1031 97.5689 29.6264 97.3454 29.2688C97.1219 28.9112 96.7196 28.7175 96.1386 28.7175C95.632 28.7175 95.2446 28.8963 94.9466 29.239C94.6487 29.5817 94.4997 30.0584 94.4997 30.6842H97.6881ZM104.214 28.1662C104.288 28.0619 104.378 27.9427 104.497 27.8087C104.616 27.6746 104.765 27.5554 104.944 27.4511C105.123 27.3468 105.316 27.2574 105.525 27.1829C105.734 27.1084 105.957 27.0786 106.21 27.0786C106.359 27.0786 106.508 27.0935 106.672 27.1084C106.836 27.1382 106.985 27.1829 107.119 27.2425C107.253 27.3021 107.373 27.3915 107.462 27.5107C107.551 27.6299 107.596 27.764 107.596 27.9278C107.596 28.196 107.536 28.494 107.402 28.8367C107.268 29.1794 107.134 29.4774 107 29.7158C106.792 29.5519 106.583 29.4178 106.389 29.3284C106.181 29.239 105.942 29.1943 105.659 29.1943C105.287 29.1943 104.974 29.2986 104.721 29.5221C104.467 29.7456 104.333 29.9988 104.333 30.3117V36.182H101.86V27.317C101.919 27.3021 101.994 27.2872 102.083 27.2872C102.158 27.2723 102.247 27.2723 102.337 27.2574C102.426 27.2574 102.545 27.2425 102.679 27.2425C103.067 27.2425 103.409 27.317 103.692 27.466C103.961 27.6299 104.139 27.8534 104.214 28.1662ZM111.231 28.1662C111.306 28.0619 111.395 27.9427 111.515 27.8087C111.634 27.6746 111.783 27.5554 111.962 27.4511C112.14 27.3468 112.334 27.2574 112.543 27.1829C112.751 27.1084 112.975 27.0786 113.228 27.0786C113.377 27.0786 113.526 27.0935 113.69 27.1084C113.854 27.1382 114.003 27.1829 114.137 27.2425C114.271 27.3021 114.39 27.3915 114.479 27.5107C114.569 27.6299 114.614 27.764 114.614 27.9278C114.614 28.196 114.554 28.494 114.42 28.8367C114.286 29.1794 114.152 29.4774 114.018 29.7158C113.809 29.5519 113.6 29.4178 113.407 29.3284C113.198 29.239 112.96 29.1943 112.677 29.1943C112.304 29.1943 111.991 29.2986 111.738 29.5221C111.485 29.7456 111.351 29.9988 111.351 30.3117V36.182H108.877V27.317C108.937 27.3021 109.011 27.2872 109.101 27.2872C109.175 27.2723 109.265 27.2723 109.354 27.2574C109.444 27.2574 109.563 27.2425 109.697 27.2425C110.084 27.2425 110.427 27.317 110.71 27.466C110.978 27.6299 111.157 27.8534 111.231 28.1662ZM123.017 33.7981C123.017 34.7517 123.151 35.452 123.434 35.884C123.21 35.9734 123.017 36.033 122.823 36.0628C122.629 36.0926 122.436 36.1224 122.227 36.1224C121.795 36.1224 121.467 36.033 121.244 35.8691C121.02 35.7052 120.871 35.452 120.812 35.1391C120.543 35.4222 120.201 35.6605 119.754 35.8542C119.322 36.0479 118.785 36.1373 118.16 36.1373C117.832 36.1373 117.504 36.0926 117.176 36.0032C116.848 35.9138 116.55 35.7648 116.282 35.5562C116.014 35.3477 115.806 35.0795 115.627 34.7368C115.463 34.3941 115.373 33.9769 115.373 33.4853C115.373 32.8744 115.522 32.3678 115.82 31.9804C116.118 31.5931 116.491 31.2951 116.938 31.0716C117.385 30.8481 117.877 30.6991 118.383 30.6097C118.905 30.5203 119.381 30.4756 119.813 30.4458C119.962 30.4309 120.097 30.4309 120.245 30.4309H120.633V30.1031C120.633 29.6413 120.514 29.3135 120.26 29.1049C120.007 28.9112 119.605 28.8069 119.054 28.8069C118.532 28.8069 118.07 28.8963 117.668 29.0602C117.266 29.2241 116.863 29.4178 116.476 29.6413C116.312 29.4327 116.163 29.2092 116.074 28.9559C115.969 28.7026 115.925 28.5238 115.925 28.4046C115.925 28.2407 116.014 28.0768 116.208 27.9129C116.402 27.7491 116.655 27.615 116.983 27.4809C117.31 27.3468 117.683 27.2574 118.115 27.168C118.532 27.0935 118.979 27.0488 119.456 27.0488C120.111 27.0488 120.663 27.1084 121.11 27.2425C121.557 27.3766 121.929 27.5852 122.212 27.8533C122.495 28.1364 122.704 28.4791 122.823 28.8963C122.942 29.3135 123.002 29.8051 123.002 30.3564L123.017 33.7981ZM120.692 31.6973H120.439C120.35 31.6973 120.275 31.6973 120.186 31.7122C119.888 31.742 119.59 31.7718 119.292 31.8165C118.994 31.8612 118.726 31.9506 118.502 32.0698C118.279 32.189 118.085 32.3529 117.936 32.5466C117.787 32.7403 117.713 32.9936 117.713 33.2916C117.713 33.6342 117.802 33.9173 117.996 34.1557C118.189 34.3941 118.517 34.5133 118.979 34.5133C119.203 34.5133 119.426 34.4835 119.635 34.4239C119.843 34.3643 120.022 34.2898 120.186 34.1855C120.35 34.0812 120.469 33.9769 120.558 33.8726C120.648 33.7534 120.692 33.6491 120.692 33.5598V31.6973Z" fill="white"/>
</svg>
